{"glyphs":{"0":{"ha":989,"x_min":56,"x_max":935,"o":"m 543 167 q 767 464 767 167 l 767 476 q 710 714 767 639 q 540 789 654 789 l 449 789 q 278 714 335 789 q 222 476 222 639 l 222 464 q 447 167 222 167 l 543 167 m 499 957 q 935 482 931 957 l 935 478 q 500 0 935 0 l 490 0 q 56 478 56 0 l 56 482 q 492 957 57 957 l 499 957 z "},"1":{"ha":449,"x_min":39,"x_max":381,"o":"m 39 957 q 163 936 101 957 q 272 875 224 915 q 351 774 321 835 q 381 633 381 713 l 381 0 l 211 0 l 211 635 q 198 703 211 674 q 162 751 185 732 q 107 779 139 769 q 39 789 75 789 l 39 957 z "},"2":{"ha":1060,"x_min":82,"x_max":983,"o":"m 751 957 q 926 896 868 957 q 983 738 983 835 q 948 610 983 667 q 829 518 913 554 l 304 289 q 265 260 281 278 q 250 218 250 242 l 250 167 l 960 167 l 960 0 l 82 0 l 82 219 q 88 271 82 242 q 110 330 93 300 q 157 389 126 360 q 236 439 188 418 l 764 668 q 803 699 790 679 q 817 739 817 719 q 804 775 817 761 q 756 789 792 789 l 118 789 l 118 957 l 751 957 z "},"3":{"ha":901,"x_min":68,"x_max":847,"o":"m 546 957 q 682 935 625 957 q 776 876 739 914 q 830 787 813 839 q 847 675 847 735 q 822 569 847 624 q 742 482 797 515 q 822 395 797 449 q 847 283 847 342 q 831 179 847 231 q 779 88 815 128 q 686 24 743 49 q 546 0 629 0 l 68 0 l 68 167 l 571 167 q 650 200 619 167 q 681 286 681 233 q 672 328 681 308 q 648 364 663 349 q 614 388 633 379 q 572 397 594 397 l 346 397 l 346 565 l 571 565 q 650 598 619 565 q 681 678 681 631 q 672 720 681 700 q 648 756 663 740 q 614 780 633 771 q 572 789 594 789 l 68 789 l 68 957 l 546 957 z "},"4":{"ha":861,"x_min":56,"x_max":793,"o":"m 243 461 q 224 406 224 433 q 247 362 224 379 q 314 344 269 344 l 621 344 l 621 728 q 572 789 621 789 l 531 789 q 497 787 511 789 q 470 780 482 785 q 449 765 458 775 q 429 739 439 756 l 243 461 m 621 176 l 263 176 q 178 196 217 176 q 113 247 140 215 q 71 321 86 279 q 56 407 56 363 q 65 473 56 439 q 94 538 75 507 l 285 829 q 538 957 367 957 l 590 957 q 686 944 647 957 q 749 906 725 932 q 783 838 772 879 q 793 738 793 796 l 793 0 l 621 0 l 621 176 z "},"5":{"ha":919,"x_min":68,"x_max":850,"o":"m 814 789 l 238 789 l 238 565 l 578 565 q 781 490 711 565 q 850 283 850 414 q 830 172 850 224 q 774 83 810 121 q 688 22 738 44 q 578 0 638 0 l 68 0 l 68 168 l 578 168 q 619 178 600 168 q 652 206 638 189 q 675 243 667 222 q 683 285 683 264 q 653 363 683 329 q 578 397 622 397 l 68 397 l 68 957 l 814 957 l 814 789 z "},"6":{"ha":974,"x_min":56,"x_max":919,"o":"m 225 397 q 447 167 246 165 l 647 168 q 721 203 690 168 q 751 283 751 238 q 722 363 751 329 q 647 397 693 397 l 225 397 m 490 0 q 56 478 56 0 l 56 482 q 492 957 57 957 l 839 957 l 839 789 l 449 789 q 228 565 256 789 l 656 565 q 760 542 711 565 q 844 480 808 518 q 899 392 879 442 q 919 290 919 342 l 919 276 q 898 174 919 224 q 840 86 876 125 q 755 24 803 47 q 654 0 707 0 l 490 0 z "},"7":{"ha":1004,"x_min":56,"x_max":957,"o":"m 756 957 q 840 940 803 957 q 903 896 878 924 q 943 833 929 868 q 957 758 957 797 q 940 672 957 715 q 889 593 924 629 l 339 0 l 113 0 l 778 719 q 794 754 794 736 q 785 778 794 768 q 757 789 775 789 l 56 789 l 56 957 l 756 957 z "},"8":{"ha":946,"x_min":54,"x_max":893,"o":"m 251 599 q 288 574 269 583 q 331 565 306 565 l 615 565 q 695 598 665 565 q 725 678 725 631 q 693 756 725 722 q 617 789 661 789 l 329 789 q 288 780 307 789 q 253 756 268 771 q 230 720 239 740 q 221 678 221 700 q 251 599 221 631 m 696 200 q 725 286 725 233 q 693 364 725 331 q 617 397 661 397 l 329 397 q 288 388 307 397 q 253 364 268 379 q 230 328 239 349 q 221 286 221 308 q 251 201 221 236 q 331 167 281 167 l 615 167 q 696 200 663 167 m 592 957 q 731 935 674 957 q 825 876 789 914 q 877 786 861 838 q 893 675 893 735 q 868 569 893 624 q 788 482 843 515 q 868 395 843 449 q 893 283 893 342 q 877 179 893 231 q 825 88 861 128 q 732 24 789 49 q 592 0 675 0 l 356 0 q 215 24 272 0 q 122 89 157 49 q 70 180 86 129 q 54 283 54 231 q 78 395 54 342 q 157 482 101 449 q 78 569 101 515 q 54 675 54 624 q 71 786 54 735 q 124 876 88 838 q 217 935 160 914 q 356 957 274 957 l 592 957 z "},"9":{"ha":976,"x_min":57,"x_max":922,"o":"m 751 565 q 531 788 722 788 l 329 788 q 290 778 308 788 q 256 751 271 768 q 233 714 242 735 q 225 671 225 693 q 255 596 225 626 q 329 565 285 565 l 751 565 m 489 957 q 922 481 922 957 l 922 476 q 486 0 918 0 l 138 0 l 138 167 l 529 167 q 681 222 629 167 q 750 397 732 276 l 321 397 q 216 419 264 397 q 133 478 168 442 q 77 562 97 514 q 57 663 57 610 l 57 678 q 78 780 57 729 q 137 869 100 831 q 222 933 174 908 q 324 957 269 957 l 489 957 z "},"\u0017":{"ha":419,"x_min":0,"x_max":0,"o":""}," ":{"ha":419,"x_min":0,"x_max":0,"o":""},"!":{"ha":306,"x_min":69,"x_max":238,"o":"m 69 168 l 238 168 l 238 0 l 69 0 l 69 168 m 69 957 l 238 957 l 238 331 l 69 331 l 69 957 z "},"\"":{"ha":544,"x_min":46,"x_max":496,"o":"m 46 701 m 74 701 l 46 919 l 46 1110 l 224 1110 l 224 919 l 194 701 l 74 701 m 346 701 l 318 919 l 318 1110 l 496 1110 l 496 919 l 467 701 l 346 701 z "},"#":{"ha":772,"x_min":65,"x_max":701,"o":"m 481 339 l 481 517 l 300 517 l 300 339 l 481 339 m 621 111 l 481 111 l 481 194 l 300 194 l 300 111 l 157 111 l 157 194 l 65 194 l 65 339 l 157 339 l 157 517 l 65 517 l 65 660 l 157 660 l 157 746 l 300 746 l 300 660 l 481 660 l 481 746 l 621 746 l 621 660 l 701 660 l 701 517 l 621 517 l 621 339 l 701 339 l 701 194 l 621 194 l 621 111 z "},"$":{"ha":711,"x_min":69,"x_max":654,"o":"m 486 329 q 465 378 486 365 q 411 396 444 390 l 411 260 q 464 276 443 263 q 486 329 485 289 m 238 647 q 260 585 238 603 q 324 565 283 567 l 324 728 q 238 647 238 724 m 104 92 l 104 260 l 324 260 l 324 397 q 132 463 194 406 q 69 644 69 519 q 131 831 69 774 q 324 894 193 889 l 324 957 l 411 957 l 411 896 l 590 896 l 590 728 l 411 728 l 411 563 q 513 547 468 560 q 590 506 558 533 q 638 435 621 478 q 654 329 654 392 q 591 153 654 206 q 411 92 528 100 l 411 0 l 324 0 l 324 92 l 104 92 z "},"%":{"ha":1132,"x_min":56,"x_max":1076,"o":"m 56 0 m 299 576 q 411 725 411 576 l 411 731 q 297 888 411 888 l 251 888 q 139 731 139 888 l 139 725 q 251 576 139 576 l 299 576 m 276 971 q 494 733 492 971 l 494 732 q 278 493 494 493 l 272 493 q 56 732 56 493 l 56 733 q 274 971 56 971 l 276 971 m 135 0 l 871 957 l 999 957 l 264 0 l 135 0 m 881 69 q 993 218 993 69 l 993 224 q 879 381 993 381 l 833 381 q 721 224 721 381 l 721 218 q 833 69 721 69 l 881 69 m 858 464 q 1076 226 1074 464 l 1076 225 q 860 -14 1076 -14 l 854 -14 q 638 225 638 -14 l 638 226 q 856 464 638 464 l 858 464 z "},"&":{"ha":919,"x_min":69,"x_max":849,"o":"m 346 397 q 269 364 301 397 q 238 286 238 331 q 268 200 238 233 q 347 167 299 167 l 539 167 l 539 397 l 346 397 m 849 397 l 708 397 l 708 167 l 849 167 l 849 0 l 372 0 q 231 24 289 0 q 138 89 174 49 q 85 180 101 129 q 69 283 69 231 q 94 395 69 342 q 160 482 119 449 q 94 569 118 515 q 69 675 69 624 q 148 885 69 813 q 372 957 226 957 l 485 957 l 485 789 l 346 789 q 269 756 301 789 q 238 678 238 722 q 268 598 238 631 q 347 565 299 565 l 849 565 l 849 397 z "},"'":{"ha":272,"x_min":46,"x_max":224,"o":"m 74 701 l 46 919 l 46 1110 l 224 1110 l 224 919 l 194 701 l 74 701 z "},"(":{"ha":464,"x_min":99,"x_max":438,"o":"m 389 -200 q 272 -140 325 -178 q 180 -42 218 -101 q 120 102 142 18 q 99 301 99 186 l 99 632 q 120 831 99 747 q 180 974 142 915 q 272 1072 218 1033 q 389 1133 325 1110 l 438 1026 q 272 890 328 985 q 217 635 217 794 l 217 294 q 273 38 217 132 q 438 -96 329 -56 l 389 -200 z "},")":{"ha":464,"x_min":39,"x_max":378,"o":"m 39 -96 q 203 38 147 -56 q 260 294 260 132 l 260 635 q 203 890 260 794 q 39 1026 147 985 l 86 1133 q 203 1072 150 1110 q 296 974 257 1033 q 356 831 335 915 q 378 632 378 747 l 378 301 q 356 102 378 186 q 296 -42 335 18 q 203 -140 257 -101 q 86 -200 150 -178 l 39 -96 z "},"*":{"ha":663,"x_min":53,"x_max":608,"o":"m 517 592 l 401 531 l 332 667 l 263 531 l 147 592 l 228 746 l 53 746 l 53 878 l 224 878 l 146 1039 l 260 1097 l 332 953 l 406 1097 l 521 1036 l 439 878 l 608 878 l 608 746 l 436 746 l 517 592 z "},"+":{"ha":744,"x_min":28,"x_max":718,"o":"m 308 144 l 308 426 l 28 426 l 28 553 l 308 553 l 308 833 l 435 833 l 435 553 l 718 553 l 718 426 l 435 426 l 435 144 l 308 144 z "},",":{"ha":325,"x_min":15,"x_max":269,"o":"m 269 1 q 250 -96 269 -51 q 197 -172 231 -140 q 116 -220 163 -203 q 15 -237 69 -237 l 15 -69 q 72 -52 53 -69 q 90 -8 90 -35 l 90 168 l 269 168 l 269 1 z "},"-":{"ha":492,"x_min":56,"x_max":444,"o":"m 56 567 l 444 567 l 444 396 l 56 396 l 56 567 z "},".":{"ha":272,"x_min":46,"x_max":224,"o":"m 46 168 l 224 168 l 224 0 l 46 0 l 46 168 z "},"/":{"ha":690,"x_min":-12,"x_max":685,"o":"m -12 -126 l 565 989 l 685 989 l 108 -126 l -12 -126 z "},":":{"ha":285,"x_min":56,"x_max":233,"o":"m 56 167 l 233 167 l 233 0 l 56 0 l 56 167 m 56 565 l 233 565 l 233 397 l 56 397 l 56 565 z "},";":{"ha":296,"x_min":-15,"x_max":238,"o":"m 58 565 l 238 565 l 238 396 l 58 396 l 58 565 m 238 1 q 218 -96 238 -51 q 165 -172 199 -140 q 85 -220 131 -203 q -15 -237 39 -237 l -15 -69 q 41 -52 24 -69 q 58 -8 58 -35 l 58 168 l 238 168 l 238 1 z "},"<":{"ha":744,"x_min":28,"x_max":718,"o":"m 28 413 l 28 567 l 718 828 l 718 674 l 186 490 l 718 306 l 718 153 l 28 413 z "},"=":{"ha":744,"x_min":28,"x_max":718,"o":"m 28 289 l 28 415 l 718 415 l 718 289 l 28 289 m 28 564 l 28 690 l 718 690 l 718 564 l 28 564 z "},">":{"ha":744,"x_min":28,"x_max":718,"o":"m 28 153 l 28 306 l 558 490 l 28 674 l 28 828 l 718 567 l 718 413 l 28 153 z "},"?":{"ha":933,"x_min":64,"x_max":840,"o":"m 231 169 l 407 169 l 407 0 l 231 0 l 231 169 m 576 957 q 680 938 632 957 q 763 883 728 919 q 819 794 799 846 q 840 675 840 742 l 840 667 q 820 563 840 611 q 765 477 800 514 q 681 419 729 440 q 576 397 632 397 l 539 397 q 458 365 494 397 q 411 282 422 332 l 238 282 l 238 303 q 261 401 238 353 q 324 485 285 449 q 410 543 363 521 q 508 565 458 565 l 565 565 q 642 598 610 565 q 674 678 674 631 q 642 756 674 722 q 565 789 610 789 l 64 789 l 64 957 l 576 957 z "},"@":{"ha":982,"x_min":43,"x_max":957,"o":"m 957 25 q 778 -82 869 -53 q 585 -111 688 -111 q 340 -67 442 -111 q 172 47 238 -24 q 74 206 106 117 q 43 385 43 294 q 74 586 43 494 q 170 743 104 678 q 338 844 236 808 q 583 881 440 881 q 744 856 682 881 q 842 788 807 832 q 890 683 878 744 q 903 544 903 621 l 903 207 l 614 207 q 433 256 492 207 q 375 414 375 306 q 428 576 375 526 q 585 626 481 626 q 702 615 661 626 q 764 588 743 604 q 753 665 763 632 q 724 720 744 699 q 669 752 704 742 q 583 763 635 763 q 288 661 381 763 q 194 383 194 560 q 224 229 194 297 q 307 114 253 161 q 438 42 361 67 q 608 17 514 17 q 690 24 647 17 q 773 44 732 31 q 851 78 814 58 q 915 124 888 99 l 957 25 m 756 451 q 710 492 742 475 q 621 508 679 508 q 529 411 529 508 q 551 347 529 368 q 625 326 574 326 l 756 326 l 756 451 z "},"A":{"ha":1031,"x_min":32,"x_max":999,"o":"m 821 0 l 551 761 q 515 788 542 788 q 479 761 489 788 l 210 0 l 32 0 l 329 833 q 400 926 351 896 q 515 957 449 957 q 631 926 582 957 q 701 833 679 896 l 999 0 l 821 0 z "},"B":{"ha":901,"x_min":68,"x_max":847,"o":"m 546 957 q 685 935 628 957 q 779 876 743 914 q 831 786 815 838 q 847 675 847 735 q 822 569 847 624 q 742 482 797 515 q 822 395 797 449 q 847 283 847 342 q 831 179 847 231 q 779 88 815 128 q 686 24 743 49 q 546 0 629 0 l 68 0 l 68 167 l 571 167 q 650 200 619 167 q 681 286 681 233 q 672 328 681 308 q 648 364 663 349 q 614 388 633 379 q 572 397 594 397 l 68 397 l 68 565 l 571 565 q 650 598 619 565 q 681 678 681 631 q 672 720 681 700 q 648 756 663 740 q 614 780 633 771 q 572 789 594 789 l 68 789 l 68 957 l 546 957 z "},"C":{"ha":901,"x_min":56,"x_max":839,"o":"m 490 0 q 56 478 56 0 l 56 482 q 492 957 57 957 l 839 957 l 839 789 l 449 789 q 278 714 335 789 q 222 476 222 639 q 447 167 222 167 l 838 167 l 838 0 l 490 0 z "},"D":{"ha":951,"x_min":68,"x_max":897,"o":"m 236 167 l 504 167 q 674 242 618 167 q 729 482 729 318 q 506 789 729 789 l 236 789 l 236 167 m 464 957 q 897 481 897 957 l 897 476 q 463 0 893 0 l 68 0 l 68 957 l 464 957 z "},"E":{"ha":901,"x_min":54,"x_max":833,"o":"m 833 789 l 329 789 q 288 780 307 789 q 253 756 268 771 q 230 720 239 740 q 221 678 221 700 q 251 598 221 631 q 331 565 282 565 l 833 565 l 833 397 l 329 397 q 288 388 307 397 q 253 364 268 379 q 230 328 239 349 q 221 286 221 308 q 251 200 221 233 q 331 167 282 167 l 833 167 l 833 0 l 356 0 q 215 24 272 0 q 122 89 157 49 q 70 180 86 129 q 54 283 54 231 q 78 395 54 342 q 157 482 101 449 q 78 569 101 515 q 54 675 54 624 q 72 788 54 736 q 127 878 90 840 q 221 936 164 915 q 356 957 278 957 l 833 957 l 833 789 z "},"F":{"ha":851,"x_min":68,"x_max":799,"o":"m 799 789 l 486 789 q 309 732 376 789 q 236 565 242 675 l 799 565 l 799 397 l 236 397 l 236 0 l 68 0 l 68 543 q 94 715 68 639 q 174 845 121 792 q 307 928 228 899 q 492 957 386 957 l 799 957 l 799 789 z "},"G":{"ha":974,"x_min":56,"x_max":919,"o":"m 490 0 q 56 478 56 0 l 56 482 q 492 957 57 957 l 839 957 l 839 789 l 449 789 q 278 714 335 789 q 222 476 222 639 q 447 167 222 167 l 647 167 q 688 176 668 167 q 721 202 707 186 q 743 239 735 218 q 751 283 751 260 q 722 363 751 329 q 647 397 693 397 l 496 397 l 496 565 l 656 565 q 759 544 711 565 q 842 484 807 522 q 899 392 878 446 q 919 276 919 339 q 898 174 919 224 q 840 86 876 125 q 755 24 803 47 q 654 0 707 0 l 490 0 z "},"H":{"ha":917,"x_min":68,"x_max":847,"o":"m 681 397 l 236 397 l 236 0 l 68 0 l 68 957 l 236 957 l 236 565 l 681 565 l 681 957 l 847 957 l 847 0 l 681 0 l 681 397 z "},"I":{"ha":304,"x_min":68,"x_max":236,"o":"m 68 957 l 236 957 l 236 0 l 68 0 l 68 957 z "},"J":{"ha":800,"x_min":54,"x_max":731,"o":"m 54 167 l 314 167 q 498 231 432 167 q 564 413 564 296 l 564 957 l 731 957 l 731 414 q 704 243 731 319 q 625 113 678 167 q 494 29 572 58 q 310 0 415 0 l 54 0 l 54 167 z "},"K":{"ha":939,"x_min":68,"x_max":869,"o":"m 236 0 l 68 0 l 68 957 l 236 957 l 236 653 l 869 965 l 869 774 l 232 479 l 869 176 l 869 -10 l 236 306 l 236 0 z "},"L":{"ha":831,"x_min":68,"x_max":778,"o":"m 492 0 q 307 29 386 0 q 174 113 228 58 q 94 243 121 167 q 68 414 68 319 l 68 957 l 236 957 l 236 413 q 302 231 236 296 q 486 167 368 167 l 778 167 l 778 0 l 492 0 z "},"M":{"ha":1635,"x_min":32,"x_max":1567,"o":"m 321 811 q 403 921 346 882 q 536 960 461 960 q 633 943 588 960 q 711 896 678 926 q 764 822 744 865 q 783 725 783 778 l 783 243 q 854 160 783 160 q 890 174 878 160 q 913 218 903 189 l 1104 811 q 1187 921 1128 882 q 1319 960 1246 960 q 1416 943 1371 960 q 1494 896 1461 926 q 1547 822 1528 865 q 1567 725 1567 778 l 1567 0 l 1389 0 l 1389 708 q 1317 792 1389 792 q 1281 776 1293 792 q 1260 731 1269 760 l 1065 139 q 985 28 1046 68 q 851 -11 925 -11 q 754 6 799 -11 q 676 53 710 22 q 624 127 643 83 q 606 224 606 171 l 606 708 q 533 792 606 792 q 499 776 510 792 q 476 731 488 760 l 221 0 l 32 0 l 321 811 z "},"N":{"ha":1099,"x_min":68,"x_max":1031,"o":"m 1031 228 q 1011 131 1031 174 q 958 56 992 88 q 880 8 925 25 q 783 -8 835 -8 q 650 31 708 -8 q 568 142 592 71 l 376 731 q 355 776 368 760 q 318 792 342 792 q 247 708 247 792 l 247 0 l 68 0 l 68 725 q 87 822 68 778 q 139 896 106 865 q 217 943 172 926 q 315 960 263 960 q 447 921 389 960 q 529 811 506 882 l 722 221 q 744 177 732 192 q 781 163 757 163 q 851 246 851 163 l 851 957 l 1031 957 l 1031 228 z "},"O":{"ha":1056,"x_min":56,"x_max":1000,"o":"m 449 789 q 278 714 335 789 q 222 476 222 639 q 447 167 222 167 l 608 167 q 833 476 833 167 q 776 714 833 639 q 607 789 719 789 l 449 789 m 564 957 q 1000 482 996 957 l 1000 478 q 565 0 1000 0 l 490 0 q 56 478 56 0 l 56 482 q 492 957 57 957 l 564 957 z "},"P":{"ha":903,"x_min":69,"x_max":849,"o":"m 69 286 q 151 495 69 425 q 371 565 232 565 l 572 565 q 650 598 618 565 q 682 678 682 631 q 673 720 682 700 q 649 756 664 740 q 615 780 635 771 q 574 789 596 789 l 69 789 l 69 957 l 547 957 q 683 935 626 957 q 777 874 740 913 q 831 784 814 835 q 849 675 849 733 q 833 575 849 625 q 781 485 817 525 q 687 422 744 446 q 547 397 629 397 l 342 397 q 267 363 297 397 q 238 283 238 329 l 238 0 l 69 0 l 69 286 z "},"Q":{"ha":1067,"x_min":56,"x_max":1014,"o":"m 449 789 q 278 714 335 789 q 222 476 222 639 l 222 464 q 447 167 222 167 l 633 167 l 454 253 l 454 440 l 797 276 q 833 464 833 351 l 833 476 q 776 714 833 639 q 607 789 719 789 l 449 789 m 564 957 q 890 840 781 957 q 1000 482 1000 722 q 947 203 1000 311 l 1014 172 l 1014 -10 l 836 72 q 719 19 785 38 q 565 0 653 0 l 490 0 q 56 478 56 0 l 56 482 q 492 957 57 957 l 564 957 z "},"R":{"ha":918,"x_min":69,"x_max":871,"o":"m 69 286 q 151 495 69 425 q 371 565 232 565 l 572 565 q 650 598 618 565 q 682 678 682 631 q 673 720 682 700 q 649 756 664 740 q 615 780 635 771 q 574 789 596 789 l 69 789 l 69 957 l 547 957 q 683 935 626 957 q 777 874 740 913 q 831 784 814 835 q 849 675 849 733 q 833 575 849 625 q 781 485 817 525 q 687 422 744 446 q 547 397 629 397 l 354 397 l 871 169 l 871 -15 l 238 271 l 238 0 l 69 0 l 69 286 z "},"S":{"ha":950,"x_min":54,"x_max":896,"o":"m 896 279 q 816 70 896 140 q 593 0 736 0 l 101 0 l 101 167 l 625 167 q 699 201 669 167 q 728 283 728 235 q 699 363 728 329 q 625 397 669 397 l 356 397 q 215 422 272 397 q 122 488 157 447 q 70 577 86 528 q 54 675 54 626 q 71 784 54 733 q 124 874 88 835 q 218 935 161 913 q 356 957 275 957 l 833 957 l 833 789 l 329 789 q 288 780 307 789 q 253 756 268 771 q 230 720 239 740 q 221 678 221 700 q 253 598 221 631 q 331 565 285 565 l 596 565 q 815 495 735 565 q 896 286 896 425 l 896 279 z "},"T":{"ha":703,"x_min":39,"x_max":664,"o":"m 442 0 l 275 0 l 275 789 l 39 789 l 39 957 l 664 957 l 664 789 l 442 789 l 442 0 z "},"U":{"ha":943,"x_min":68,"x_max":874,"o":"m 874 363 q 849 214 874 281 q 774 100 824 147 q 648 26 724 53 q 472 0 572 0 q 299 26 374 0 q 172 101 224 53 q 94 215 121 149 q 68 361 68 282 l 68 957 l 236 957 l 236 365 q 299 222 236 278 q 475 167 363 167 l 479 167 q 649 222 592 167 q 706 365 706 278 l 706 957 l 874 957 l 874 363 z "},"V":{"ha":1031,"x_min":32,"x_max":999,"o":"m 518 164 q 536 169 528 164 q 551 192 544 175 l 821 957 l 999 957 l 701 115 q 631 24 679 53 q 515 -6 582 -6 q 399 25 449 -6 q 329 115 350 56 l 32 957 l 210 957 l 479 190 q 492 169 483 175 q 511 164 500 164 l 518 164 z "},"W":{"ha":1635,"x_min":32,"x_max":1567,"o":"m 476 225 q 498 182 486 197 q 533 167 510 167 q 606 250 606 167 l 606 726 q 624 823 606 779 q 676 897 643 867 q 754 944 710 928 q 851 961 799 961 q 984 922 925 961 q 1067 813 1043 883 l 1260 225 q 1281 182 1269 197 q 1317 167 1293 167 q 1389 250 1389 167 l 1389 957 l 1567 957 l 1567 232 q 1547 135 1567 179 q 1494 61 1528 92 q 1416 14 1461 31 q 1319 -3 1371 -3 q 1188 37 1247 -3 q 1104 147 1128 76 l 913 732 q 891 777 904 761 q 854 793 878 793 q 783 710 783 793 l 783 232 q 764 135 783 179 q 711 61 744 92 q 633 14 678 31 q 536 -3 588 -3 q 403 37 460 -3 q 321 147 346 76 l 32 957 l 221 957 l 476 225 z "},"X":{"ha":924,"x_min":26,"x_max":897,"o":"m 897 0 l 697 0 l 463 388 l 228 0 l 26 0 l 333 492 l 26 957 l 225 957 l 463 574 l 699 957 l 897 957 l 589 492 l 897 0 z "},"Y":{"ha":924,"x_min":25,"x_max":899,"o":"m 379 424 l 25 957 l 225 957 l 463 574 l 699 957 l 899 957 l 546 435 l 546 0 l 379 0 l 379 424 z "},"Z":{"ha":1025,"x_min":60,"x_max":961,"o":"m 742 668 q 781 699 765 679 q 797 738 797 718 q 782 774 797 760 q 735 789 767 789 l 96 789 l 96 957 l 729 957 q 903 896 846 957 q 961 738 961 835 q 958 692 961 719 q 941 635 956 665 q 895 574 926 604 q 808 518 864 543 l 282 289 q 241 258 254 276 q 228 221 228 240 q 246 181 228 194 q 289 167 264 167 l 939 167 l 939 0 l 293 0 q 118 61 176 0 q 60 218 60 122 q 65 273 60 243 q 88 333 71 303 q 135 390 104 363 q 215 439 165 418 l 742 668 z "},"[":{"ha":450,"x_min":115,"x_max":418,"o":"m 115 -200 l 115 1133 l 418 1133 l 418 1031 l 233 1031 l 233 -97 l 418 -97 l 418 -200 l 115 -200 z "},"\\":{"ha":704,"x_min":-24,"x_max":719,"o":"m 599 -101 l -24 1082 l 97 1082 l 719 -101 l 599 -101 z "},"]":{"ha":444,"x_min":32,"x_max":335,"o":"m 32 -200 l 32 -97 l 214 -97 l 214 1031 l 32 1031 l 32 1133 l 335 1133 l 335 -200 l 32 -200 z "},"^":{"ha":744,"x_min":115,"x_max":625,"o":"m 481 486 l 372 799 l 264 486 l 115 486 l 294 957 l 449 957 l 625 486 l 481 486 z "},"_":{"ha":733,"x_min":0,"x_max":733,"o":"m 0 -211 l 0 -96 l 733 -96 l 733 -211 l 0 -211 z "},"`":{"ha":606,"x_min":28,"x_max":578,"o":"m 28 1135 l 28 1293 l 578 1110 l 578 992 l 28 1135 z "},"a":{"ha":1031,"x_min":32,"x_max":999,"o":"m 511 789 q 479 761 490 789 l 315 304 l 713 304 l 551 760 q 536 783 544 776 q 518 789 528 789 l 511 789 m 258 138 l 210 0 l 32 0 l 329 835 q 400 928 351 897 q 515 958 449 958 q 631 928 582 958 q 701 835 679 897 l 999 0 l 821 0 l 771 138 l 258 138 z "},"b":{"ha":901,"x_min":68,"x_max":847,"o":"m 236 565 l 571 565 q 650 598 619 565 q 681 678 681 631 q 672 720 681 700 q 648 756 663 740 q 614 780 633 771 q 572 789 594 789 l 236 789 l 236 565 m 236 167 l 571 167 q 651 201 622 167 q 681 286 681 236 q 672 328 681 308 q 648 364 663 349 q 614 388 633 379 q 572 397 594 397 l 236 397 l 236 167 m 546 957 q 685 935 628 957 q 779 876 743 914 q 831 786 815 838 q 847 675 847 735 q 822 569 847 624 q 742 482 797 515 q 822 395 797 449 q 847 283 847 342 q 831 179 847 231 q 779 88 815 128 q 686 24 743 49 q 546 0 629 0 l 68 0 l 68 957 l 546 957 z "},"c":{"ha":901,"x_min":56,"x_max":839,"o":"m 56 0 m 490 0 q 56 478 56 0 l 56 482 q 492 957 57 957 l 839 957 l 839 789 l 449 789 q 278 714 335 789 q 222 476 222 639 q 447 167 222 167 l 838 167 l 838 0 l 490 0 z "},"d":{"ha":951,"x_min":68,"x_max":897,"o":"m 68 0 m 236 167 l 504 167 q 674 242 618 167 q 729 482 729 318 q 506 789 729 789 l 236 789 l 236 167 m 464 957 q 897 481 897 957 l 897 476 q 463 0 893 0 l 68 0 l 68 957 l 464 957 z "},"e":{"ha":901,"x_min":54,"x_max":833,"o":"m 54 0 m 833 789 l 329 789 q 288 780 307 789 q 253 756 268 771 q 230 720 239 740 q 221 678 221 700 q 251 598 221 631 q 331 565 282 565 l 833 565 l 833 397 l 329 397 q 288 388 307 397 q 253 364 268 379 q 230 328 239 349 q 221 286 221 308 q 251 200 221 233 q 331 167 282 167 l 833 167 l 833 0 l 356 0 q 215 24 272 0 q 122 89 157 49 q 70 180 86 129 q 54 283 54 231 q 78 395 54 342 q 157 482 101 449 q 78 569 101 515 q 54 675 54 624 q 72 788 54 736 q 127 878 90 840 q 221 936 164 915 q 356 957 278 957 l 833 957 l 833 789 z "},"f":{"ha":851,"x_min":68,"x_max":799,"o":"m 68 0 m 799 789 l 486 789 q 309 732 376 789 q 236 565 242 675 l 799 565 l 799 397 l 236 397 l 236 0 l 68 0 l 68 543 q 94 715 68 639 q 174 845 121 792 q 307 928 228 899 q 492 957 386 957 l 799 957 l 799 789 z "},"g":{"ha":974,"x_min":56,"x_max":919,"o":"m 56 0 m 490 0 q 56 478 56 0 l 56 482 q 492 957 57 957 l 839 957 l 839 789 l 449 789 q 278 714 335 789 q 222 476 222 639 q 447 167 222 167 l 647 167 q 688 176 668 167 q 721 202 707 186 q 743 239 735 218 q 751 283 751 260 q 722 363 751 329 q 647 397 693 397 l 496 397 l 496 565 l 656 565 q 759 544 711 565 q 842 484 807 522 q 899 392 878 446 q 919 276 919 339 q 898 174 919 224 q 840 86 876 125 q 755 24 803 47 q 654 0 707 0 l 490 0 z "},"h":{"ha":917,"x_min":68,"x_max":847,"o":"m 68 0 m 681 397 l 236 397 l 236 0 l 68 0 l 68 957 l 236 957 l 236 565 l 681 565 l 681 957 l 847 957 l 847 0 l 681 0 l 681 397 z "},"i":{"ha":304,"x_min":68,"x_max":236,"o":"m 68 0 m 68 957 l 236 957 l 236 0 l 68 0 l 68 957 z "},"j":{"ha":800,"x_min":54,"x_max":731,"o":"m 54 0 m 54 167 l 314 167 q 498 231 432 167 q 564 413 564 296 l 564 957 l 731 957 l 731 414 q 704 243 731 319 q 625 113 678 167 q 494 29 572 58 q 310 0 415 0 l 54 0 l 54 167 z "},"k":{"ha":939,"x_min":68,"x_max":869,"o":"m 68 0 m 236 0 l 68 0 l 68 957 l 236 957 l 236 653 l 869 965 l 869 774 l 232 479 l 869 176 l 869 -10 l 236 306 l 236 0 z "},"l":{"ha":831,"x_min":68,"x_max":778,"o":"m 68 0 m 492 0 q 307 29 386 0 q 174 113 228 58 q 94 243 121 167 q 68 414 68 319 l 68 957 l 236 957 l 236 413 q 302 231 236 296 q 486 167 368 167 l 778 167 l 778 0 l 492 0 z "},"m":{"ha":1635,"x_min":74,"x_max":1610,"o":"m 74 0 l 74 725 q 92 822 74 778 q 144 896 111 865 q 223 943 178 926 q 321 960 268 960 q 454 921 396 960 q 536 811 513 882 l 728 225 q 750 182 738 197 q 786 167 763 167 q 857 250 857 167 l 857 725 q 876 822 857 778 q 928 896 894 865 q 1006 943 961 926 q 1104 960 1051 960 q 1235 921 1176 960 q 1319 811 1294 882 l 1610 0 l 1419 0 l 1167 731 q 1144 776 1156 760 q 1108 792 1132 792 q 1036 708 1036 792 l 1036 232 q 1017 135 1036 179 q 965 61 999 92 q 887 14 932 31 q 789 -3 842 -3 q 656 37 714 -3 q 575 147 599 76 l 383 731 q 361 776 374 760 q 325 792 349 792 q 253 708 253 792 l 253 0 l 74 0 z "},"n":{"ha":1099,"x_min":68,"x_max":1031,"o":"m 68 0 m 1031 228 q 1011 131 1031 174 q 958 56 992 88 q 880 8 925 25 q 783 -8 835 -8 q 650 31 708 -8 q 568 142 592 71 l 376 731 q 355 776 368 760 q 318 792 342 792 q 247 708 247 792 l 247 0 l 68 0 l 68 725 q 87 822 68 778 q 139 896 106 865 q 217 943 172 926 q 315 960 263 960 q 447 921 389 960 q 529 811 506 882 l 722 221 q 744 177 732 192 q 781 163 757 163 q 851 246 851 163 l 851 957 l 1031 957 l 1031 228 z "},"o":{"ha":1056,"x_min":56,"x_max":1000,"o":"m 56 0 m 449 789 q 278 714 335 789 q 222 476 222 639 q 447 167 222 167 l 608 167 q 833 476 833 167 q 776 714 833 639 q 607 789 719 789 l 449 789 m 564 957 q 1000 482 996 957 l 1000 478 q 565 0 1000 0 l 490 0 q 56 478 56 0 l 56 482 q 492 957 57 957 l 564 957 z "},"p":{"ha":901,"x_min":68,"x_max":847,"o":"m 236 565 l 571 565 q 649 598 617 565 q 681 678 681 631 q 672 720 681 700 q 648 756 663 740 q 614 780 633 771 q 572 789 594 789 l 236 789 l 236 565 m 546 957 q 682 935 625 957 q 776 874 739 913 q 830 784 813 835 q 847 675 847 733 q 831 575 847 625 q 779 485 815 525 q 685 422 743 446 q 546 397 628 397 l 236 397 l 236 0 l 68 0 l 68 957 l 546 957 z "},"q":{"ha":1067,"x_min":56,"x_max":1014,"o":"m 56 0 m 449 789 q 278 714 335 789 q 222 476 222 639 l 222 464 q 447 167 222 167 l 633 167 l 454 253 l 454 440 l 797 276 q 833 464 833 351 l 833 476 q 776 714 833 639 q 607 789 719 789 l 449 789 m 564 957 q 890 840 781 957 q 1000 482 1000 722 q 947 203 1000 311 l 1014 172 l 1014 -10 l 836 72 q 719 19 785 38 q 565 0 653 0 l 490 0 q 56 478 56 0 l 56 482 q 492 957 57 957 l 564 957 z "},"r":{"ha":901,"x_min":68,"x_max":854,"o":"m 236 560 l 571 560 q 649 594 617 560 q 681 675 681 628 q 672 718 681 697 q 648 754 663 739 q 614 779 633 769 q 572 789 594 789 l 236 789 l 236 560 m 546 957 q 682 935 625 957 q 776 874 739 913 q 830 784 813 835 q 847 675 847 733 q 831 575 847 625 q 779 485 815 525 q 685 422 743 446 q 546 397 628 397 l 468 397 l 854 181 l 854 -19 l 236 357 l 236 0 l 68 0 l 68 957 l 546 957 z "},"s":{"ha":950,"x_min":54,"x_max":896,"o":"m 54 0 m 896 279 q 816 70 896 140 q 593 0 736 0 l 101 0 l 101 167 l 625 167 q 699 201 669 167 q 728 283 728 235 q 699 363 728 329 q 625 397 669 397 l 356 397 q 215 422 272 397 q 122 488 157 447 q 70 577 86 528 q 54 675 54 626 q 71 784 54 733 q 124 874 88 835 q 218 935 161 913 q 356 957 275 957 l 833 957 l 833 789 l 329 789 q 288 780 307 789 q 253 756 268 771 q 230 720 239 740 q 221 678 221 700 q 253 598 221 631 q 331 565 285 565 l 596 565 q 815 495 735 565 q 896 286 896 425 l 896 279 z "},"t":{"ha":703,"x_min":39,"x_max":664,"o":"m 39 0 m 442 0 l 275 0 l 275 789 l 39 789 l 39 957 l 664 957 l 664 789 l 442 789 l 442 0 z "},"u":{"ha":943,"x_min":68,"x_max":874,"o":"m 68 0 m 874 363 q 849 214 874 281 q 774 100 824 147 q 648 26 724 53 q 472 0 572 0 q 299 26 374 0 q 172 101 224 53 q 94 215 121 149 q 68 361 68 282 l 68 957 l 236 957 l 236 365 q 299 222 236 278 q 475 167 363 167 l 479 167 q 649 222 592 167 q 706 365 706 278 l 706 957 l 874 957 l 874 363 z "},"v":{"ha":1031,"x_min":32,"x_max":999,"o":"m 32 0 m 518 164 q 536 169 528 164 q 551 192 544 175 l 821 957 l 999 957 l 701 115 q 631 24 679 53 q 515 -6 582 -6 q 399 25 449 -6 q 329 115 350 56 l 32 957 l 210 957 l 479 190 q 492 169 483 175 q 511 164 500 164 l 518 164 z "},"w":{"ha":1635,"x_min":68,"x_max":1604,"o":"m 1313 143 q 1228 35 1286 75 q 1099 -6 1169 -6 q 1001 11 1046 -6 q 922 58 956 28 q 870 132 889 89 q 851 229 851 175 l 851 710 q 781 793 851 793 q 744 777 757 793 q 722 732 732 761 l 529 143 l 531 143 q 449 33 508 72 q 315 -6 390 -6 q 217 11 263 -6 q 139 58 172 28 q 87 132 106 89 q 68 229 68 175 l 68 957 l 247 957 l 247 247 q 318 164 247 164 q 355 178 342 164 q 376 222 368 193 l 571 813 q 652 922 594 883 q 783 961 710 961 q 880 944 835 961 q 958 897 925 928 q 1011 823 992 867 q 1031 726 1031 779 l 1031 247 q 1101 164 1031 164 q 1137 178 1125 164 q 1160 222 1149 193 l 1414 957 l 1604 957 l 1313 143 z "},"x":{"ha":924,"x_min":26,"x_max":897,"o":"m 26 0 m 897 0 l 697 0 l 463 388 l 228 0 l 26 0 l 333 492 l 26 957 l 225 957 l 463 574 l 699 957 l 897 957 l 589 492 l 897 0 z "},"y":{"ha":924,"x_min":25,"x_max":899,"o":"m 25 0 m 379 424 l 25 957 l 225 957 l 463 574 l 699 957 l 899 957 l 546 435 l 546 0 l 379 0 l 379 424 z "},"z":{"ha":1025,"x_min":60,"x_max":961,"o":"m 60 0 m 742 668 q 781 699 765 679 q 797 738 797 718 q 782 774 797 760 q 735 789 767 789 l 96 789 l 96 957 l 729 957 q 903 896 846 957 q 961 738 961 835 q 958 692 961 719 q 941 635 956 665 q 895 574 926 604 q 808 518 864 543 l 282 289 q 241 258 254 276 q 228 221 228 240 q 246 181 228 194 q 289 167 264 167 l 939 167 l 939 0 l 293 0 q 118 61 176 0 q 60 218 60 122 q 65 273 60 243 q 88 333 71 303 q 135 390 104 363 q 215 439 165 418 l 742 668 z "},"{":{"ha":475,"x_min":25,"x_max":443,"o":"m 363 -200 q 290 -192 326 -200 q 222 -160 253 -183 q 172 -97 192 -137 q 153 11 153 -56 l 153 311 q 126 403 153 378 q 58 428 99 428 l 25 428 l 25 542 l 67 542 q 128 568 104 542 q 153 653 153 594 l 153 943 q 172 1035 153 999 q 220 1094 190 1072 q 286 1124 250 1115 q 358 1133 322 1133 l 443 1133 l 443 1025 l 369 1025 q 322 1017 340 1025 q 292 991 303 1010 q 276 940 281 972 q 271 857 271 907 l 271 619 q 260 569 271 592 q 234 528 250 546 q 199 500 218 511 q 163 483 181 489 q 200 464 181 475 q 235 436 219 453 q 260 398 250 419 q 271 347 271 376 l 271 44 q 277 -25 271 1 q 296 -66 283 -51 q 326 -85 308 -81 q 368 -90 344 -90 l 443 -90 l 443 -200 l 363 -200 z "},"|":{"ha":406,"x_min":154,"x_max":260,"o":"m 154 -137 l 154 1094 l 260 1094 l 260 -137 l 154 -137 z "},"}":{"ha":475,"x_min":25,"x_max":443,"o":"m 25 -200 l 25 -90 l 100 -90 q 140 -85 122 -90 q 171 -66 158 -81 q 190 -25 183 -51 q 197 44 197 1 l 197 347 q 207 398 197 376 q 233 436 217 419 q 267 464 249 453 q 304 483 286 475 q 267 501 286 489 q 233 529 249 513 q 207 569 217 546 q 197 619 197 592 l 197 856 q 192 939 197 906 q 176 991 188 972 q 145 1017 164 1010 q 99 1025 126 1025 l 25 1025 l 25 1133 l 108 1133 q 180 1124 143 1133 q 247 1094 217 1115 q 296 1035 276 1072 q 315 943 315 999 l 315 653 q 340 568 315 594 q 401 542 364 542 l 443 542 l 443 428 l 407 428 q 342 403 369 428 q 315 311 315 379 l 315 14 q 296 -95 315 -53 q 246 -160 276 -137 q 178 -192 215 -183 q 104 -200 140 -200 l 25 -200 z "},"~":{"ha":744,"x_min":29,"x_max":718,"o":"m 718 442 q 642 384 679 403 q 558 365 606 365 q 462 387 507 365 q 373 434 417 408 q 285 481 329 460 q 194 503 242 503 q 121 479 160 503 q 29 397 82 456 l 29 538 q 97 594 61 574 q 182 615 133 615 q 284 594 238 615 q 374 547 331 572 q 459 499 417 521 q 547 478 501 478 q 624 501 583 478 q 718 588 665 525 l 718 442 z "}," ":{"ha":419,"x_min":0,"x_max":0,"o":""},"¡":{"ha":306,"x_min":69,"x_max":238,"o":"m 238 788 l 69 788 l 69 957 l 238 957 l 238 788 m 238 0 l 69 0 l 69 626 l 238 626 l 238 0 z "},"¢":{"ha":901,"x_min":56,"x_max":839,"o":"m 568 0 l 568 -253 l 456 -253 l 456 0 q 56 478 56 18 l 56 482 q 456 956 57 936 l 456 1129 l 568 1129 l 568 957 l 839 957 l 839 789 l 568 789 l 568 167 l 838 167 l 838 0 l 568 0 m 222 476 q 278 244 222 321 q 456 167 335 167 l 456 789 q 278 714 335 789 q 222 476 222 639 z "},"£":{"ha":761,"x_min":63,"x_max":703,"o":"m 165 167 l 165 397 l 63 397 l 63 565 l 165 565 q 194 725 167 653 q 276 849 222 797 q 407 928 329 900 q 588 957 485 957 l 703 957 l 703 789 l 582 789 q 405 732 472 789 q 332 565 338 675 l 540 565 l 540 397 l 332 397 l 332 167 l 703 167 l 703 0 l 63 0 l 63 167 l 165 167 z "},"¥":{"ha":1044,"x_min":31,"x_max":978,"o":"m 592 0 l 411 0 l 411 67 l 265 67 l 265 196 l 411 196 l 411 269 l 265 269 l 265 396 l 382 396 l 31 957 l 233 957 l 504 539 l 771 957 l 978 957 l 618 396 l 728 396 l 728 269 l 592 269 l 592 196 l 728 196 l 728 67 l 592 67 l 592 0 z "},"¦":{"ha":406,"x_min":154,"x_max":260,"o":"m 154 -137 l 154 386 l 260 386 l 260 -137 l 154 -137 m 154 571 l 154 1094 l 260 1094 l 260 571 l 154 571 z "},"¨":{"ha":607,"x_min":28,"x_max":579,"o":"m 404 1047 l 404 1211 l 579 1211 l 579 1047 l 404 1047 m 28 1047 l 28 1211 l 201 1211 l 201 1047 l 28 1047 z "},"©":{"ha":1056,"x_min":56,"x_max":1001,"o":"m 621 106 q 822 192 751 106 q 893 461 893 279 q 823 756 893 661 q 618 850 753 850 l 439 850 q 238 758 311 850 q 165 476 165 665 q 236 197 165 288 q 438 106 307 106 l 621 106 m 471 0 q 162 116 268 0 q 56 478 56 232 q 163 840 56 724 q 471 957 269 957 l 586 957 q 894 840 786 957 q 1001 482 1001 724 q 898 118 1001 236 q 588 0 794 0 l 471 0 m 507 233 q 282 481 282 233 q 508 728 282 728 l 690 728 l 690 639 l 488 639 q 401 601 429 639 q 374 479 374 563 q 488 322 374 322 l 690 322 l 690 233 l 507 233 z "},"ª":{"ha":618,"x_min":19,"x_max":600,"o":"m 307 839 q 288 824 294 839 l 189 549 l 426 549 l 331 822 q 311 839 324 839 l 307 839 m 156 449 l 126 367 l 19 367 l 197 867 q 241 923 211 906 q 310 940 271 940 q 378 922 349 940 q 421 867 407 904 l 600 367 l 493 367 l 464 449 l 156 449 z "},"«":{"ha":836,"x_min":22,"x_max":813,"o":"m 22 139 m 22 490 l 304 839 l 394 742 l 186 490 l 393 238 l 304 139 l 22 490 m 440 490 l 722 839 l 813 742 l 604 490 l 811 238 l 722 139 l 440 490 z "},"®":{"ha":1056,"x_min":56,"x_max":1001,"o":"m 619 106 q 822 192 750 106 q 893 461 893 279 q 822 756 893 661 q 617 850 751 850 l 439 850 q 238 758 311 850 q 165 476 165 665 q 236 197 165 288 q 438 106 307 106 l 619 106 m 471 0 q 162 116 268 0 q 56 478 56 232 q 163 839 56 721 q 471 957 271 957 l 586 957 q 894 840 786 957 q 1001 482 1001 724 q 898 118 1001 236 q 586 0 794 0 l 471 0 m 410 367 l 410 213 l 311 213 l 311 376 q 358 497 311 456 q 483 538 404 538 l 600 538 q 642 556 625 538 q 660 601 660 574 q 642 644 660 625 q 600 664 624 664 l 311 664 l 311 761 l 585 761 q 665 748 632 761 q 719 713 699 735 q 749 661 740 690 q 758 600 758 632 q 751 547 758 575 q 723 497 743 519 q 669 460 703 475 q 585 446 636 446 l 501 446 q 490 445 496 446 q 476 443 483 444 l 772 317 l 772 207 l 410 367 z "},"¯":{"ha":700,"x_min":28,"x_max":672,"o":"m 28 1064 l 28 1196 l 672 1196 l 672 1064 l 28 1064 z "},"°":{"ha":490,"x_min":44,"x_max":450,"o":"m 246 897 q 166 868 193 897 q 139 799 139 839 q 166 730 139 758 q 246 701 193 701 q 326 730 294 701 q 358 799 358 758 q 326 868 358 839 q 246 897 294 897 m 246 601 q 164 617 201 601 q 100 660 126 633 q 59 723 74 688 q 44 799 44 758 q 59 876 44 840 q 100 940 74 913 q 164 983 126 967 q 246 999 201 999 q 326 983 289 999 q 392 941 364 968 q 435 878 419 914 q 450 799 450 842 q 434 723 450 758 q 390 660 418 688 q 326 617 363 633 q 246 601 289 601 z "},"±":{"ha":744,"x_min":28,"x_max":718,"o":"m 28 0 m 308 144 l 308 426 l 28 426 l 28 553 l 308 553 l 308 833 l 435 833 l 435 553 l 718 553 l 718 426 l 435 426 l 435 144 l 308 144 m 28 -31 l 28 96 l 718 96 l 718 -31 l 28 -31 z "},"²":{"ha":571,"x_min":61,"x_max":513,"o":"m 61 493 m 396 971 q 483 940 454 971 q 513 861 513 910 q 494 797 513 825 q 435 751 476 769 l 172 638 q 153 622 161 632 q 146 601 146 613 l 146 576 l 500 576 l 500 493 l 61 493 l 61 603 q 64 627 61 613 q 75 657 67 642 q 99 687 83 672 q 139 713 114 701 l 403 826 q 422 842 415 832 q 429 863 429 853 q 423 881 429 874 q 399 888 417 888 l 79 888 l 79 971 l 396 971 z "},"³":{"ha":492,"x_min":54,"x_max":444,"o":"m 54 493 m 293 971 q 408 932 372 971 q 444 831 444 893 q 432 778 444 806 q 392 733 419 750 q 432 690 419 717 q 444 635 444 663 q 436 583 444 608 q 410 538 428 557 q 364 506 393 518 q 293 493 335 493 l 54 493 l 54 576 l 306 576 q 345 593 329 576 q 361 636 361 610 q 345 675 361 658 q 307 692 329 692 l 193 692 l 193 775 l 306 775 q 345 792 329 775 q 361 832 361 808 q 345 871 361 854 q 307 888 329 888 l 54 888 l 54 971 l 293 971 z "},"´":{"ha":606,"x_min":28,"x_max":578,"o":"m 28 992 l 28 1110 l 578 1293 l 578 1135 l 28 992 z "},"¶":{"ha":776,"x_min":32,"x_max":715,"o":"m 617 -153 l 617 618 l 290 618 l 290 -153 l 193 -153 l 193 622 q 69 683 106 642 q 32 794 32 724 q 43 859 32 829 q 80 910 54 889 q 146 944 106 932 q 244 957 186 957 l 715 957 l 715 -153 l 617 -153 z "},"·":{"ha":272,"x_min":46,"x_max":224,"o":"m 46 543 l 224 543 l 224 375 l 46 375 l 46 543 z "},"¸":{"ha":283,"x_min":28,"x_max":257,"o":"m 28 -219 q 76 -200 60 -219 q 93 -153 93 -181 l 93 -54 l 257 -54 l 257 -156 q 239 -244 257 -204 q 190 -312 221 -283 q 117 -358 160 -342 q 28 -374 75 -374 l 28 -219 z "},"¹":{"ha":265,"x_min":40,"x_max":211,"o":"m 40 493 m 40 971 q 102 960 71 971 q 157 930 133 950 q 196 879 181 910 q 211 810 211 849 l 211 493 l 126 493 l 126 810 q 101 869 126 850 q 40 888 76 888 l 40 971 z "},"º":{"ha":633,"x_min":33,"x_max":601,"o":"m 367 467 q 500 650 500 467 q 467 792 500 747 q 365 838 433 838 l 271 838 q 167 792 200 838 q 135 650 135 747 q 269 467 135 467 l 367 467 m 339 939 q 601 654 600 939 l 601 650 q 340 367 601 367 l 293 367 q 33 650 33 367 l 33 654 q 101 867 36 796 q 296 939 165 939 l 339 939 z "},"»":{"ha":836,"x_min":22,"x_max":813,"o":"m 22 139 m 22 238 l 231 490 l 22 742 l 113 839 l 394 490 l 113 139 l 22 238 m 440 238 l 649 490 l 440 742 l 531 839 l 813 490 l 531 139 l 440 238 z "},"¼":{"ha":1024,"x_min":56,"x_max":968,"o":"m 56 0 m 100 971 q 162 960 131 971 q 217 930 193 950 q 256 879 240 910 q 271 810 271 849 l 271 493 l 186 493 l 186 810 q 161 869 186 850 q 100 888 136 888 l 100 971 m 56 0 l 792 957 l 919 957 l 185 0 l 56 0 m 693 217 q 683 189 683 201 q 729 158 683 158 l 882 158 l 882 350 q 858 381 882 381 l 838 381 q 808 376 818 381 q 786 356 797 371 l 693 217 m 882 74 l 703 74 q 660 83 679 74 q 628 109 642 93 q 608 146 615 125 q 600 189 600 167 q 619 254 600 222 l 714 400 q 840 464 756 464 l 867 464 q 947 439 925 464 q 968 354 968 414 l 968 -14 l 882 -14 l 882 74 z "},"½":{"ha":1147,"x_min":56,"x_max":1092,"o":"m 56 0 m 128 971 q 190 960 158 971 q 244 930 221 950 q 283 879 268 910 q 299 810 299 849 l 299 493 l 214 493 l 214 810 q 189 869 214 850 q 128 888 164 888 l 128 971 m 56 0 l 792 957 l 919 957 l 185 0 l 56 0 m 975 464 q 1063 433 1033 464 q 1092 354 1092 403 q 1074 290 1092 318 q 1014 244 1056 263 l 751 131 q 733 115 740 125 q 725 94 725 106 l 725 69 l 1079 69 l 1079 -14 l 640 -14 l 640 96 q 643 120 640 106 q 654 150 646 135 q 678 180 663 165 q 718 206 693 194 l 982 319 q 1001 335 994 325 q 1008 356 1008 346 q 1002 374 1008 367 q 978 381 996 381 l 658 381 l 658 464 l 975 464 z "},"¾":{"ha":1011,"x_min":56,"x_max":956,"o":"m 56 0 m 294 971 q 410 932 374 971 q 446 831 446 893 q 433 778 446 806 q 393 733 421 750 q 433 690 421 717 q 446 635 446 663 q 438 583 446 608 q 412 538 429 557 q 365 506 394 518 q 294 493 336 493 l 56 493 l 56 576 l 307 576 q 347 593 331 576 q 363 636 363 610 q 347 675 363 658 q 308 692 331 692 l 194 692 l 194 775 l 307 775 q 347 792 331 775 q 363 832 363 808 q 347 871 363 854 q 308 888 331 888 l 56 888 l 56 971 l 294 971 m 85 0 l 821 957 l 949 957 l 214 0 l 85 0 m 681 217 q 671 189 671 201 q 717 158 671 158 l 869 158 l 869 350 q 846 381 869 381 l 825 381 q 795 376 806 381 q 774 356 785 371 l 681 217 m 869 74 l 690 74 q 648 83 667 74 q 616 109 629 93 q 595 146 603 125 q 588 189 588 167 q 607 254 588 222 l 701 400 q 828 464 743 464 l 854 464 q 934 439 913 464 q 956 354 956 414 l 956 -14 l 869 -14 l 869 74 z "},"¿":{"ha":933,"x_min":64,"x_max":840,"o":"m 675 786 l 499 786 l 499 957 l 675 957 l 675 786 m 329 0 q 225 19 274 0 q 141 74 176 38 q 85 163 106 111 q 64 282 64 215 l 64 290 q 84 394 64 346 q 140 480 104 443 q 224 538 176 517 q 329 560 272 560 l 367 560 q 447 592 411 560 q 494 675 483 625 l 668 675 l 668 654 q 644 556 668 604 q 582 472 621 508 q 494 414 543 436 q 396 392 446 392 l 340 392 q 263 359 294 392 q 232 278 232 326 q 263 200 232 233 q 340 167 294 167 l 840 167 l 840 0 l 329 0 z "},"À":{"ha":1031,"x_min":32,"x_max":999,"o":"m 32 0 m 821 0 l 551 761 q 515 788 542 788 q 479 761 489 788 l 210 0 l 32 0 l 329 833 q 400 926 351 896 q 515 957 449 957 q 631 926 582 957 q 701 833 679 896 l 999 0 l 821 0 m 199 1135 l 199 1293 l 749 1110 l 749 992 l 199 1135 z "},"Á":{"ha":1031,"x_min":32,"x_max":999,"o":"m 32 0 m 821 0 l 551 761 q 515 788 542 788 q 479 761 489 788 l 210 0 l 32 0 l 329 833 q 400 926 351 896 q 515 957 449 957 q 631 926 582 957 q 701 833 679 896 l 999 0 l 821 0 m 282 992 l 282 1110 l 832 1293 l 832 1135 l 282 992 z "},"Â":{"ha":1031,"x_min":32,"x_max":999,"o":"m 32 0 m 821 0 l 551 761 q 515 788 542 788 q 479 761 489 788 l 210 0 l 32 0 l 329 833 q 400 926 351 896 q 515 957 449 957 q 631 926 582 957 q 701 833 679 896 l 999 0 l 821 0 m 661 1001 l 514 1197 l 365 1001 l 226 1001 l 404 1239 q 454 1280 425 1267 q 514 1293 483 1293 q 573 1280 544 1293 q 622 1239 601 1267 l 803 1001 l 661 1001 z "},"Ã":{"ha":1031,"x_min":32,"x_max":999,"o":"m 32 0 m 821 0 l 551 761 q 515 788 542 788 q 479 761 489 788 l 210 0 l 32 0 l 329 833 q 400 926 351 896 q 515 957 449 957 q 631 926 582 957 q 701 833 679 896 l 999 0 l 821 0 m 193 1064 l 193 1196 l 838 1196 l 838 1064 l 193 1064 z "},"Ä":{"ha":1031,"x_min":32,"x_max":999,"o":"m 32 0 m 821 0 l 551 761 q 515 788 542 788 q 479 761 489 788 l 210 0 l 32 0 l 329 833 q 400 926 351 896 q 515 957 449 957 q 631 926 582 957 q 701 833 679 896 l 999 0 l 821 0 m 615 1047 l 615 1211 l 790 1211 l 790 1047 l 615 1047 m 239 1047 l 239 1211 l 413 1211 l 413 1047 l 239 1047 z "},"Å":{"ha":1031,"x_min":32,"x_max":999,"o":"m 32 0 m 821 0 l 551 761 q 515 788 542 788 q 479 761 489 788 l 210 0 l 32 0 l 329 833 q 400 926 351 896 q 515 957 449 957 q 631 926 582 957 q 701 833 679 896 l 999 0 l 821 0 m 676 1139 q 640 1026 676 1068 q 514 983 603 983 q 388 1026 424 983 q 353 1139 353 1069 q 388 1251 353 1208 q 514 1293 424 1293 q 640 1251 604 1293 q 676 1139 676 1210 m 514 1042 q 588 1069 568 1042 q 607 1139 607 1097 q 588 1207 607 1179 q 514 1235 568 1235 q 439 1207 460 1235 q 418 1139 418 1179 q 439 1069 418 1097 q 514 1042 460 1042 z "},"Æ":{"ha":1292,"x_min":32,"x_max":1203,"o":"m 324 811 l 321 811 q 403 921 344 882 q 536 960 461 960 q 563 959 553 960 q 579 957 574 958 l 1203 957 l 1203 789 l 775 789 q 783 725 783 756 l 783 565 l 1203 565 l 1203 397 l 783 397 l 783 167 l 1203 167 l 1203 0 l 606 0 l 606 708 q 533 792 606 792 q 476 729 486 792 l 204 0 l 32 0 l 324 811 z "},"Ç":{"ha":901,"x_min":56,"x_max":839,"o":"m 56 0 m 490 0 q 56 478 56 0 l 56 482 q 492 957 57 957 l 839 957 l 839 789 l 449 789 q 278 714 335 789 q 222 476 222 639 q 447 167 222 167 l 838 167 l 838 0 l 490 0 m 378 -219 q 426 -200 410 -219 q 443 -153 443 -181 l 443 -54 l 607 -54 l 607 -156 q 589 -244 607 -204 q 540 -312 571 -283 q 467 -358 510 -342 q 378 -374 425 -374 l 378 -219 z "},"È":{"ha":901,"x_min":54,"x_max":833,"o":"m 54 0 m 833 789 l 329 789 q 288 780 307 789 q 253 756 268 771 q 230 720 239 740 q 221 678 221 700 q 251 598 221 631 q 331 565 282 565 l 833 565 l 833 397 l 329 397 q 288 388 307 397 q 253 364 268 379 q 230 328 239 349 q 221 286 221 308 q 251 200 221 233 q 331 167 282 167 l 833 167 l 833 0 l 356 0 q 215 24 272 0 q 122 89 157 49 q 70 180 86 129 q 54 283 54 231 q 78 395 54 342 q 157 482 101 449 q 78 569 101 515 q 54 675 54 624 q 72 788 54 736 q 127 878 90 840 q 221 936 164 915 q 356 957 278 957 l 833 957 l 833 789 m 161 1135 l 161 1293 l 711 1110 l 711 992 l 161 1135 z "},"É":{"ha":901,"x_min":54,"x_max":833,"o":"m 54 0 m 833 789 l 329 789 q 288 780 307 789 q 253 756 268 771 q 230 720 239 740 q 221 678 221 700 q 251 598 221 631 q 331 565 282 565 l 833 565 l 833 397 l 329 397 q 288 388 307 397 q 253 364 268 379 q 230 328 239 349 q 221 286 221 308 q 251 200 221 233 q 331 167 282 167 l 833 167 l 833 0 l 356 0 q 215 24 272 0 q 122 89 157 49 q 70 180 86 129 q 54 283 54 231 q 78 395 54 342 q 157 482 101 449 q 78 569 101 515 q 54 675 54 624 q 72 788 54 736 q 127 878 90 840 q 221 936 164 915 q 356 957 278 957 l 833 957 l 833 789 m 258 992 l 258 1110 l 808 1293 l 808 1135 l 258 992 z "},"Ê":{"ha":901,"x_min":54,"x_max":833,"o":"m 54 0 m 833 789 l 329 789 q 288 780 307 789 q 253 756 268 771 q 230 720 239 740 q 221 678 221 700 q 251 598 221 631 q 331 565 282 565 l 833 565 l 833 397 l 329 397 q 288 388 307 397 q 253 364 268 379 q 230 328 239 349 q 221 286 221 308 q 251 200 221 233 q 331 167 282 167 l 833 167 l 833 0 l 356 0 q 215 24 272 0 q 122 89 157 49 q 70 180 86 129 q 54 283 54 231 q 78 395 54 342 q 157 482 101 449 q 78 569 101 515 q 54 675 54 624 q 72 788 54 736 q 127 878 90 840 q 221 936 164 915 q 356 957 278 957 l 833 957 l 833 789 m 625 1001 l 478 1197 l 329 1001 l 190 1001 l 368 1239 q 418 1280 389 1267 q 478 1293 447 1293 q 537 1280 508 1293 q 586 1239 565 1267 l 767 1001 l 625 1001 z "},"Ë":{"ha":901,"x_min":54,"x_max":833,"o":"m 54 0 m 833 789 l 329 789 q 288 780 307 789 q 253 756 268 771 q 230 720 239 740 q 221 678 221 700 q 251 598 221 631 q 331 565 282 565 l 833 565 l 833 397 l 329 397 q 288 388 307 397 q 253 364 268 379 q 230 328 239 349 q 221 286 221 308 q 251 200 221 233 q 331 167 282 167 l 833 167 l 833 0 l 356 0 q 215 24 272 0 q 122 89 157 49 q 70 180 86 129 q 54 283 54 231 q 78 395 54 342 q 157 482 101 449 q 78 569 101 515 q 54 675 54 624 q 72 788 54 736 q 127 878 90 840 q 221 936 164 915 q 356 957 278 957 l 833 957 l 833 789 m 579 1047 l 579 1211 l 754 1211 l 754 1047 l 579 1047 m 203 1047 l 203 1211 l 376 1211 l 376 1047 l 203 1047 z "},"Ì":{"ha":304,"x_min":-162,"x_max":388,"o":"m 0 0 m 68 957 l 236 957 l 236 0 l 68 0 l 68 957 m -162 1135 l -162 1293 l 388 1110 l 388 992 l -162 1135 z "},"Í":{"ha":304,"x_min":-79,"x_max":471,"o":"m 0 0 m 68 957 l 236 957 l 236 0 l 68 0 l 68 957 m -79 992 l -79 1110 l 471 1293 l 471 1135 l -79 992 z "},"Î":{"ha":304,"x_min":-135,"x_max":442,"o":"m 0 0 m 68 957 l 236 957 l 236 0 l 68 0 l 68 957 m 300 1001 l 153 1197 l 4 1001 l -135 1001 l 43 1239 q 93 1280 64 1267 q 153 1293 122 1293 q 212 1280 183 1293 q 261 1239 240 1267 l 442 1001 l 300 1001 z "},"Ï":{"ha":304,"x_min":-122,"x_max":429,"o":"m 0 0 m 68 957 l 236 957 l 236 0 l 68 0 l 68 957 m 254 1047 l 254 1211 l 429 1211 l 429 1047 l 254 1047 m -122 1047 l -122 1211 l 51 1211 l 51 1047 l -122 1047 z "},"Ð":{"ha":951,"x_min":11,"x_max":897,"o":"m 11 567 l 68 567 l 68 957 l 464 957 q 897 481 897 957 l 897 476 q 463 0 893 0 l 68 0 l 68 396 l 11 396 l 11 567 m 236 567 l 400 567 l 400 396 l 236 396 l 236 167 l 504 167 q 674 242 618 167 q 729 482 729 318 q 506 789 729 789 l 236 789 l 236 567 z "},"Ñ":{"ha":1099,"x_min":68,"x_max":1031,"o":"m 68 0 m 1031 228 q 1011 131 1031 174 q 958 56 992 88 q 880 8 925 25 q 783 -8 835 -8 q 650 31 708 -8 q 568 142 592 71 l 376 731 q 355 776 368 760 q 318 792 342 792 q 247 708 247 792 l 247 0 l 68 0 l 68 725 q 87 822 68 778 q 139 896 106 865 q 217 943 172 926 q 315 960 263 960 q 447 921 389 960 q 529 811 506 882 l 722 221 q 744 177 732 192 q 781 163 757 163 q 851 246 851 163 l 851 957 l 1031 957 l 1031 228 m 226 1064 l 226 1196 l 871 1196 l 871 1064 l 226 1064 z "},"Ò":{"ha":1056,"x_min":56,"x_max":1000,"o":"m 56 0 m 449 789 q 278 714 335 789 q 222 476 222 639 q 447 167 222 167 l 608 167 q 833 476 833 167 q 776 714 833 639 q 607 789 719 789 l 449 789 m 564 957 q 1000 482 996 957 l 1000 478 q 565 0 1000 0 l 490 0 q 56 478 56 0 l 56 482 q 492 957 57 957 l 564 957 m 211 1135 l 211 1293 l 761 1110 l 761 992 l 211 1135 z "},"Ó":{"ha":1056,"x_min":56,"x_max":1000,"o":"m 56 0 m 449 789 q 278 714 335 789 q 222 476 222 639 q 447 167 222 167 l 608 167 q 833 476 833 167 q 776 714 833 639 q 607 789 719 789 l 449 789 m 564 957 q 1000 482 996 957 l 1000 478 q 565 0 1000 0 l 490 0 q 56 478 56 0 l 56 482 q 492 957 57 957 l 564 957 m 294 992 l 294 1110 l 844 1293 l 844 1135 l 294 992 z "},"Ô":{"ha":1056,"x_min":56,"x_max":1000,"o":"m 56 0 m 449 789 q 278 714 335 789 q 222 476 222 639 q 447 167 222 167 l 608 167 q 833 476 833 167 q 776 714 833 639 q 607 789 719 789 l 449 789 m 564 957 q 1000 482 996 957 l 1000 478 q 565 0 1000 0 l 490 0 q 56 478 56 0 l 56 482 q 492 957 57 957 l 564 957 m 674 1001 l 526 1197 l 378 1001 l 239 1001 l 417 1239 q 467 1280 438 1267 q 526 1293 496 1293 q 585 1280 557 1293 q 635 1239 614 1267 l 815 1001 l 674 1001 z "},"Õ":{"ha":1056,"x_min":56,"x_max":1000,"o":"m 56 0 m 449 789 q 278 714 335 789 q 222 476 222 639 q 447 167 222 167 l 608 167 q 833 476 833 167 q 776 714 833 639 q 607 789 719 789 l 449 789 m 564 957 q 1000 482 996 957 l 1000 478 q 565 0 1000 0 l 490 0 q 56 478 56 0 l 56 482 q 492 957 57 957 l 564 957 m 206 1064 l 206 1196 l 850 1196 l 850 1064 l 206 1064 z "},"Ö":{"ha":1056,"x_min":56,"x_max":1000,"o":"m 56 0 m 449 789 q 278 714 335 789 q 222 476 222 639 q 447 167 222 167 l 608 167 q 833 476 833 167 q 776 714 833 639 q 607 789 719 789 l 449 789 m 564 957 q 1000 482 996 957 l 1000 478 q 565 0 1000 0 l 490 0 q 56 478 56 0 l 56 482 q 492 957 57 957 l 564 957 m 628 1047 l 628 1211 l 803 1211 l 803 1047 l 628 1047 m 251 1047 l 251 1211 l 425 1211 l 425 1047 l 251 1047 z "},"×":{"ha":744,"x_min":83,"x_max":661,"o":"m 372 400 l 172 200 l 83 289 l 282 490 l 83 688 l 172 776 l 372 579 l 571 776 l 660 688 l 461 490 l 661 289 l 572 200 l 372 400 z "},"Ø":{"ha":1056,"x_min":56,"x_max":1000,"o":"m 165 -42 l 228 64 q 56 478 56 176 l 56 482 q 492 957 57 957 l 564 957 q 740 932 665 957 l 781 999 l 893 999 l 829 889 q 1000 482 999 778 l 1000 478 q 565 0 1000 0 l 490 0 q 319 22 390 0 l 282 -42 l 165 -42 m 449 789 q 278 714 335 789 q 222 476 222 639 q 313 208 222 282 l 656 789 l 449 789 m 833 476 q 744 746 833 675 l 406 167 l 608 167 q 833 476 833 167 z "},"Ù":{"ha":943,"x_min":68,"x_max":874,"o":"m 68 0 m 874 363 q 849 214 874 281 q 774 100 824 147 q 648 26 724 53 q 472 0 572 0 q 299 26 374 0 q 172 101 224 53 q 94 215 121 149 q 68 361 68 282 l 68 957 l 236 957 l 236 365 q 299 222 236 278 q 475 167 363 167 l 479 167 q 649 222 592 167 q 706 365 706 278 l 706 957 l 874 957 l 874 363 m 154 1135 l 154 1293 l 704 1110 l 704 992 l 154 1135 z "},"Ú":{"ha":943,"x_min":68,"x_max":874,"o":"m 68 0 m 874 363 q 849 214 874 281 q 774 100 824 147 q 648 26 724 53 q 472 0 572 0 q 299 26 374 0 q 172 101 224 53 q 94 215 121 149 q 68 361 68 282 l 68 957 l 236 957 l 236 365 q 299 222 236 278 q 475 167 363 167 l 479 167 q 649 222 592 167 q 706 365 706 278 l 706 957 l 874 957 l 874 363 m 238 992 l 238 1110 l 788 1293 l 788 1135 l 238 992 z "},"Û":{"ha":943,"x_min":68,"x_max":874,"o":"m 68 0 m 874 363 q 849 214 874 281 q 774 100 824 147 q 648 26 724 53 q 472 0 572 0 q 299 26 374 0 q 172 101 224 53 q 94 215 121 149 q 68 361 68 282 l 68 957 l 236 957 l 236 365 q 299 222 236 278 q 475 167 363 167 l 479 167 q 649 222 592 167 q 706 365 706 278 l 706 957 l 874 957 l 874 363 m 618 1001 l 471 1197 l 322 1001 l 183 1001 l 361 1239 q 411 1280 382 1267 q 471 1293 440 1293 q 530 1280 501 1293 q 579 1239 558 1267 l 760 1001 l 618 1001 z "},"Ü":{"ha":943,"x_min":68,"x_max":874,"o":"m 68 0 m 874 363 q 849 214 874 281 q 774 100 824 147 q 648 26 724 53 q 472 0 572 0 q 299 26 374 0 q 172 101 224 53 q 94 215 121 149 q 68 361 68 282 l 68 957 l 236 957 l 236 365 q 299 222 236 278 q 475 167 363 167 l 479 167 q 649 222 592 167 q 706 365 706 278 l 706 957 l 874 957 l 874 363 m 572 1047 l 572 1211 l 747 1211 l 747 1047 l 572 1047 m 196 1047 l 196 1211 l 369 1211 l 369 1047 l 196 1047 z "},"Ý":{"ha":924,"x_min":25,"x_max":899,"o":"m 25 0 m 379 424 l 25 957 l 225 957 l 463 574 l 699 957 l 899 957 l 546 435 l 546 0 l 379 0 l 379 424 m 228 992 l 228 1110 l 778 1293 l 778 1135 l 228 992 z "},"Þ":{"ha":828,"x_min":68,"x_max":771,"o":"m 236 375 l 494 375 q 573 408 542 375 q 604 489 604 440 q 572 567 604 533 q 496 600 540 600 l 236 600 l 236 375 m 236 957 l 236 767 l 469 767 q 606 744 549 767 q 700 683 664 722 q 753 594 736 644 q 771 485 771 543 q 755 385 771 435 q 703 295 739 335 q 609 231 667 256 q 469 207 551 207 l 236 207 l 236 0 l 68 0 l 68 957 l 236 957 z "},"ß":{"ha":1900,"x_min":54,"x_max":1846,"o":"m 54 0 m 896 279 q 816 70 896 140 q 593 0 736 0 l 101 0 l 101 167 l 625 167 q 699 201 669 167 q 728 283 728 235 q 699 363 728 329 q 625 397 669 397 l 356 397 q 215 422 272 397 q 122 488 157 447 q 70 577 86 528 q 54 675 54 626 q 71 784 54 733 q 124 874 88 835 q 218 935 161 913 q 356 957 275 957 l 833 957 l 833 789 l 329 789 q 288 780 307 789 q 253 756 268 771 q 230 720 239 740 q 221 678 221 700 q 253 598 221 631 q 331 565 285 565 l 596 565 q 815 495 735 565 q 896 286 896 425 l 896 279 m 1846 279 q 1766 70 1846 140 q 1543 0 1686 0 l 1051 0 l 1051 167 l 1575 167 q 1649 201 1619 167 q 1678 283 1678 235 q 1649 363 1678 329 q 1575 397 1619 397 l 1306 397 q 1165 422 1222 397 q 1072 488 1107 447 q 1020 577 1036 528 q 1004 675 1004 626 q 1021 784 1004 733 q 1074 874 1038 835 q 1168 935 1111 913 q 1306 957 1225 957 l 1783 957 l 1783 789 l 1279 789 q 1238 780 1257 789 q 1203 756 1218 771 q 1180 720 1189 740 q 1171 678 1171 700 q 1203 598 1171 631 q 1281 565 1235 565 l 1546 565 q 1765 495 1685 565 q 1846 286 1846 425 l 1846 279 z "},"à":{"ha":1031,"x_min":32,"x_max":999,"o":"m 32 0 m 511 789 q 479 761 490 789 l 315 304 l 713 304 l 551 760 q 536 783 544 776 q 518 789 528 789 l 511 789 m 258 138 l 210 0 l 32 0 l 329 835 q 400 928 351 897 q 515 958 449 958 q 631 928 582 958 q 701 835 679 897 l 999 0 l 821 0 l 771 138 l 258 138 m 199 1135 l 199 1293 l 749 1110 l 749 992 l 199 1135 z "},"á":{"ha":1031,"x_min":32,"x_max":999,"o":"m 32 0 m 511 789 q 479 761 490 789 l 315 304 l 713 304 l 551 760 q 536 783 544 776 q 518 789 528 789 l 511 789 m 258 138 l 210 0 l 32 0 l 329 835 q 400 928 351 897 q 515 958 449 958 q 631 928 582 958 q 701 835 679 897 l 999 0 l 821 0 l 771 138 l 258 138 m 282 992 l 282 1110 l 832 1293 l 832 1135 l 282 992 z "},"â":{"ha":1031,"x_min":32,"x_max":999,"o":"m 32 0 m 511 789 q 479 761 490 789 l 315 304 l 713 304 l 551 760 q 536 783 544 776 q 518 789 528 789 l 511 789 m 258 138 l 210 0 l 32 0 l 329 835 q 400 928 351 897 q 515 958 449 958 q 631 928 582 958 q 701 835 679 897 l 999 0 l 821 0 l 771 138 l 258 138 m 661 1001 l 514 1197 l 365 1001 l 226 1001 l 404 1239 q 454 1280 425 1267 q 514 1293 483 1293 q 573 1280 544 1293 q 622 1239 601 1267 l 803 1001 l 661 1001 z "},"ã":{"ha":1031,"x_min":32,"x_max":999,"o":"m 32 0 m 511 789 q 479 761 490 789 l 315 304 l 713 304 l 551 760 q 536 783 544 776 q 518 789 528 789 l 511 789 m 258 138 l 210 0 l 32 0 l 329 835 q 400 928 351 897 q 515 958 449 958 q 631 928 582 958 q 701 835 679 897 l 999 0 l 821 0 l 771 138 l 258 138 m 193 1064 l 193 1196 l 838 1196 l 838 1064 l 193 1064 z "},"ä":{"ha":1031,"x_min":32,"x_max":999,"o":"m 32 0 m 511 789 q 479 761 490 789 l 315 304 l 713 304 l 551 760 q 536 783 544 776 q 518 789 528 789 l 511 789 m 258 138 l 210 0 l 32 0 l 329 835 q 400 928 351 897 q 515 958 449 958 q 631 928 582 958 q 701 835 679 897 l 999 0 l 821 0 l 771 138 l 258 138 m 615 1047 l 615 1211 l 790 1211 l 790 1047 l 615 1047 m 239 1047 l 239 1211 l 413 1211 l 413 1047 l 239 1047 z "},"å":{"ha":1031,"x_min":32,"x_max":999,"o":"m 32 0 m 511 789 q 479 761 490 789 l 315 304 l 713 304 l 551 760 q 536 783 544 776 q 518 789 528 789 l 511 789 m 258 138 l 210 0 l 32 0 l 329 835 q 400 928 351 897 q 515 958 449 958 q 631 928 582 958 q 701 835 679 897 l 999 0 l 821 0 l 771 138 l 258 138 m 676 1139 q 640 1026 676 1068 q 514 983 603 983 q 388 1026 424 983 q 353 1139 353 1069 q 388 1251 353 1208 q 514 1293 424 1293 q 640 1251 604 1293 q 676 1139 676 1210 m 514 1042 q 588 1069 568 1042 q 607 1139 607 1097 q 588 1207 607 1179 q 514 1235 568 1235 q 439 1207 460 1235 q 418 1139 418 1179 q 439 1069 418 1097 q 514 1042 460 1042 z "},"æ":{"ha":1292,"x_min":32,"x_max":1203,"o":"m 324 811 l 321 811 q 403 921 344 882 q 536 960 461 960 l 558 960 q 567 959 561 960 q 579 957 572 958 l 1203 957 l 1203 789 l 775 789 q 783 725 783 756 l 783 565 l 1203 565 l 1203 397 l 783 397 l 783 167 l 1203 167 l 1203 0 l 606 0 l 606 138 l 256 138 l 204 0 l 32 0 l 324 811 m 606 293 l 606 708 q 533 792 606 792 q 476 729 486 792 l 314 293 l 606 293 z "},"ç":{"ha":901,"x_min":56,"x_max":839,"o":"m 56 0 m 490 0 q 56 478 56 0 l 56 482 q 492 957 57 957 l 839 957 l 839 789 l 449 789 q 278 714 335 789 q 222 476 222 639 q 447 167 222 167 l 838 167 l 838 0 l 490 0 m 378 -219 q 426 -200 410 -219 q 443 -153 443 -181 l 443 -54 l 607 -54 l 607 -156 q 589 -244 607 -204 q 540 -312 571 -283 q 467 -358 510 -342 q 378 -374 425 -374 l 378 -219 z "},"è":{"ha":901,"x_min":54,"x_max":833,"o":"m 54 0 m 833 789 l 329 789 q 288 780 307 789 q 253 756 268 771 q 230 720 239 740 q 221 678 221 700 q 251 598 221 631 q 331 565 282 565 l 833 565 l 833 397 l 329 397 q 288 388 307 397 q 253 364 268 379 q 230 328 239 349 q 221 286 221 308 q 251 200 221 233 q 331 167 282 167 l 833 167 l 833 0 l 356 0 q 215 24 272 0 q 122 89 157 49 q 70 180 86 129 q 54 283 54 231 q 78 395 54 342 q 157 482 101 449 q 78 569 101 515 q 54 675 54 624 q 72 788 54 736 q 127 878 90 840 q 221 936 164 915 q 356 957 278 957 l 833 957 l 833 789 m 161 1135 l 161 1293 l 711 1110 l 711 992 l 161 1135 z "},"é":{"ha":901,"x_min":54,"x_max":833,"o":"m 54 0 m 833 789 l 329 789 q 288 780 307 789 q 253 756 268 771 q 230 720 239 740 q 221 678 221 700 q 251 598 221 631 q 331 565 282 565 l 833 565 l 833 397 l 329 397 q 288 388 307 397 q 253 364 268 379 q 230 328 239 349 q 221 286 221 308 q 251 200 221 233 q 331 167 282 167 l 833 167 l 833 0 l 356 0 q 215 24 272 0 q 122 89 157 49 q 70 180 86 129 q 54 283 54 231 q 78 395 54 342 q 157 482 101 449 q 78 569 101 515 q 54 675 54 624 q 72 788 54 736 q 127 878 90 840 q 221 936 164 915 q 356 957 278 957 l 833 957 l 833 789 m 258 992 l 258 1110 l 808 1293 l 808 1135 l 258 992 z "},"ê":{"ha":901,"x_min":54,"x_max":833,"o":"m 54 0 m 833 789 l 329 789 q 288 780 307 789 q 253 756 268 771 q 230 720 239 740 q 221 678 221 700 q 251 598 221 631 q 331 565 282 565 l 833 565 l 833 397 l 329 397 q 288 388 307 397 q 253 364 268 379 q 230 328 239 349 q 221 286 221 308 q 251 200 221 233 q 331 167 282 167 l 833 167 l 833 0 l 356 0 q 215 24 272 0 q 122 89 157 49 q 70 180 86 129 q 54 283 54 231 q 78 395 54 342 q 157 482 101 449 q 78 569 101 515 q 54 675 54 624 q 72 788 54 736 q 127 878 90 840 q 221 936 164 915 q 356 957 278 957 l 833 957 l 833 789 m 625 1001 l 478 1197 l 329 1001 l 190 1001 l 368 1239 q 418 1280 389 1267 q 478 1293 447 1293 q 537 1280 508 1293 q 586 1239 565 1267 l 767 1001 l 625 1001 z "},"ë":{"ha":901,"x_min":54,"x_max":833,"o":"m 54 0 m 833 789 l 329 789 q 288 780 307 789 q 253 756 268 771 q 230 720 239 740 q 221 678 221 700 q 251 598 221 631 q 331 565 282 565 l 833 565 l 833 397 l 329 397 q 288 388 307 397 q 253 364 268 379 q 230 328 239 349 q 221 286 221 308 q 251 200 221 233 q 331 167 282 167 l 833 167 l 833 0 l 356 0 q 215 24 272 0 q 122 89 157 49 q 70 180 86 129 q 54 283 54 231 q 78 395 54 342 q 157 482 101 449 q 78 569 101 515 q 54 675 54 624 q 72 788 54 736 q 127 878 90 840 q 221 936 164 915 q 356 957 278 957 l 833 957 l 833 789 m 579 1047 l 579 1211 l 754 1211 l 754 1047 l 579 1047 m 203 1047 l 203 1211 l 376 1211 l 376 1047 l 203 1047 z "},"ì":{"ha":304,"x_min":-162,"x_max":388,"o":"m 0 0 m 68 957 l 236 957 l 236 0 l 68 0 l 68 957 m -162 1135 l -162 1293 l 388 1110 l 388 992 l -162 1135 z "},"í":{"ha":304,"x_min":-79,"x_max":471,"o":"m 0 0 m 68 957 l 236 957 l 236 0 l 68 0 l 68 957 m -79 992 l -79 1110 l 471 1293 l 471 1135 l -79 992 z "},"î":{"ha":304,"x_min":-135,"x_max":442,"o":"m 0 0 m 68 957 l 236 957 l 236 0 l 68 0 l 68 957 m 300 1001 l 153 1197 l 4 1001 l -135 1001 l 43 1239 q 93 1280 64 1267 q 153 1293 122 1293 q 212 1280 183 1293 q 261 1239 240 1267 l 442 1001 l 300 1001 z "},"ï":{"ha":304,"x_min":-122,"x_max":429,"o":"m 0 0 m 68 957 l 236 957 l 236 0 l 68 0 l 68 957 m 254 1047 l 254 1211 l 429 1211 l 429 1047 l 254 1047 m -122 1047 l -122 1211 l 51 1211 l 51 1047 l -122 1047 z "},"ð":{"ha":951,"x_min":11,"x_max":897,"o":"m 11 0 m 11 567 l 68 567 l 68 957 l 464 957 q 897 481 897 957 l 897 476 q 463 0 893 0 l 68 0 l 68 396 l 11 396 l 11 567 m 236 567 l 400 567 l 400 396 l 236 396 l 236 167 l 504 167 q 674 242 618 167 q 729 482 729 318 q 506 789 729 789 l 236 789 l 236 567 z "},"ñ":{"ha":1099,"x_min":68,"x_max":1031,"o":"m 68 0 m 1031 228 q 1011 131 1031 174 q 958 56 992 88 q 880 8 925 25 q 783 -8 835 -8 q 650 31 708 -8 q 568 142 592 71 l 376 731 q 355 776 368 760 q 318 792 342 792 q 247 708 247 792 l 247 0 l 68 0 l 68 725 q 87 822 68 778 q 139 896 106 865 q 217 943 172 926 q 315 960 263 960 q 447 921 389 960 q 529 811 506 882 l 722 221 q 744 177 732 192 q 781 163 757 163 q 851 246 851 163 l 851 957 l 1031 957 l 1031 228 m 226 1064 l 226 1196 l 871 1196 l 871 1064 l 226 1064 z "},"ò":{"ha":1056,"x_min":56,"x_max":1000,"o":"m 56 0 m 449 789 q 278 714 335 789 q 222 476 222 639 q 447 167 222 167 l 608 167 q 833 476 833 167 q 776 714 833 639 q 607 789 719 789 l 449 789 m 564 957 q 1000 482 996 957 l 1000 478 q 565 0 1000 0 l 490 0 q 56 478 56 0 l 56 482 q 492 957 57 957 l 564 957 m 211 1135 l 211 1293 l 761 1110 l 761 992 l 211 1135 z "},"ó":{"ha":1056,"x_min":56,"x_max":1000,"o":"m 56 0 m 449 789 q 278 714 335 789 q 222 476 222 639 q 447 167 222 167 l 608 167 q 833 476 833 167 q 776 714 833 639 q 607 789 719 789 l 449 789 m 564 957 q 1000 482 996 957 l 1000 478 q 565 0 1000 0 l 490 0 q 56 478 56 0 l 56 482 q 492 957 57 957 l 564 957 m 294 992 l 294 1110 l 844 1293 l 844 1135 l 294 992 z "},"ô":{"ha":1056,"x_min":56,"x_max":1000,"o":"m 56 0 m 449 789 q 278 714 335 789 q 222 476 222 639 q 447 167 222 167 l 608 167 q 833 476 833 167 q 776 714 833 639 q 607 789 719 789 l 449 789 m 564 957 q 1000 482 996 957 l 1000 478 q 565 0 1000 0 l 490 0 q 56 478 56 0 l 56 482 q 492 957 57 957 l 564 957 m 674 1001 l 526 1197 l 378 1001 l 239 1001 l 417 1239 q 467 1280 438 1267 q 526 1293 496 1293 q 585 1280 557 1293 q 635 1239 614 1267 l 815 1001 l 674 1001 z "},"õ":{"ha":1056,"x_min":56,"x_max":1000,"o":"m 56 0 m 449 789 q 278 714 335 789 q 222 476 222 639 q 447 167 222 167 l 608 167 q 833 476 833 167 q 776 714 833 639 q 607 789 719 789 l 449 789 m 564 957 q 1000 482 996 957 l 1000 478 q 565 0 1000 0 l 490 0 q 56 478 56 0 l 56 482 q 492 957 57 957 l 564 957 m 206 1064 l 206 1196 l 850 1196 l 850 1064 l 206 1064 z "},"ö":{"ha":1056,"x_min":56,"x_max":1000,"o":"m 56 0 m 449 789 q 278 714 335 789 q 222 476 222 639 q 447 167 222 167 l 608 167 q 833 476 833 167 q 776 714 833 639 q 607 789 719 789 l 449 789 m 564 957 q 1000 482 996 957 l 1000 478 q 565 0 1000 0 l 490 0 q 56 478 56 0 l 56 482 q 492 957 57 957 l 564 957 m 628 1047 l 628 1211 l 803 1211 l 803 1047 l 628 1047 m 251 1047 l 251 1211 l 425 1211 l 425 1047 l 251 1047 z "},"÷":{"ha":744,"x_min":28,"x_max":718,"o":"m 28 133 m 28 426 l 28 553 l 718 553 l 718 426 l 28 426 m 283 846 l 461 846 l 461 678 l 283 678 l 283 846 m 283 301 l 461 301 l 461 133 l 283 133 l 283 301 z "},"ø":{"ha":1056,"x_min":56,"x_max":1000,"o":"m 56 0 m 165 -42 l 228 64 q 56 478 56 176 l 56 482 q 492 957 57 957 l 564 957 q 740 932 665 957 l 781 999 l 893 999 l 829 889 q 1000 482 999 778 l 1000 478 q 565 0 1000 0 l 490 0 q 319 22 390 0 l 282 -42 l 165 -42 m 449 789 q 278 714 335 789 q 222 476 222 639 q 313 208 222 282 l 656 789 l 449 789 m 833 476 q 744 746 833 675 l 406 167 l 608 167 q 833 476 833 167 z "},"ù":{"ha":943,"x_min":68,"x_max":874,"o":"m 68 0 m 874 363 q 849 214 874 281 q 774 100 824 147 q 648 26 724 53 q 472 0 572 0 q 299 26 374 0 q 172 101 224 53 q 94 215 121 149 q 68 361 68 282 l 68 957 l 236 957 l 236 365 q 299 222 236 278 q 475 167 363 167 l 479 167 q 649 222 592 167 q 706 365 706 278 l 706 957 l 874 957 l 874 363 m 154 1135 l 154 1293 l 704 1110 l 704 992 l 154 1135 z "},"ú":{"ha":943,"x_min":68,"x_max":874,"o":"m 68 0 m 874 363 q 849 214 874 281 q 774 100 824 147 q 648 26 724 53 q 472 0 572 0 q 299 26 374 0 q 172 101 224 53 q 94 215 121 149 q 68 361 68 282 l 68 957 l 236 957 l 236 365 q 299 222 236 278 q 475 167 363 167 l 479 167 q 649 222 592 167 q 706 365 706 278 l 706 957 l 874 957 l 874 363 m 238 992 l 238 1110 l 788 1293 l 788 1135 l 238 992 z "},"û":{"ha":943,"x_min":68,"x_max":874,"o":"m 68 0 m 874 363 q 849 214 874 281 q 774 100 824 147 q 648 26 724 53 q 472 0 572 0 q 299 26 374 0 q 172 101 224 53 q 94 215 121 149 q 68 361 68 282 l 68 957 l 236 957 l 236 365 q 299 222 236 278 q 475 167 363 167 l 479 167 q 649 222 592 167 q 706 365 706 278 l 706 957 l 874 957 l 874 363 m 618 1001 l 471 1197 l 322 1001 l 183 1001 l 361 1239 q 411 1280 382 1267 q 471 1293 440 1293 q 530 1280 501 1293 q 579 1239 558 1267 l 760 1001 l 618 1001 z "},"ü":{"ha":943,"x_min":68,"x_max":874,"o":"m 68 0 m 874 363 q 849 214 874 281 q 774 100 824 147 q 648 26 724 53 q 472 0 572 0 q 299 26 374 0 q 172 101 224 53 q 94 215 121 149 q 68 361 68 282 l 68 957 l 236 957 l 236 365 q 299 222 236 278 q 475 167 363 167 l 479 167 q 649 222 592 167 q 706 365 706 278 l 706 957 l 874 957 l 874 363 m 572 1047 l 572 1211 l 747 1211 l 747 1047 l 572 1047 m 196 1047 l 196 1211 l 369 1211 l 369 1047 l 196 1047 z "},"ý":{"ha":924,"x_min":25,"x_max":899,"o":"m 25 0 m 379 424 l 25 957 l 225 957 l 463 574 l 699 957 l 899 957 l 546 435 l 546 0 l 379 0 l 379 424 m 228 992 l 228 1110 l 778 1293 l 778 1135 l 228 992 z "},"þ":{"ha":828,"x_min":68,"x_max":771,"o":"m 68 0 m 236 375 l 494 375 q 573 408 542 375 q 604 489 604 440 q 572 567 604 533 q 496 600 540 600 l 236 600 l 236 375 m 236 957 l 236 767 l 469 767 q 606 744 549 767 q 700 683 664 722 q 753 594 736 644 q 771 485 771 543 q 755 385 771 435 q 703 295 739 335 q 609 231 667 256 q 469 207 551 207 l 236 207 l 236 0 l 68 0 l 68 957 l 236 957 z "},"ÿ":{"ha":924,"x_min":25,"x_max":899,"o":"m 25 0 m 379 424 l 25 957 l 225 957 l 463 574 l 699 957 l 899 957 l 546 435 l 546 0 l 379 0 l 379 424 m 563 1047 l 563 1211 l 738 1211 l 738 1047 l 563 1047 m 186 1047 l 186 1211 l 360 1211 l 360 1047 l 186 1047 z "},"Ā":{"ha":1031,"x_min":32,"x_max":999,"o":"m 32 0 m 821 0 l 551 761 q 515 788 542 788 q 479 761 489 788 l 210 0 l 32 0 l 329 833 q 400 926 351 896 q 515 957 449 957 q 631 926 582 957 q 701 833 679 896 l 999 0 l 821 0 m 193 1064 l 193 1196 l 838 1196 l 838 1064 l 193 1064 z "},"ā":{"ha":1031,"x_min":32,"x_max":999,"o":"m 32 0 m 511 789 q 479 761 490 789 l 315 304 l 713 304 l 551 760 q 536 783 544 776 q 518 789 528 789 l 511 789 m 258 138 l 210 0 l 32 0 l 329 835 q 400 928 351 897 q 515 958 449 958 q 631 928 582 958 q 701 835 679 897 l 999 0 l 821 0 l 771 138 l 258 138 m 193 1064 l 193 1196 l 838 1196 l 838 1064 l 193 1064 z "},"Ă":{"ha":1031,"x_min":32,"x_max":999,"o":"m 32 0 m 821 0 l 551 761 q 515 788 542 788 q 479 761 489 788 l 210 0 l 32 0 l 329 833 q 400 926 351 896 q 515 957 449 957 q 631 926 582 957 q 701 833 679 896 l 999 0 l 821 0 m 831 1293 q 796 1153 824 1210 q 726 1064 768 1097 q 629 1016 683 1031 q 515 1001 575 1001 q 400 1016 454 1001 q 303 1064 346 1031 q 234 1153 261 1097 q 200 1293 207 1210 l 325 1293 q 375 1145 326 1201 q 515 1089 424 1089 q 655 1145 604 1089 q 707 1293 706 1201 l 831 1293 z "},"ă":{"ha":1031,"x_min":32,"x_max":999,"o":"m 32 0 m 511 789 q 479 761 490 789 l 315 304 l 713 304 l 551 760 q 536 783 544 776 q 518 789 528 789 l 511 789 m 258 138 l 210 0 l 32 0 l 329 835 q 400 928 351 897 q 515 958 449 958 q 631 928 582 958 q 701 835 679 897 l 999 0 l 821 0 l 771 138 l 258 138 m 831 1293 q 796 1153 824 1210 q 726 1064 768 1097 q 629 1016 683 1031 q 515 1001 575 1001 q 400 1016 454 1001 q 303 1064 346 1031 q 234 1153 261 1097 q 200 1293 207 1210 l 325 1293 q 375 1145 326 1201 q 515 1089 424 1089 q 655 1145 604 1089 q 707 1293 706 1201 l 831 1293 z "},"Ą":{"ha":1031,"x_min":32,"x_max":999,"o":"m 846 -372 q 704 -325 750 -372 q 658 -207 658 -278 q 691 -106 658 -144 q 782 -42 724 -68 l 872 0 l 821 0 l 551 761 q 515 788 542 788 q 479 761 489 788 l 210 0 l 32 0 l 329 833 q 400 926 351 896 q 515 957 449 957 q 631 926 582 957 q 701 833 679 896 l 999 0 l 867 -68 q 821 -103 835 -85 q 807 -157 807 -121 q 831 -203 807 -185 q 892 -221 854 -221 l 999 -221 l 999 -372 l 846 -372 z "},"ą":{"ha":1031,"x_min":32,"x_max":999,"o":"m 846 -372 q 704 -325 750 -372 q 658 -207 658 -278 q 691 -106 658 -144 q 782 -42 724 -68 l 872 0 l 821 0 l 771 138 l 258 138 l 210 0 l 32 0 l 329 835 q 400 928 351 897 q 515 958 449 958 q 631 928 582 958 q 701 835 679 897 l 999 0 l 867 -68 q 821 -103 835 -85 q 807 -157 807 -121 q 831 -203 807 -185 q 892 -221 854 -221 l 999 -221 l 999 -372 l 846 -372 m 511 789 q 479 761 490 789 l 315 304 l 713 304 l 551 760 q 536 783 544 776 q 518 789 528 789 l 511 789 z "},"Ć":{"ha":901,"x_min":56,"x_max":850,"o":"m 56 0 m 490 0 q 56 478 56 0 l 56 482 q 492 957 57 957 l 839 957 l 839 789 l 449 789 q 278 714 335 789 q 222 476 222 639 q 447 167 222 167 l 838 167 l 838 0 l 490 0 m 300 992 l 300 1110 l 850 1293 l 850 1135 l 300 992 z "},"ć":{"ha":901,"x_min":56,"x_max":850,"o":"m 56 0 m 490 0 q 56 478 56 0 l 56 482 q 492 957 57 957 l 839 957 l 839 789 l 449 789 q 278 714 335 789 q 222 476 222 639 q 447 167 222 167 l 838 167 l 838 0 l 490 0 m 300 992 l 300 1110 l 850 1293 l 850 1135 l 300 992 z "},"Ĉ":{"ha":901,"x_min":56,"x_max":839,"o":"m 56 0 m 490 0 q 56 478 56 0 l 56 482 q 492 957 57 957 l 839 957 l 839 789 l 449 789 q 278 714 335 789 q 222 476 222 639 q 447 167 222 167 l 838 167 l 838 0 l 490 0 m 667 1001 l 519 1197 l 371 1001 l 232 1001 l 410 1239 q 460 1280 431 1267 q 519 1293 489 1293 q 578 1280 550 1293 q 628 1239 607 1267 l 808 1001 l 667 1001 z "},"ĉ":{"ha":901,"x_min":56,"x_max":839,"o":"m 56 0 m 490 0 q 56 478 56 0 l 56 482 q 492 957 57 957 l 839 957 l 839 789 l 449 789 q 278 714 335 789 q 222 476 222 639 q 447 167 222 167 l 838 167 l 838 0 l 490 0 m 667 1001 l 519 1197 l 371 1001 l 232 1001 l 410 1239 q 460 1280 431 1267 q 519 1293 489 1293 q 578 1280 550 1293 q 628 1239 607 1267 l 808 1001 l 667 1001 z "},"Ċ":{"ha":901,"x_min":56,"x_max":839,"o":"m 56 0 m 490 0 q 56 478 56 0 l 56 482 q 492 957 57 957 l 839 957 l 839 789 l 449 789 q 278 714 335 789 q 222 476 222 639 q 447 167 222 167 l 838 167 l 838 0 l 490 0 m 447 1047 l 447 1211 l 621 1211 l 621 1047 l 447 1047 z "},"ċ":{"ha":901,"x_min":56,"x_max":839,"o":"m 56 0 m 490 0 q 56 478 56 0 l 56 482 q 492 957 57 957 l 839 957 l 839 789 l 449 789 q 278 714 335 789 q 222 476 222 639 q 447 167 222 167 l 838 167 l 838 0 l 490 0 m 447 1047 l 447 1211 l 621 1211 l 621 1047 l 447 1047 z "},"Č":{"ha":901,"x_min":56,"x_max":839,"o":"m 56 0 m 490 0 q 56 478 56 0 l 56 482 q 492 957 57 957 l 839 957 l 839 789 l 449 789 q 278 714 335 789 q 222 476 222 639 q 447 167 222 167 l 838 167 l 838 0 l 490 0 m 642 1056 q 592 1015 621 1028 q 533 1001 564 1001 q 473 1015 501 1001 q 424 1056 444 1028 l 246 1293 l 385 1293 l 533 1096 l 681 1293 l 822 1293 l 642 1056 z "},"č":{"ha":901,"x_min":56,"x_max":839,"o":"m 56 0 m 490 0 q 56 478 56 0 l 56 482 q 492 957 57 957 l 839 957 l 839 789 l 449 789 q 278 714 335 789 q 222 476 222 639 q 447 167 222 167 l 838 167 l 838 0 l 490 0 m 642 1056 q 592 1015 621 1028 q 533 1001 564 1001 q 473 1015 501 1001 q 424 1056 444 1028 l 246 1293 l 385 1293 l 533 1096 l 681 1293 l 822 1293 l 642 1056 z "},"Ď":{"ha":951,"x_min":68,"x_max":897,"o":"m 68 0 m 236 167 l 504 167 q 674 242 618 167 q 729 482 729 318 q 506 789 729 789 l 236 789 l 236 167 m 464 957 q 897 481 897 957 l 897 476 q 463 0 893 0 l 68 0 l 68 957 l 464 957 m 542 1056 q 492 1015 521 1028 q 433 1001 464 1001 q 373 1015 401 1001 q 324 1056 344 1028 l 146 1293 l 285 1293 l 433 1096 l 581 1293 l 722 1293 l 542 1056 z "},"ď":{"ha":951,"x_min":68,"x_max":897,"o":"m 68 0 m 236 167 l 504 167 q 674 242 618 167 q 729 482 729 318 q 506 789 729 789 l 236 789 l 236 167 m 464 957 q 897 481 897 957 l 897 476 q 463 0 893 0 l 68 0 l 68 957 l 464 957 m 542 1056 q 492 1015 521 1028 q 433 1001 464 1001 q 373 1015 401 1001 q 324 1056 344 1028 l 146 1293 l 285 1293 l 433 1096 l 581 1293 l 722 1293 l 542 1056 z "},"Đ":{"ha":951,"x_min":11,"x_max":897,"o":"m 11 0 m 11 567 l 68 567 l 68 957 l 464 957 q 897 481 897 957 l 897 476 q 463 0 893 0 l 68 0 l 68 396 l 11 396 l 11 567 m 236 567 l 400 567 l 400 396 l 236 396 l 236 167 l 504 167 q 674 242 618 167 q 729 482 729 318 q 506 789 729 789 l 236 789 l 236 567 z "},"đ":{"ha":951,"x_min":11,"x_max":897,"o":"m 11 0 m 11 567 l 68 567 l 68 957 l 464 957 q 897 481 897 957 l 897 476 q 463 0 893 0 l 68 0 l 68 396 l 11 396 l 11 567 m 236 567 l 400 567 l 400 396 l 236 396 l 236 167 l 504 167 q 674 242 618 167 q 729 482 729 318 q 506 789 729 789 l 236 789 l 236 567 z "},"Ē":{"ha":901,"x_min":54,"x_max":833,"o":"m 54 0 m 833 789 l 329 789 q 288 780 307 789 q 253 756 268 771 q 230 720 239 740 q 221 678 221 700 q 251 598 221 631 q 331 565 282 565 l 833 565 l 833 397 l 329 397 q 288 388 307 397 q 253 364 268 379 q 230 328 239 349 q 221 286 221 308 q 251 200 221 233 q 331 167 282 167 l 833 167 l 833 0 l 356 0 q 215 24 272 0 q 122 89 157 49 q 70 180 86 129 q 54 283 54 231 q 78 395 54 342 q 157 482 101 449 q 78 569 101 515 q 54 675 54 624 q 72 788 54 736 q 127 878 90 840 q 221 936 164 915 q 356 957 278 957 l 833 957 l 833 789 m 142 1064 l 142 1196 l 786 1196 l 786 1064 l 142 1064 z "},"ē":{"ha":901,"x_min":54,"x_max":833,"o":"m 54 0 m 833 789 l 329 789 q 288 780 307 789 q 253 756 268 771 q 230 720 239 740 q 221 678 221 700 q 251 598 221 631 q 331 565 282 565 l 833 565 l 833 397 l 329 397 q 288 388 307 397 q 253 364 268 379 q 230 328 239 349 q 221 286 221 308 q 251 200 221 233 q 331 167 282 167 l 833 167 l 833 0 l 356 0 q 215 24 272 0 q 122 89 157 49 q 70 180 86 129 q 54 283 54 231 q 78 395 54 342 q 157 482 101 449 q 78 569 101 515 q 54 675 54 624 q 72 788 54 736 q 127 878 90 840 q 221 936 164 915 q 356 957 278 957 l 833 957 l 833 789 m 142 1064 l 142 1196 l 786 1196 l 786 1064 l 142 1064 z "},"Ĕ":{"ha":901,"x_min":54,"x_max":833,"o":"m 54 0 m 833 789 l 329 789 q 288 780 307 789 q 253 756 268 771 q 230 720 239 740 q 221 678 221 700 q 251 598 221 631 q 331 565 282 565 l 833 565 l 833 397 l 329 397 q 288 388 307 397 q 253 364 268 379 q 230 328 239 349 q 221 286 221 308 q 251 200 221 233 q 331 167 282 167 l 833 167 l 833 0 l 356 0 q 215 24 272 0 q 122 89 157 49 q 70 180 86 129 q 54 283 54 231 q 78 395 54 342 q 157 482 101 449 q 78 569 101 515 q 54 675 54 624 q 72 788 54 736 q 127 878 90 840 q 221 936 164 915 q 356 957 278 957 l 833 957 l 833 789 m 793 1293 q 758 1153 786 1210 q 688 1064 731 1097 q 592 1016 646 1031 q 478 1001 538 1001 q 363 1016 417 1001 q 266 1064 308 1031 q 197 1153 224 1097 q 163 1293 169 1210 l 288 1293 q 338 1145 289 1201 q 478 1089 386 1089 q 617 1145 567 1089 q 669 1293 668 1201 l 793 1293 z "},"ĕ":{"ha":901,"x_min":54,"x_max":833,"o":"m 54 0 m 833 789 l 329 789 q 288 780 307 789 q 253 756 268 771 q 230 720 239 740 q 221 678 221 700 q 251 598 221 631 q 331 565 282 565 l 833 565 l 833 397 l 329 397 q 288 388 307 397 q 253 364 268 379 q 230 328 239 349 q 221 286 221 308 q 251 200 221 233 q 331 167 282 167 l 833 167 l 833 0 l 356 0 q 215 24 272 0 q 122 89 157 49 q 70 180 86 129 q 54 283 54 231 q 78 395 54 342 q 157 482 101 449 q 78 569 101 515 q 54 675 54 624 q 72 788 54 736 q 127 878 90 840 q 221 936 164 915 q 356 957 278 957 l 833 957 l 833 789 m 793 1293 q 758 1153 786 1210 q 688 1064 731 1097 q 592 1016 646 1031 q 478 1001 538 1001 q 363 1016 417 1001 q 266 1064 308 1031 q 197 1153 224 1097 q 163 1293 169 1210 l 288 1293 q 338 1145 289 1201 q 478 1089 386 1089 q 617 1145 567 1089 q 669 1293 668 1201 l 793 1293 z "},"Ė":{"ha":901,"x_min":54,"x_max":833,"o":"m 54 0 m 833 789 l 329 789 q 288 780 307 789 q 253 756 268 771 q 230 720 239 740 q 221 678 221 700 q 251 598 221 631 q 331 565 282 565 l 833 565 l 833 397 l 329 397 q 288 388 307 397 q 253 364 268 379 q 230 328 239 349 q 221 286 221 308 q 251 200 221 233 q 331 167 282 167 l 833 167 l 833 0 l 356 0 q 215 24 272 0 q 122 89 157 49 q 70 180 86 129 q 54 283 54 231 q 78 395 54 342 q 157 482 101 449 q 78 569 101 515 q 54 675 54 624 q 72 788 54 736 q 127 878 90 840 q 221 936 164 915 q 356 957 278 957 l 833 957 l 833 789 m 406 1047 l 406 1211 l 579 1211 l 579 1047 l 406 1047 z "},"ė":{"ha":901,"x_min":54,"x_max":833,"o":"m 54 0 m 833 789 l 329 789 q 288 780 307 789 q 253 756 268 771 q 230 720 239 740 q 221 678 221 700 q 251 598 221 631 q 331 565 282 565 l 833 565 l 833 397 l 329 397 q 288 388 307 397 q 253 364 268 379 q 230 328 239 349 q 221 286 221 308 q 251 200 221 233 q 331 167 282 167 l 833 167 l 833 0 l 356 0 q 215 24 272 0 q 122 89 157 49 q 70 180 86 129 q 54 283 54 231 q 78 395 54 342 q 157 482 101 449 q 78 569 101 515 q 54 675 54 624 q 72 788 54 736 q 127 878 90 840 q 221 936 164 915 q 356 957 278 957 l 833 957 l 833 789 m 406 1047 l 406 1211 l 579 1211 l 579 1047 l 406 1047 z "},"Ę":{"ha":901,"x_min":54,"x_max":833,"o":"m 681 -372 q 539 -325 585 -372 q 493 -207 493 -278 q 526 -106 493 -144 q 617 -42 558 -68 l 707 0 l 356 0 q 215 24 272 0 q 122 89 157 49 q 70 180 86 129 q 54 283 54 231 q 78 395 54 342 q 157 482 101 449 q 78 569 101 515 q 54 675 54 624 q 72 788 54 736 q 127 878 90 840 q 221 936 164 915 q 356 957 278 957 l 833 957 l 833 789 l 329 789 q 288 780 307 789 q 253 756 268 771 q 230 720 239 740 q 221 678 221 700 q 251 598 221 631 q 331 565 282 565 l 833 565 l 833 397 l 329 397 q 288 388 307 397 q 253 364 268 379 q 230 328 239 349 q 221 286 221 308 q 251 200 221 233 q 331 167 282 167 l 833 167 l 833 0 l 701 -68 q 656 -103 669 -85 q 642 -157 642 -121 q 665 -203 642 -185 q 726 -221 689 -221 l 833 -221 l 833 -372 l 681 -372 z "},"ę":{"ha":901,"x_min":54,"x_max":833,"o":"m 54 0 m 681 -372 q 539 -325 585 -372 q 493 -207 493 -278 q 526 -106 493 -144 q 617 -42 558 -68 l 707 0 l 356 0 q 215 24 272 0 q 122 89 157 49 q 70 180 86 129 q 54 283 54 231 q 78 395 54 342 q 157 482 101 449 q 78 569 101 515 q 54 675 54 624 q 72 788 54 736 q 127 878 90 840 q 221 936 164 915 q 356 957 278 957 l 833 957 l 833 789 l 329 789 q 288 780 307 789 q 253 756 268 771 q 230 720 239 740 q 221 678 221 700 q 251 598 221 631 q 331 565 282 565 l 833 565 l 833 397 l 329 397 q 288 388 307 397 q 253 364 268 379 q 230 328 239 349 q 221 286 221 308 q 251 200 221 233 q 331 167 282 167 l 833 167 l 833 0 l 701 -68 q 656 -103 669 -85 q 642 -157 642 -121 q 665 -203 642 -185 q 726 -221 689 -221 l 833 -221 l 833 -372 l 681 -372 z "},"Ě":{"ha":901,"x_min":54,"x_max":833,"o":"m 54 0 m 833 789 l 329 789 q 288 780 307 789 q 253 756 268 771 q 230 720 239 740 q 221 678 221 700 q 251 598 221 631 q 331 565 282 565 l 833 565 l 833 397 l 329 397 q 288 388 307 397 q 253 364 268 379 q 230 328 239 349 q 221 286 221 308 q 251 200 221 233 q 331 167 282 167 l 833 167 l 833 0 l 356 0 q 215 24 272 0 q 122 89 157 49 q 70 180 86 129 q 54 283 54 231 q 78 395 54 342 q 157 482 101 449 q 78 569 101 515 q 54 675 54 624 q 72 788 54 736 q 127 878 90 840 q 221 936 164 915 q 356 957 278 957 l 833 957 l 833 789 m 586 1056 q 537 1015 565 1028 q 478 1001 508 1001 q 417 1015 446 1001 q 368 1056 389 1028 l 190 1293 l 329 1293 l 478 1096 l 625 1293 l 767 1293 l 586 1056 z "},"ě":{"ha":901,"x_min":54,"x_max":833,"o":"m 54 0 m 833 789 l 329 789 q 288 780 307 789 q 253 756 268 771 q 230 720 239 740 q 221 678 221 700 q 251 598 221 631 q 331 565 282 565 l 833 565 l 833 397 l 329 397 q 288 388 307 397 q 253 364 268 379 q 230 328 239 349 q 221 286 221 308 q 251 200 221 233 q 331 167 282 167 l 833 167 l 833 0 l 356 0 q 215 24 272 0 q 122 89 157 49 q 70 180 86 129 q 54 283 54 231 q 78 395 54 342 q 157 482 101 449 q 78 569 101 515 q 54 675 54 624 q 72 788 54 736 q 127 878 90 840 q 221 936 164 915 q 356 957 278 957 l 833 957 l 833 789 m 586 1056 q 537 1015 565 1028 q 478 1001 508 1001 q 417 1015 446 1001 q 368 1056 389 1028 l 190 1293 l 329 1293 l 478 1096 l 625 1293 l 767 1293 l 586 1056 z "},"Ĝ":{"ha":974,"x_min":56,"x_max":919,"o":"m 56 0 m 490 0 q 56 478 56 0 l 56 482 q 492 957 57 957 l 839 957 l 839 789 l 449 789 q 278 714 335 789 q 222 476 222 639 q 447 167 222 167 l 647 167 q 688 176 668 167 q 721 202 707 186 q 743 239 735 218 q 751 283 751 260 q 722 363 751 329 q 647 397 693 397 l 496 397 l 496 565 l 656 565 q 759 544 711 565 q 842 484 807 522 q 899 392 878 446 q 919 276 919 339 q 898 174 919 224 q 840 86 876 125 q 755 24 803 47 q 654 0 707 0 l 490 0 m 633 1001 l 486 1197 l 338 1001 l 199 1001 l 376 1239 q 426 1280 397 1267 q 486 1293 456 1293 q 545 1280 517 1293 q 594 1239 574 1267 l 775 1001 l 633 1001 z "},"ĝ":{"ha":974,"x_min":56,"x_max":919,"o":"m 56 0 m 490 0 q 56 478 56 0 l 56 482 q 492 957 57 957 l 839 957 l 839 789 l 449 789 q 278 714 335 789 q 222 476 222 639 q 447 167 222 167 l 647 167 q 688 176 668 167 q 721 202 707 186 q 743 239 735 218 q 751 283 751 260 q 722 363 751 329 q 647 397 693 397 l 496 397 l 496 565 l 656 565 q 759 544 711 565 q 842 484 807 522 q 899 392 878 446 q 919 276 919 339 q 898 174 919 224 q 840 86 876 125 q 755 24 803 47 q 654 0 707 0 l 490 0 m 633 1001 l 486 1197 l 338 1001 l 199 1001 l 376 1239 q 426 1280 397 1267 q 486 1293 456 1293 q 545 1280 517 1293 q 594 1239 574 1267 l 775 1001 l 633 1001 z "},"Ğ":{"ha":974,"x_min":56,"x_max":919,"o":"m 56 0 m 490 0 q 56 478 56 0 l 56 482 q 492 957 57 957 l 839 957 l 839 789 l 449 789 q 278 714 335 789 q 222 476 222 639 q 447 167 222 167 l 647 167 q 688 176 668 167 q 721 202 707 186 q 743 239 735 218 q 751 283 751 260 q 722 363 751 329 q 647 397 693 397 l 496 397 l 496 565 l 656 565 q 759 544 711 565 q 842 484 807 522 q 899 392 878 446 q 919 276 919 339 q 898 174 919 224 q 840 86 876 125 q 755 24 803 47 q 654 0 707 0 l 490 0 m 801 1293 q 767 1153 794 1210 q 697 1064 739 1097 q 600 1016 654 1031 q 486 1001 546 1001 q 371 1016 425 1001 q 274 1064 317 1031 q 205 1153 232 1097 q 171 1293 178 1210 l 296 1293 q 346 1145 297 1201 q 486 1089 394 1089 q 626 1145 575 1089 q 678 1293 676 1201 l 801 1293 z "},"ğ":{"ha":974,"x_min":56,"x_max":919,"o":"m 56 0 m 490 0 q 56 478 56 0 l 56 482 q 492 957 57 957 l 839 957 l 839 789 l 449 789 q 278 714 335 789 q 222 476 222 639 q 447 167 222 167 l 647 167 q 688 176 668 167 q 721 202 707 186 q 743 239 735 218 q 751 283 751 260 q 722 363 751 329 q 647 397 693 397 l 496 397 l 496 565 l 656 565 q 759 544 711 565 q 842 484 807 522 q 899 392 878 446 q 919 276 919 339 q 898 174 919 224 q 840 86 876 125 q 755 24 803 47 q 654 0 707 0 l 490 0 m 801 1293 q 767 1153 794 1210 q 697 1064 739 1097 q 600 1016 654 1031 q 486 1001 546 1001 q 371 1016 425 1001 q 274 1064 317 1031 q 205 1153 232 1097 q 171 1293 178 1210 l 296 1293 q 346 1145 297 1201 q 486 1089 394 1089 q 626 1145 575 1089 q 678 1293 676 1201 l 801 1293 z "},"Ġ":{"ha":974,"x_min":56,"x_max":919,"o":"m 56 0 m 490 0 q 56 478 56 0 l 56 482 q 492 957 57 957 l 839 957 l 839 789 l 449 789 q 278 714 335 789 q 222 476 222 639 q 447 167 222 167 l 647 167 q 688 176 668 167 q 721 202 707 186 q 743 239 735 218 q 751 283 751 260 q 722 363 751 329 q 647 397 693 397 l 496 397 l 496 565 l 656 565 q 759 544 711 565 q 842 484 807 522 q 899 392 878 446 q 919 276 919 339 q 898 174 919 224 q 840 86 876 125 q 755 24 803 47 q 654 0 707 0 l 490 0 m 428 1047 l 428 1211 l 601 1211 l 601 1047 l 428 1047 z "},"ġ":{"ha":974,"x_min":56,"x_max":919,"o":"m 56 0 m 490 0 q 56 478 56 0 l 56 482 q 492 957 57 957 l 839 957 l 839 789 l 449 789 q 278 714 335 789 q 222 476 222 639 q 447 167 222 167 l 647 167 q 688 176 668 167 q 721 202 707 186 q 743 239 735 218 q 751 283 751 260 q 722 363 751 329 q 647 397 693 397 l 496 397 l 496 565 l 656 565 q 759 544 711 565 q 842 484 807 522 q 899 392 878 446 q 919 276 919 339 q 898 174 919 224 q 840 86 876 125 q 755 24 803 47 q 654 0 707 0 l 490 0 m 428 1047 l 428 1211 l 601 1211 l 601 1047 l 428 1047 z "},"Ģ":{"ha":974,"x_min":56,"x_max":919,"o":"m 56 0 m 490 0 q 56 478 56 0 l 56 482 q 492 957 57 957 l 839 957 l 839 789 l 449 789 q 278 714 335 789 q 222 476 222 639 q 447 167 222 167 l 647 167 q 688 176 668 167 q 721 202 707 186 q 743 239 735 218 q 751 283 751 260 q 722 363 751 329 q 647 397 693 397 l 496 397 l 496 565 l 656 565 q 759 544 711 565 q 842 484 807 522 q 899 392 878 446 q 919 276 919 339 q 898 174 919 224 q 840 86 876 125 q 755 24 803 47 q 654 0 707 0 l 490 0 m 372 -219 q 421 -200 404 -219 q 438 -153 438 -181 l 438 -54 l 601 -54 l 601 -156 q 583 -244 601 -204 q 535 -312 565 -283 q 462 -358 504 -342 q 372 -374 419 -374 l 372 -219 z "},"ģ":{"ha":974,"x_min":56,"x_max":919,"o":"m 56 0 m 490 0 q 56 478 56 0 l 56 482 q 492 957 57 957 l 839 957 l 839 789 l 449 789 q 278 714 335 789 q 222 476 222 639 q 447 167 222 167 l 647 167 q 688 176 668 167 q 721 202 707 186 q 743 239 735 218 q 751 283 751 260 q 722 363 751 329 q 647 397 693 397 l 496 397 l 496 565 l 656 565 q 759 544 711 565 q 842 484 807 522 q 899 392 878 446 q 919 276 919 339 q 898 174 919 224 q 840 86 876 125 q 755 24 803 47 q 654 0 707 0 l 490 0 m 372 -219 q 421 -200 404 -219 q 438 -153 438 -181 l 438 -54 l 601 -54 l 601 -156 q 583 -244 601 -204 q 535 -312 565 -283 q 462 -358 504 -342 q 372 -374 419 -374 l 372 -219 z "},"Ĥ":{"ha":917,"x_min":68,"x_max":847,"o":"m 68 0 m 681 397 l 236 397 l 236 0 l 68 0 l 68 957 l 236 957 l 236 565 l 681 565 l 681 957 l 847 957 l 847 0 l 681 0 l 681 397 m 604 1001 l 457 1197 l 308 1001 l 169 1001 l 347 1239 q 397 1280 368 1267 q 457 1293 426 1293 q 516 1280 488 1293 q 565 1239 544 1267 l 746 1001 l 604 1001 z "},"ĥ":{"ha":917,"x_min":68,"x_max":847,"o":"m 68 0 m 681 397 l 236 397 l 236 0 l 68 0 l 68 957 l 236 957 l 236 565 l 681 565 l 681 957 l 847 957 l 847 0 l 681 0 l 681 397 m 604 1001 l 457 1197 l 308 1001 l 169 1001 l 347 1239 q 397 1280 368 1267 q 457 1293 426 1293 q 516 1280 488 1293 q 565 1239 544 1267 l 746 1001 l 604 1001 z "},"Ħ":{"ha":917,"x_min":68,"x_max":847,"o":"m 681 397 l 236 397 l 236 0 l 68 0 l 68 957 l 236 957 l 236 828 l 681 828 l 681 957 l 847 957 l 847 0 l 681 0 l 681 397 m 681 565 l 681 696 l 236 696 l 236 565 l 681 565 z "},"ħ":{"ha":917,"x_min":68,"x_max":847,"o":"m 68 0 m 681 397 l 236 397 l 236 0 l 68 0 l 68 957 l 236 957 l 236 828 l 681 828 l 681 957 l 847 957 l 847 0 l 681 0 l 681 397 m 681 565 l 681 696 l 236 696 l 236 565 l 681 565 z "},"Ĩ":{"ha":304,"x_min":-168,"x_max":476,"o":"m 0 0 m 68 957 l 236 957 l 236 0 l 68 0 l 68 957 m -168 1064 l -168 1196 l 476 1196 l 476 1064 l -168 1064 z "},"ĩ":{"ha":304,"x_min":-168,"x_max":476,"o":"m 0 0 m 68 957 l 236 957 l 236 0 l 68 0 l 68 957 m -168 1064 l -168 1196 l 476 1196 l 476 1064 l -168 1064 z "},"Ī":{"ha":304,"x_min":-168,"x_max":476,"o":"m 0 0 m 68 957 l 236 957 l 236 0 l 68 0 l 68 957 m -168 1064 l -168 1196 l 476 1196 l 476 1064 l -168 1064 z "},"ī":{"ha":304,"x_min":-168,"x_max":476,"o":"m 0 0 m 68 957 l 236 957 l 236 0 l 68 0 l 68 957 m -168 1064 l -168 1196 l 476 1196 l 476 1064 l -168 1064 z "},"Ĭ":{"ha":304,"x_min":-161,"x_max":469,"o":"m 0 0 m 68 957 l 236 957 l 236 0 l 68 0 l 68 957 m 469 1293 q 435 1153 463 1210 q 365 1064 407 1097 q 268 1016 322 1031 q 154 1001 214 1001 q 39 1016 93 1001 q -58 1064 -15 1031 q -127 1153 -100 1097 q -161 1293 -154 1210 l -36 1293 q 14 1145 -35 1201 q 154 1089 63 1089 q 294 1145 243 1089 q 346 1293 344 1201 l 469 1293 z "},"ĭ":{"ha":304,"x_min":-161,"x_max":469,"o":"m 0 0 m 68 957 l 236 957 l 236 0 l 68 0 l 68 957 m 469 1293 q 435 1153 463 1210 q 365 1064 407 1097 q 268 1016 322 1031 q 154 1001 214 1001 q 39 1016 93 1001 q -58 1064 -15 1031 q -127 1153 -100 1097 q -161 1293 -154 1210 l -36 1293 q 14 1145 -35 1201 q 154 1089 63 1089 q 294 1145 243 1089 q 346 1293 344 1201 l 469 1293 z "},"Į":{"ha":304,"x_min":-104,"x_max":236,"o":"m 68 957 l 236 957 l 236 0 l 104 -68 q 58 -103 72 -85 q 44 -157 44 -121 q 68 -203 44 -185 q 129 -221 92 -221 l 236 -221 l 236 -372 l 83 -372 q -58 -325 -12 -372 q -104 -207 -104 -278 q -72 -106 -104 -144 q 19 -42 -39 -68 l 110 0 l 68 0 l 68 957 z "},"į":{"ha":304,"x_min":-104,"x_max":236,"o":"m 0 0 m 68 957 l 236 957 l 236 0 l 104 -68 q 58 -103 72 -85 q 44 -157 44 -121 q 68 -203 44 -185 q 129 -221 92 -221 l 236 -221 l 236 -372 l 83 -372 q -58 -325 -12 -372 q -104 -207 -104 -278 q -72 -106 -104 -144 q 19 -42 -39 -68 l 110 0 l 68 0 l 68 957 z "},"İ":{"ha":304,"x_min":65,"x_max":239,"o":"m 65 0 m 68 957 l 236 957 l 236 0 l 68 0 l 68 957 m 65 1047 l 65 1211 l 239 1211 l 239 1047 l 65 1047 z "},"ı":{"ha":304,"x_min":68,"x_max":236,"o":"m 68 957 l 236 957 l 236 0 l 68 0 l 68 957 z "},"Ĳ":{"ha":1104,"x_min":68,"x_max":1035,"o":"m 68 0 m 68 957 l 236 957 l 236 0 l 68 0 l 68 957 m 358 167 l 618 167 q 802 231 736 167 q 868 413 868 296 l 868 957 l 1035 957 l 1035 414 q 1008 243 1035 319 q 929 113 982 167 q 798 29 876 58 q 614 0 719 0 l 358 0 l 358 167 z "},"ĳ":{"ha":1104,"x_min":68,"x_max":1035,"o":"m 68 0 m 68 957 l 236 957 l 236 0 l 68 0 l 68 957 m 358 167 l 618 167 q 802 231 736 167 q 868 413 868 296 l 868 957 l 1035 957 l 1035 414 q 1008 243 1035 319 q 929 113 982 167 q 798 29 876 58 q 614 0 719 0 l 358 0 l 358 167 z "},"Ĵ":{"ha":800,"x_min":54,"x_max":731,"o":"m 54 0 m 54 167 l 314 167 q 498 231 432 167 q 564 413 564 296 l 564 957 l 731 957 l 731 414 q 704 243 731 319 q 625 113 678 167 q 494 29 572 58 q 310 0 415 0 l 54 0 l 54 167 m 588 1001 l 440 1197 l 292 1001 l 153 1001 l 331 1239 q 381 1280 351 1267 q 440 1293 410 1293 q 499 1280 471 1293 q 549 1239 528 1267 l 729 1001 l 588 1001 z "},"ĵ":{"ha":800,"x_min":54,"x_max":731,"o":"m 54 0 m 54 167 l 314 167 q 498 231 432 167 q 564 413 564 296 l 564 957 l 731 957 l 731 414 q 704 243 731 319 q 625 113 678 167 q 494 29 572 58 q 310 0 415 0 l 54 0 l 54 167 m 588 1001 l 440 1197 l 292 1001 l 153 1001 l 331 1239 q 381 1280 351 1267 q 440 1293 410 1293 q 499 1280 471 1293 q 549 1239 528 1267 l 729 1001 l 588 1001 z "},"Ķ":{"ha":939,"x_min":68,"x_max":869,"o":"m 68 0 m 236 0 l 68 0 l 68 957 l 236 957 l 236 653 l 869 965 l 869 774 l 232 479 l 869 176 l 869 -10 l 236 306 l 236 0 m 354 -219 q 403 -200 386 -219 q 419 -153 419 -181 l 419 -54 l 583 -54 l 583 -156 q 565 -244 583 -204 q 517 -312 547 -283 q 444 -358 486 -342 q 354 -374 401 -374 l 354 -219 z "},"ķ":{"ha":939,"x_min":68,"x_max":869,"o":"m 68 0 m 236 0 l 68 0 l 68 957 l 236 957 l 236 653 l 869 965 l 869 774 l 232 479 l 869 176 l 869 -10 l 236 306 l 236 0 m 354 -219 q 403 -200 386 -219 q 419 -153 419 -181 l 419 -54 l 583 -54 l 583 -156 q 565 -244 583 -204 q 517 -312 547 -283 q 444 -358 486 -342 q 354 -374 401 -374 l 354 -219 z "},"Ĺ":{"ha":831,"x_min":-81,"x_max":778,"o":"m 0 0 m 492 0 q 307 29 386 0 q 174 113 228 58 q 94 243 121 167 q 68 414 68 319 l 68 957 l 236 957 l 236 413 q 302 231 236 296 q 486 167 368 167 l 778 167 l 778 0 l 492 0 m -81 992 l -81 1110 l 469 1293 l 469 1135 l -81 992 z "},"ĺ":{"ha":831,"x_min":-81,"x_max":778,"o":"m 0 0 m 492 0 q 307 29 386 0 q 174 113 228 58 q 94 243 121 167 q 68 414 68 319 l 68 957 l 236 957 l 236 413 q 302 231 236 296 q 486 167 368 167 l 778 167 l 778 0 l 492 0 m -81 992 l -81 1110 l 469 1293 l 469 1135 l -81 992 z "},"Ļ":{"ha":831,"x_min":68,"x_max":778,"o":"m 68 0 m 492 0 q 307 29 386 0 q 174 113 228 58 q 94 243 121 167 q 68 414 68 319 l 68 957 l 236 957 l 236 413 q 302 231 236 296 q 486 167 368 167 l 778 167 l 778 0 l 492 0 m 300 -219 q 349 -200 332 -219 q 365 -153 365 -181 l 365 -54 l 529 -54 l 529 -156 q 511 -244 529 -204 q 463 -312 493 -283 q 390 -358 432 -342 q 300 -374 347 -374 l 300 -219 z "},"ļ":{"ha":831,"x_min":68,"x_max":778,"o":"m 68 0 m 492 0 q 307 29 386 0 q 174 113 228 58 q 94 243 121 167 q 68 414 68 319 l 68 957 l 236 957 l 236 413 q 302 231 236 296 q 486 167 368 167 l 778 167 l 778 0 l 492 0 m 300 -219 q 349 -200 332 -219 q 365 -153 365 -181 l 365 -54 l 529 -54 l 529 -156 q 511 -244 529 -204 q 463 -312 493 -283 q 390 -358 432 -342 q 300 -374 347 -374 l 300 -219 z "},"Ľ":{"ha":831,"x_min":68,"x_max":778,"o":"m 68 0 m 492 0 q 307 29 386 0 q 174 113 228 58 q 94 243 121 167 q 68 414 68 319 l 68 957 l 236 957 l 236 413 q 302 231 236 296 q 486 167 368 167 l 778 167 l 778 0 l 492 0 m 667 918 q 653 833 667 872 q 613 764 639 793 q 549 718 586 735 q 467 701 513 701 l 414 701 l 414 865 q 489 960 489 886 l 489 1110 l 667 1110 l 667 918 z "},"ľ":{"ha":831,"x_min":68,"x_max":778,"o":"m 68 0 m 492 0 q 307 29 386 0 q 174 113 228 58 q 94 243 121 167 q 68 414 68 319 l 68 957 l 236 957 l 236 413 q 302 231 236 296 q 486 167 368 167 l 778 167 l 778 0 l 492 0 m 667 918 q 653 833 667 872 q 613 764 639 793 q 549 718 586 735 q 467 701 513 701 l 414 701 l 414 865 q 489 960 489 886 l 489 1110 l 667 1110 l 667 918 z "},"Ŀ":{"ha":831,"x_min":68,"x_max":778,"o":"m 68 0 m 492 0 q 307 29 386 0 q 174 113 228 58 q 94 243 121 167 q 68 414 68 319 l 68 957 l 236 957 l 236 413 q 302 231 236 296 q 486 167 368 167 l 778 167 l 778 0 l 492 0 m 410 468 l 410 632 l 583 632 l 583 468 l 410 468 z "},"ŀ":{"ha":831,"x_min":68,"x_max":778,"o":"m 68 0 m 492 0 q 307 29 386 0 q 174 113 228 58 q 94 243 121 167 q 68 414 68 319 l 68 957 l 236 957 l 236 413 q 302 231 236 296 q 486 167 368 167 l 778 167 l 778 0 l 492 0 m 410 468 l 410 632 l 583 632 l 583 468 l 410 468 z "},"Ł":{"ha":831,"x_min":14,"x_max":778,"o":"m 14 549 l 68 567 l 68 957 l 236 957 l 236 621 l 525 719 l 525 613 l 236 515 l 236 413 q 302 231 236 296 q 486 167 368 167 l 778 167 l 778 0 l 492 0 q 307 29 386 0 q 174 113 228 58 q 94 243 121 167 q 68 414 68 319 l 68 461 l 14 442 l 14 549 z "},"ł":{"ha":831,"x_min":14,"x_max":778,"o":"m 14 0 m 14 549 l 68 567 l 68 957 l 236 957 l 236 621 l 525 719 l 525 613 l 236 515 l 236 413 q 302 231 236 296 q 486 167 368 167 l 778 167 l 778 0 l 492 0 q 307 29 386 0 q 174 113 228 58 q 94 243 121 167 q 68 414 68 319 l 68 461 l 14 442 l 14 549 z "},"Ń":{"ha":1099,"x_min":68,"x_max":1031,"o":"m 68 0 m 1031 228 q 1011 131 1031 174 q 958 56 992 88 q 880 8 925 25 q 783 -8 835 -8 q 650 31 708 -8 q 568 142 592 71 l 376 731 q 355 776 368 760 q 318 792 342 792 q 247 708 247 792 l 247 0 l 68 0 l 68 725 q 87 822 68 778 q 139 896 106 865 q 217 943 172 926 q 315 960 263 960 q 447 921 389 960 q 529 811 506 882 l 722 221 q 744 177 732 192 q 781 163 757 163 q 851 246 851 163 l 851 957 l 1031 957 l 1031 228 m 315 992 l 315 1110 l 865 1293 l 865 1135 l 315 992 z "},"ń":{"ha":1099,"x_min":68,"x_max":1031,"o":"m 68 0 m 1031 228 q 1011 131 1031 174 q 958 56 992 88 q 880 8 925 25 q 783 -8 835 -8 q 650 31 708 -8 q 568 142 592 71 l 376 731 q 355 776 368 760 q 318 792 342 792 q 247 708 247 792 l 247 0 l 68 0 l 68 725 q 87 822 68 778 q 139 896 106 865 q 217 943 172 926 q 315 960 263 960 q 447 921 389 960 q 529 811 506 882 l 722 221 q 744 177 732 192 q 781 163 757 163 q 851 246 851 163 l 851 957 l 1031 957 l 1031 228 m 315 992 l 315 1110 l 865 1293 l 865 1135 l 315 992 z "},"Ņ":{"ha":1099,"x_min":68,"x_max":1031,"o":"m 68 0 m 1031 228 q 1011 131 1031 174 q 958 56 992 88 q 880 8 925 25 q 783 -8 835 -8 q 650 31 708 -8 q 568 142 592 71 l 376 731 q 355 776 368 760 q 318 792 342 792 q 247 708 247 792 l 247 0 l 68 0 l 68 725 q 87 822 68 778 q 139 896 106 865 q 217 943 172 926 q 315 960 263 960 q 447 921 389 960 q 529 811 506 882 l 722 221 q 744 177 732 192 q 781 163 757 163 q 851 246 851 163 l 851 957 l 1031 957 l 1031 228 m 435 -219 q 483 -200 467 -219 q 500 -153 500 -181 l 500 -54 l 664 -54 l 664 -156 q 646 -244 664 -204 q 597 -312 628 -283 q 524 -358 567 -342 q 435 -374 482 -374 l 435 -219 z "},"ņ":{"ha":1099,"x_min":68,"x_max":1031,"o":"m 68 0 m 1031 228 q 1011 131 1031 174 q 958 56 992 88 q 880 8 925 25 q 783 -8 835 -8 q 650 31 708 -8 q 568 142 592 71 l 376 731 q 355 776 368 760 q 318 792 342 792 q 247 708 247 792 l 247 0 l 68 0 l 68 725 q 87 822 68 778 q 139 896 106 865 q 217 943 172 926 q 315 960 263 960 q 447 921 389 960 q 529 811 506 882 l 722 221 q 744 177 732 192 q 781 163 757 163 q 851 246 851 163 l 851 957 l 1031 957 l 1031 228 m 435 -219 q 483 -200 467 -219 q 500 -153 500 -181 l 500 -54 l 664 -54 l 664 -156 q 646 -244 664 -204 q 597 -312 628 -283 q 524 -358 567 -342 q 435 -374 482 -374 l 435 -219 z "},"Ň":{"ha":1099,"x_min":68,"x_max":1031,"o":"m 68 0 m 1031 228 q 1011 131 1031 174 q 958 56 992 88 q 880 8 925 25 q 783 -8 835 -8 q 650 31 708 -8 q 568 142 592 71 l 376 731 q 355 776 368 760 q 318 792 342 792 q 247 708 247 792 l 247 0 l 68 0 l 68 725 q 87 822 68 778 q 139 896 106 865 q 217 943 172 926 q 315 960 263 960 q 447 921 389 960 q 529 811 506 882 l 722 221 q 744 177 732 192 q 781 163 757 163 q 851 246 851 163 l 851 957 l 1031 957 l 1031 228 m 657 1056 q 608 1015 636 1028 q 549 1001 579 1001 q 488 1015 517 1001 q 439 1056 460 1028 l 261 1293 l 400 1293 l 549 1096 l 696 1293 l 838 1293 l 657 1056 z "},"ň":{"ha":1099,"x_min":68,"x_max":1031,"o":"m 68 0 m 1031 228 q 1011 131 1031 174 q 958 56 992 88 q 880 8 925 25 q 783 -8 835 -8 q 650 31 708 -8 q 568 142 592 71 l 376 731 q 355 776 368 760 q 318 792 342 792 q 247 708 247 792 l 247 0 l 68 0 l 68 725 q 87 822 68 778 q 139 896 106 865 q 217 943 172 926 q 315 960 263 960 q 447 921 389 960 q 529 811 506 882 l 722 221 q 744 177 732 192 q 781 163 757 163 q 851 246 851 163 l 851 957 l 1031 957 l 1031 228 m 657 1056 q 608 1015 636 1028 q 549 1001 579 1001 q 488 1015 517 1001 q 439 1056 460 1028 l 261 1293 l 400 1293 l 549 1096 l 696 1293 l 838 1293 l 657 1056 z "},"Ŋ":{"ha":1099,"x_min":68,"x_max":1031,"o":"m 354 -207 l 614 -207 q 786 -152 722 -207 q 861 3 850 -97 q 783 -8 821 -8 q 650 31 708 -8 q 568 142 592 71 l 376 731 q 355 776 368 760 q 318 792 342 792 q 247 708 247 792 l 247 0 l 68 0 l 68 725 q 87 822 68 778 q 139 896 106 865 q 217 943 172 926 q 315 960 263 960 q 447 921 389 960 q 529 811 506 882 l 722 221 q 744 177 732 192 q 781 163 757 163 q 851 246 851 163 l 851 957 l 1031 957 l 1031 40 q 1004 -131 1031 -54 q 925 -261 978 -207 q 794 -344 872 -315 q 610 -374 715 -374 l 354 -374 l 354 -207 z "},"ŋ":{"ha":1099,"x_min":68,"x_max":1031,"o":"m 68 0 m 354 -207 l 614 -207 q 786 -152 722 -207 q 861 3 850 -97 q 783 -8 821 -8 q 650 31 708 -8 q 568 142 592 71 l 376 731 q 355 776 368 760 q 318 792 342 792 q 247 708 247 792 l 247 0 l 68 0 l 68 725 q 87 822 68 778 q 139 896 106 865 q 217 943 172 926 q 315 960 263 960 q 447 921 389 960 q 529 811 506 882 l 722 221 q 744 177 732 192 q 781 163 757 163 q 851 246 851 163 l 851 957 l 1031 957 l 1031 40 q 1004 -131 1031 -54 q 925 -261 978 -207 q 794 -344 872 -315 q 610 -374 715 -374 l 354 -374 l 354 -207 z "},"Ō":{"ha":1056,"x_min":56,"x_max":1000,"o":"m 56 0 m 449 789 q 278 714 335 789 q 222 476 222 639 q 447 167 222 167 l 608 167 q 833 476 833 167 q 776 714 833 639 q 607 789 719 789 l 449 789 m 564 957 q 1000 482 996 957 l 1000 478 q 565 0 1000 0 l 490 0 q 56 478 56 0 l 56 482 q 492 957 57 957 l 564 957 m 206 1064 l 206 1196 l 850 1196 l 850 1064 l 206 1064 z "},"ō":{"ha":1056,"x_min":56,"x_max":1000,"o":"m 56 0 m 449 789 q 278 714 335 789 q 222 476 222 639 q 447 167 222 167 l 608 167 q 833 476 833 167 q 776 714 833 639 q 607 789 719 789 l 449 789 m 564 957 q 1000 482 996 957 l 1000 478 q 565 0 1000 0 l 490 0 q 56 478 56 0 l 56 482 q 492 957 57 957 l 564 957 m 206 1064 l 206 1196 l 850 1196 l 850 1064 l 206 1064 z "},"Ŏ":{"ha":1056,"x_min":56,"x_max":1000,"o":"m 56 0 m 449 789 q 278 714 335 789 q 222 476 222 639 q 447 167 222 167 l 608 167 q 833 476 833 167 q 776 714 833 639 q 607 789 719 789 l 449 789 m 564 957 q 1000 482 996 957 l 1000 478 q 565 0 1000 0 l 490 0 q 56 478 56 0 l 56 482 q 492 957 57 957 l 564 957 m 843 1293 q 808 1153 836 1210 q 738 1064 781 1097 q 642 1016 696 1031 q 528 1001 588 1001 q 413 1016 467 1001 q 316 1064 358 1031 q 247 1153 274 1097 q 213 1293 219 1210 l 338 1293 q 388 1145 339 1201 q 528 1089 436 1089 q 667 1145 617 1089 q 719 1293 718 1201 l 843 1293 z "},"ŏ":{"ha":1056,"x_min":56,"x_max":1000,"o":"m 56 0 m 449 789 q 278 714 335 789 q 222 476 222 639 q 447 167 222 167 l 608 167 q 833 476 833 167 q 776 714 833 639 q 607 789 719 789 l 449 789 m 564 957 q 1000 482 996 957 l 1000 478 q 565 0 1000 0 l 490 0 q 56 478 56 0 l 56 482 q 492 957 57 957 l 564 957 m 843 1293 q 808 1153 836 1210 q 738 1064 781 1097 q 642 1016 696 1031 q 528 1001 588 1001 q 413 1016 467 1001 q 316 1064 358 1031 q 247 1153 274 1097 q 213 1293 219 1210 l 338 1293 q 388 1145 339 1201 q 528 1089 436 1089 q 667 1145 617 1089 q 719 1293 718 1201 l 843 1293 z "},"Ő":{"ha":1056,"x_min":56,"x_max":1000,"o":"m 56 0 m 449 789 q 278 714 335 789 q 222 476 222 639 q 447 167 222 167 l 608 167 q 833 476 833 167 q 776 714 833 639 q 607 789 719 789 l 449 789 m 564 957 q 1000 482 996 957 l 1000 478 q 565 0 1000 0 l 490 0 q 56 478 56 0 l 56 482 q 492 957 57 957 l 564 957 m 603 997 l 718 1293 l 865 1293 l 729 997 l 603 997 m 260 997 l 375 1293 l 522 1293 l 386 997 l 260 997 z "},"ő":{"ha":1056,"x_min":56,"x_max":1000,"o":"m 56 0 m 449 789 q 278 714 335 789 q 222 476 222 639 q 447 167 222 167 l 608 167 q 833 476 833 167 q 776 714 833 639 q 607 789 719 789 l 449 789 m 564 957 q 1000 482 996 957 l 1000 478 q 565 0 1000 0 l 490 0 q 56 478 56 0 l 56 482 q 492 957 57 957 l 564 957 m 603 997 l 718 1293 l 865 1293 l 729 997 l 603 997 m 260 997 l 375 1293 l 522 1293 l 386 997 l 260 997 z "},"Œ":{"ha":1401,"x_min":81,"x_max":1328,"o":"m 535 167 q 677 244 626 167 q 728 476 728 321 q 685 713 728 636 q 533 789 643 789 l 443 789 q 291 713 333 789 q 249 476 249 638 q 299 244 249 321 q 442 167 350 167 l 535 167 m 1328 789 l 1000 789 q 924 756 956 789 q 892 678 892 722 q 922 598 892 631 q 1001 565 953 565 l 1328 565 l 1328 397 l 1000 397 q 924 364 956 397 q 892 286 892 331 q 922 200 892 233 q 1001 167 953 167 l 1328 167 l 1328 0 l 1026 0 q 940 6 978 0 q 873 27 903 13 q 819 65 843 42 q 775 124 796 89 q 721 60 749 83 q 660 25 693 38 q 585 8 626 13 q 493 0 544 3 l 485 0 q 299 29 376 0 q 174 118 222 58 q 103 268 125 178 q 81 482 81 358 q 101 681 81 593 q 168 831 121 769 q 293 924 215 892 q 486 957 371 957 l 492 957 q 658 929 593 957 q 774 833 722 901 q 871 931 811 906 q 1026 957 931 957 l 1328 957 l 1328 789 z "},"œ":{"ha":1401,"x_min":81,"x_max":1328,"o":"m 81 0 m 535 167 q 677 244 626 167 q 728 476 728 321 q 685 713 728 636 q 533 789 643 789 l 443 789 q 291 713 333 789 q 249 476 249 638 q 299 244 249 321 q 442 167 350 167 l 535 167 m 1328 789 l 1000 789 q 924 756 956 789 q 892 678 892 722 q 922 598 892 631 q 1001 565 953 565 l 1328 565 l 1328 397 l 1000 397 q 924 364 956 397 q 892 286 892 331 q 922 200 892 233 q 1001 167 953 167 l 1328 167 l 1328 0 l 1026 0 q 940 6 978 0 q 873 27 903 13 q 819 65 843 42 q 775 124 796 89 q 721 60 749 83 q 660 25 693 38 q 585 8 626 13 q 493 0 544 3 l 485 0 q 299 29 376 0 q 174 118 222 58 q 103 268 125 178 q 81 482 81 358 q 101 681 81 593 q 168 831 121 769 q 293 924 215 892 q 486 957 371 957 l 492 957 q 658 929 593 957 q 774 833 722 901 q 871 931 811 906 q 1026 957 931 957 l 1328 957 l 1328 789 z "},"Ŕ":{"ha":918,"x_min":69,"x_max":871,"o":"m 69 0 m 69 286 q 151 495 69 425 q 371 565 232 565 l 572 565 q 650 598 618 565 q 682 678 682 631 q 673 720 682 700 q 649 756 664 740 q 615 780 635 771 q 574 789 596 789 l 69 789 l 69 957 l 547 957 q 683 935 626 957 q 777 874 740 913 q 831 784 814 835 q 849 675 849 733 q 833 575 849 625 q 781 485 817 525 q 687 422 744 446 q 547 397 629 397 l 354 397 l 871 169 l 871 -15 l 238 271 l 238 0 l 69 0 l 69 286 m 211 992 l 211 1110 l 761 1293 l 761 1135 l 211 992 z "},"ŕ":{"ha":901,"x_min":68,"x_max":854,"o":"m 68 0 m 236 560 l 571 560 q 649 594 617 560 q 681 675 681 628 q 672 718 681 697 q 648 754 663 739 q 614 779 633 769 q 572 789 594 789 l 236 789 l 236 560 m 546 957 q 682 935 625 957 q 776 874 739 913 q 830 784 813 835 q 847 675 847 733 q 831 575 847 625 q 779 485 815 525 q 685 422 743 446 q 546 397 628 397 l 468 397 l 854 181 l 854 -19 l 236 357 l 236 0 l 68 0 l 68 957 l 546 957 m 189 992 l 189 1110 l 739 1293 l 739 1135 l 189 992 z "},"Ŗ":{"ha":918,"x_min":69,"x_max":871,"o":"m 69 0 m 69 286 q 151 495 69 425 q 371 565 232 565 l 572 565 q 650 598 618 565 q 682 678 682 631 q 673 720 682 700 q 649 756 664 740 q 615 780 635 771 q 574 789 596 789 l 69 789 l 69 957 l 547 957 q 683 935 626 957 q 777 874 740 913 q 831 784 814 835 q 849 675 849 733 q 833 575 849 625 q 781 485 817 525 q 687 422 744 446 q 547 397 629 397 l 354 397 l 871 169 l 871 -15 l 238 271 l 238 0 l 69 0 l 69 286 m 344 -219 q 393 -200 376 -219 q 410 -153 410 -181 l 410 -54 l 574 -54 l 574 -156 q 556 -244 574 -204 q 507 -312 538 -283 q 434 -358 476 -342 q 344 -374 392 -374 l 344 -219 z "},"ŗ":{"ha":901,"x_min":68,"x_max":854,"o":"m 68 0 m 236 560 l 571 560 q 649 594 617 560 q 681 675 681 628 q 672 718 681 697 q 648 754 663 739 q 614 779 633 769 q 572 789 594 789 l 236 789 l 236 560 m 546 957 q 682 935 625 957 q 776 874 739 913 q 830 784 813 835 q 847 675 847 733 q 831 575 847 625 q 779 485 815 525 q 685 422 743 446 q 546 397 628 397 l 468 397 l 854 181 l 854 -19 l 236 357 l 236 0 l 68 0 l 68 957 l 546 957 m 336 -219 q 385 -200 368 -219 q 401 -153 401 -181 l 401 -54 l 565 -54 l 565 -156 q 547 -244 565 -204 q 499 -312 529 -283 q 426 -358 468 -342 q 336 -374 383 -374 l 336 -219 z "},"Ř":{"ha":918,"x_min":69,"x_max":871,"o":"m 69 0 m 69 286 q 151 495 69 425 q 371 565 232 565 l 572 565 q 650 598 618 565 q 682 678 682 631 q 673 720 682 700 q 649 756 664 740 q 615 780 635 771 q 574 789 596 789 l 69 789 l 69 957 l 547 957 q 683 935 626 957 q 777 874 740 913 q 831 784 814 835 q 849 675 849 733 q 833 575 849 625 q 781 485 817 525 q 687 422 744 446 q 547 397 629 397 l 354 397 l 871 169 l 871 -15 l 238 271 l 238 0 l 69 0 l 69 286 m 539 1056 q 490 1015 518 1028 q 431 1001 461 1001 q 370 1015 399 1001 q 321 1056 342 1028 l 143 1293 l 282 1293 l 431 1096 l 578 1293 l 719 1293 l 539 1056 z "},"ř":{"ha":901,"x_min":68,"x_max":854,"o":"m 68 0 m 236 560 l 571 560 q 649 594 617 560 q 681 675 681 628 q 672 718 681 697 q 648 754 663 739 q 614 779 633 769 q 572 789 594 789 l 236 789 l 236 560 m 546 957 q 682 935 625 957 q 776 874 739 913 q 830 784 813 835 q 847 675 847 733 q 831 575 847 625 q 779 485 815 525 q 685 422 743 446 q 546 397 628 397 l 468 397 l 854 181 l 854 -19 l 236 357 l 236 0 l 68 0 l 68 957 l 546 957 m 531 1056 q 481 1015 510 1028 q 422 1001 453 1001 q 362 1015 390 1001 q 313 1056 333 1028 l 135 1293 l 274 1293 l 422 1096 l 569 1293 l 711 1293 l 531 1056 z "},"Ś":{"ha":950,"x_min":54,"x_max":896,"o":"m 54 0 m 896 279 q 816 70 896 140 q 593 0 736 0 l 101 0 l 101 167 l 625 167 q 699 201 669 167 q 728 283 728 235 q 699 363 728 329 q 625 397 669 397 l 356 397 q 215 422 272 397 q 122 488 157 447 q 70 577 86 528 q 54 675 54 626 q 71 784 54 733 q 124 874 88 835 q 218 935 161 913 q 356 957 275 957 l 833 957 l 833 789 l 329 789 q 288 780 307 789 q 253 756 268 771 q 230 720 239 740 q 221 678 221 700 q 253 598 221 631 q 331 565 285 565 l 596 565 q 815 495 735 565 q 896 286 896 425 l 896 279 m 242 992 l 242 1110 l 792 1293 l 792 1135 l 242 992 z "},"ś":{"ha":950,"x_min":54,"x_max":896,"o":"m 54 0 m 896 279 q 816 70 896 140 q 593 0 736 0 l 101 0 l 101 167 l 625 167 q 699 201 669 167 q 728 283 728 235 q 699 363 728 329 q 625 397 669 397 l 356 397 q 215 422 272 397 q 122 488 157 447 q 70 577 86 528 q 54 675 54 626 q 71 784 54 733 q 124 874 88 835 q 218 935 161 913 q 356 957 275 957 l 833 957 l 833 789 l 329 789 q 288 780 307 789 q 253 756 268 771 q 230 720 239 740 q 221 678 221 700 q 253 598 221 631 q 331 565 285 565 l 596 565 q 815 495 735 565 q 896 286 896 425 l 896 279 m 242 992 l 242 1110 l 792 1293 l 792 1135 l 242 992 z "},"Ŝ":{"ha":950,"x_min":54,"x_max":896,"o":"m 54 0 m 896 279 q 816 70 896 140 q 593 0 736 0 l 101 0 l 101 167 l 625 167 q 699 201 669 167 q 728 283 728 235 q 699 363 728 329 q 625 397 669 397 l 356 397 q 215 422 272 397 q 122 488 157 447 q 70 577 86 528 q 54 675 54 626 q 71 784 54 733 q 124 874 88 835 q 218 935 161 913 q 356 957 275 957 l 833 957 l 833 789 l 329 789 q 288 780 307 789 q 253 756 268 771 q 230 720 239 740 q 221 678 221 700 q 253 598 221 631 q 331 565 285 565 l 596 565 q 815 495 735 565 q 896 286 896 425 l 896 279 m 621 1001 l 474 1197 l 325 1001 l 186 1001 l 364 1239 q 414 1280 385 1267 q 474 1293 443 1293 q 533 1280 504 1293 q 582 1239 561 1267 l 763 1001 l 621 1001 z "},"ŝ":{"ha":950,"x_min":54,"x_max":896,"o":"m 54 0 m 896 279 q 816 70 896 140 q 593 0 736 0 l 101 0 l 101 167 l 625 167 q 699 201 669 167 q 728 283 728 235 q 699 363 728 329 q 625 397 669 397 l 356 397 q 215 422 272 397 q 122 488 157 447 q 70 577 86 528 q 54 675 54 626 q 71 784 54 733 q 124 874 88 835 q 218 935 161 913 q 356 957 275 957 l 833 957 l 833 789 l 329 789 q 288 780 307 789 q 253 756 268 771 q 230 720 239 740 q 221 678 221 700 q 253 598 221 631 q 331 565 285 565 l 596 565 q 815 495 735 565 q 896 286 896 425 l 896 279 m 621 1001 l 474 1197 l 325 1001 l 186 1001 l 364 1239 q 414 1280 385 1267 q 474 1293 443 1293 q 533 1280 504 1293 q 582 1239 561 1267 l 763 1001 l 621 1001 z "},"Ş":{"ha":950,"x_min":54,"x_max":896,"o":"m 54 0 m 896 279 q 816 70 896 140 q 593 0 736 0 l 101 0 l 101 167 l 625 167 q 699 201 669 167 q 728 283 728 235 q 699 363 728 329 q 625 397 669 397 l 356 397 q 215 422 272 397 q 122 488 157 447 q 70 577 86 528 q 54 675 54 626 q 71 784 54 733 q 124 874 88 835 q 218 935 161 913 q 356 957 275 957 l 833 957 l 833 789 l 329 789 q 288 780 307 789 q 253 756 268 771 q 230 720 239 740 q 221 678 221 700 q 253 598 221 631 q 331 565 285 565 l 596 565 q 815 495 735 565 q 896 286 896 425 l 896 279 m 360 -219 q 408 -200 392 -219 q 425 -153 425 -181 l 425 -54 l 589 -54 l 589 -156 q 571 -244 589 -204 q 522 -312 553 -283 q 449 -358 492 -342 q 360 -374 407 -374 l 360 -219 z "},"ş":{"ha":950,"x_min":54,"x_max":896,"o":"m 54 0 m 896 279 q 816 70 896 140 q 593 0 736 0 l 101 0 l 101 167 l 625 167 q 699 201 669 167 q 728 283 728 235 q 699 363 728 329 q 625 397 669 397 l 356 397 q 215 422 272 397 q 122 488 157 447 q 70 577 86 528 q 54 675 54 626 q 71 784 54 733 q 124 874 88 835 q 218 935 161 913 q 356 957 275 957 l 833 957 l 833 789 l 329 789 q 288 780 307 789 q 253 756 268 771 q 230 720 239 740 q 221 678 221 700 q 253 598 221 631 q 331 565 285 565 l 596 565 q 815 495 735 565 q 896 286 896 425 l 896 279 m 360 -219 q 408 -200 392 -219 q 425 -153 425 -181 l 425 -54 l 589 -54 l 589 -156 q 571 -244 589 -204 q 522 -312 553 -283 q 449 -358 492 -342 q 360 -374 407 -374 l 360 -219 z "},"Š":{"ha":950,"x_min":54,"x_max":896,"o":"m 54 0 m 896 279 q 816 70 896 140 q 593 0 736 0 l 101 0 l 101 167 l 625 167 q 699 201 669 167 q 728 283 728 235 q 699 363 728 329 q 625 397 669 397 l 356 397 q 215 422 272 397 q 122 488 157 447 q 70 577 86 528 q 54 675 54 626 q 71 784 54 733 q 124 874 88 835 q 218 935 161 913 q 356 957 275 957 l 833 957 l 833 789 l 329 789 q 288 780 307 789 q 253 756 268 771 q 230 720 239 740 q 221 678 221 700 q 253 598 221 631 q 331 565 285 565 l 596 565 q 815 495 735 565 q 896 286 896 425 l 896 279 m 582 1056 q 533 1015 561 1028 q 474 1001 504 1001 q 413 1015 442 1001 q 364 1056 385 1028 l 186 1293 l 325 1293 l 474 1096 l 621 1293 l 763 1293 l 582 1056 z "},"š":{"ha":950,"x_min":54,"x_max":896,"o":"m 54 0 m 896 279 q 816 70 896 140 q 593 0 736 0 l 101 0 l 101 167 l 625 167 q 699 201 669 167 q 728 283 728 235 q 699 363 728 329 q 625 397 669 397 l 356 397 q 215 422 272 397 q 122 488 157 447 q 70 577 86 528 q 54 675 54 626 q 71 784 54 733 q 124 874 88 835 q 218 935 161 913 q 356 957 275 957 l 833 957 l 833 789 l 329 789 q 288 780 307 789 q 253 756 268 771 q 230 720 239 740 q 221 678 221 700 q 253 598 221 631 q 331 565 285 565 l 596 565 q 815 495 735 565 q 896 286 896 425 l 896 279 m 582 1056 q 533 1015 561 1028 q 474 1001 504 1001 q 413 1015 442 1001 q 364 1056 385 1028 l 186 1293 l 325 1293 l 474 1096 l 621 1293 l 763 1293 l 582 1056 z "},"Ţ":{"ha":703,"x_min":39,"x_max":664,"o":"m 39 0 m 442 0 l 275 0 l 275 789 l 39 789 l 39 957 l 664 957 l 664 789 l 442 789 l 442 0 m 215 -219 q 264 -200 247 -219 q 281 -153 281 -181 l 281 -54 l 444 -54 l 444 -156 q 426 -244 444 -204 q 378 -312 408 -283 q 305 -358 347 -342 q 215 -374 263 -374 l 215 -219 z "},"ţ":{"ha":703,"x_min":39,"x_max":664,"o":"m 39 0 m 442 0 l 275 0 l 275 789 l 39 789 l 39 957 l 664 957 l 664 789 l 442 789 l 442 0 m 215 -219 q 264 -200 247 -219 q 281 -153 281 -181 l 281 -54 l 444 -54 l 444 -156 q 426 -244 444 -204 q 378 -312 408 -283 q 305 -358 347 -342 q 215 -374 263 -374 l 215 -219 z "},"Ť":{"ha":703,"x_min":39,"x_max":664,"o":"m 39 0 m 442 0 l 275 0 l 275 789 l 39 789 l 39 957 l 664 957 l 664 789 l 442 789 l 442 0 m 458 1056 q 409 1015 438 1028 q 350 1001 381 1001 q 290 1015 318 1001 q 240 1056 261 1028 l 63 1293 l 201 1293 l 350 1096 l 497 1293 l 639 1293 l 458 1056 z "},"ť":{"ha":703,"x_min":39,"x_max":664,"o":"m 39 0 m 442 0 l 275 0 l 275 789 l 39 789 l 39 957 l 664 957 l 664 789 l 442 789 l 442 0 m 458 1056 q 409 1015 438 1028 q 350 1001 381 1001 q 290 1015 318 1001 q 240 1056 261 1028 l 63 1293 l 201 1293 l 350 1096 l 497 1293 l 639 1293 l 458 1056 z "},"Ŧ":{"ha":703,"x_min":39,"x_max":664,"o":"m 178 497 l 275 497 l 275 789 l 39 789 l 39 957 l 664 957 l 664 789 l 442 789 l 442 497 l 539 497 l 539 326 l 442 326 l 442 0 l 275 0 l 275 326 l 178 326 l 178 497 z "},"ŧ":{"ha":703,"x_min":39,"x_max":664,"o":"m 39 0 m 178 497 l 275 497 l 275 789 l 39 789 l 39 957 l 664 957 l 664 789 l 442 789 l 442 497 l 539 497 l 539 326 l 442 326 l 442 0 l 275 0 l 275 326 l 178 326 l 178 497 z "},"Ũ":{"ha":943,"x_min":68,"x_max":874,"o":"m 68 0 m 874 363 q 849 214 874 281 q 774 100 824 147 q 648 26 724 53 q 472 0 572 0 q 299 26 374 0 q 172 101 224 53 q 94 215 121 149 q 68 361 68 282 l 68 957 l 236 957 l 236 365 q 299 222 236 278 q 475 167 363 167 l 479 167 q 649 222 592 167 q 706 365 706 278 l 706 957 l 874 957 l 874 363 m 149 1064 l 149 1196 l 793 1196 l 793 1064 l 149 1064 z "},"ũ":{"ha":943,"x_min":68,"x_max":874,"o":"m 68 0 m 874 363 q 849 214 874 281 q 774 100 824 147 q 648 26 724 53 q 472 0 572 0 q 299 26 374 0 q 172 101 224 53 q 94 215 121 149 q 68 361 68 282 l 68 957 l 236 957 l 236 365 q 299 222 236 278 q 475 167 363 167 l 479 167 q 649 222 592 167 q 706 365 706 278 l 706 957 l 874 957 l 874 363 m 149 1064 l 149 1196 l 793 1196 l 793 1064 l 149 1064 z "},"Ū":{"ha":943,"x_min":68,"x_max":874,"o":"m 68 0 m 874 363 q 849 214 874 281 q 774 100 824 147 q 648 26 724 53 q 472 0 572 0 q 299 26 374 0 q 172 101 224 53 q 94 215 121 149 q 68 361 68 282 l 68 957 l 236 957 l 236 365 q 299 222 236 278 q 475 167 363 167 l 479 167 q 649 222 592 167 q 706 365 706 278 l 706 957 l 874 957 l 874 363 m 149 1064 l 149 1196 l 793 1196 l 793 1064 l 149 1064 z "},"ū":{"ha":943,"x_min":68,"x_max":874,"o":"m 68 0 m 874 363 q 849 214 874 281 q 774 100 824 147 q 648 26 724 53 q 472 0 572 0 q 299 26 374 0 q 172 101 224 53 q 94 215 121 149 q 68 361 68 282 l 68 957 l 236 957 l 236 365 q 299 222 236 278 q 475 167 363 167 l 479 167 q 649 222 592 167 q 706 365 706 278 l 706 957 l 874 957 l 874 363 m 149 1064 l 149 1196 l 793 1196 l 793 1064 l 149 1064 z "},"Ŭ":{"ha":943,"x_min":68,"x_max":874,"o":"m 68 0 m 874 363 q 849 214 874 281 q 774 100 824 147 q 648 26 724 53 q 472 0 572 0 q 299 26 374 0 q 172 101 224 53 q 94 215 121 149 q 68 361 68 282 l 68 957 l 236 957 l 236 365 q 299 222 236 278 q 475 167 363 167 l 479 167 q 649 222 592 167 q 706 365 706 278 l 706 957 l 874 957 l 874 363 m 786 1293 q 751 1153 779 1210 q 681 1064 724 1097 q 585 1016 639 1031 q 471 1001 531 1001 q 356 1016 410 1001 q 259 1064 301 1031 q 190 1153 217 1097 q 156 1293 163 1210 l 281 1293 q 331 1145 282 1201 q 471 1089 379 1089 q 610 1145 560 1089 q 663 1293 661 1201 l 786 1293 z "},"ŭ":{"ha":943,"x_min":68,"x_max":874,"o":"m 68 0 m 874 363 q 849 214 874 281 q 774 100 824 147 q 648 26 724 53 q 472 0 572 0 q 299 26 374 0 q 172 101 224 53 q 94 215 121 149 q 68 361 68 282 l 68 957 l 236 957 l 236 365 q 299 222 236 278 q 475 167 363 167 l 479 167 q 649 222 592 167 q 706 365 706 278 l 706 957 l 874 957 l 874 363 m 786 1293 q 751 1153 779 1210 q 681 1064 724 1097 q 585 1016 639 1031 q 471 1001 531 1001 q 356 1016 410 1001 q 259 1064 301 1031 q 190 1153 217 1097 q 156 1293 163 1210 l 281 1293 q 331 1145 282 1201 q 471 1089 379 1089 q 610 1145 560 1089 q 663 1293 661 1201 l 786 1293 z "},"Ů":{"ha":943,"x_min":68,"x_max":874,"o":"m 68 0 m 874 363 q 849 214 874 281 q 774 100 824 147 q 648 26 724 53 q 472 0 572 0 q 299 26 374 0 q 172 101 224 53 q 94 215 121 149 q 68 361 68 282 l 68 957 l 236 957 l 236 365 q 299 222 236 278 q 475 167 363 167 l 479 167 q 649 222 592 167 q 706 365 706 278 l 706 957 l 874 957 l 874 363 m 633 1139 q 597 1026 633 1068 q 471 983 560 983 q 345 1026 381 983 q 310 1139 310 1069 q 345 1251 310 1208 q 471 1293 381 1293 q 597 1251 561 1293 q 633 1139 633 1210 m 471 1042 q 544 1069 525 1042 q 564 1139 564 1097 q 544 1207 564 1179 q 471 1235 525 1235 q 396 1207 417 1235 q 375 1139 375 1179 q 396 1069 375 1097 q 471 1042 417 1042 z "},"ů":{"ha":943,"x_min":68,"x_max":874,"o":"m 68 0 m 874 363 q 849 214 874 281 q 774 100 824 147 q 648 26 724 53 q 472 0 572 0 q 299 26 374 0 q 172 101 224 53 q 94 215 121 149 q 68 361 68 282 l 68 957 l 236 957 l 236 365 q 299 222 236 278 q 475 167 363 167 l 479 167 q 649 222 592 167 q 706 365 706 278 l 706 957 l 874 957 l 874 363 m 633 1139 q 597 1026 633 1068 q 471 983 560 983 q 345 1026 381 983 q 310 1139 310 1069 q 345 1251 310 1208 q 471 1293 381 1293 q 597 1251 561 1293 q 633 1139 633 1210 m 471 1042 q 544 1069 525 1042 q 564 1139 564 1097 q 544 1207 564 1179 q 471 1235 525 1235 q 396 1207 417 1235 q 375 1139 375 1179 q 396 1069 375 1097 q 471 1042 417 1042 z "},"Ű":{"ha":943,"x_min":68,"x_max":874,"o":"m 68 0 m 874 363 q 849 214 874 281 q 774 100 824 147 q 648 26 724 53 q 472 0 572 0 q 299 26 374 0 q 172 101 224 53 q 94 215 121 149 q 68 361 68 282 l 68 957 l 236 957 l 236 365 q 299 222 236 278 q 475 167 363 167 l 479 167 q 649 222 592 167 q 706 365 706 278 l 706 957 l 874 957 l 874 363 m 551 997 l 667 1293 l 814 1293 l 678 997 l 551 997 m 208 997 l 324 1293 l 471 1293 l 335 997 l 208 997 z "},"ű":{"ha":943,"x_min":68,"x_max":874,"o":"m 68 0 m 874 363 q 849 214 874 281 q 774 100 824 147 q 648 26 724 53 q 472 0 572 0 q 299 26 374 0 q 172 101 224 53 q 94 215 121 149 q 68 361 68 282 l 68 957 l 236 957 l 236 365 q 299 222 236 278 q 475 167 363 167 l 479 167 q 649 222 592 167 q 706 365 706 278 l 706 957 l 874 957 l 874 363 m 551 997 l 667 1293 l 814 1293 l 678 997 l 551 997 m 208 997 l 324 1293 l 471 1293 l 335 997 l 208 997 z "},"Ų":{"ha":943,"x_min":68,"x_max":874,"o":"m 438 -372 q 296 -325 342 -372 q 250 -207 250 -278 q 283 -106 250 -143 q 374 -42 315 -69 l 460 0 q 291 28 364 1 q 169 103 218 56 q 94 217 119 151 q 68 361 68 282 l 68 957 l 236 957 l 236 365 q 299 222 236 278 q 475 167 363 167 l 479 167 q 649 222 592 167 q 706 365 706 278 l 706 957 l 874 957 l 874 363 q 856 248 874 299 q 807 156 839 197 q 729 82 775 115 q 628 19 683 49 l 458 -68 q 413 -103 426 -85 q 399 -157 399 -121 q 422 -203 399 -185 q 483 -221 446 -221 l 590 -221 l 590 -372 l 438 -372 z "},"ų":{"ha":943,"x_min":68,"x_max":874,"o":"m 68 0 m 438 -372 q 296 -325 342 -372 q 250 -207 250 -278 q 283 -106 250 -143 q 374 -42 315 -69 l 460 0 q 291 28 364 1 q 169 103 218 56 q 94 217 119 151 q 68 361 68 282 l 68 957 l 236 957 l 236 365 q 299 222 236 278 q 475 167 363 167 l 479 167 q 649 222 592 167 q 706 365 706 278 l 706 957 l 874 957 l 874 363 q 856 248 874 299 q 807 156 839 197 q 729 82 775 115 q 628 19 683 49 l 458 -68 q 413 -103 426 -85 q 399 -157 399 -121 q 422 -203 399 -185 q 483 -221 446 -221 l 590 -221 l 590 -372 l 438 -372 z "},"Ŵ":{"ha":1635,"x_min":32,"x_max":1567,"o":"m 32 0 m 476 225 q 498 182 486 197 q 533 167 510 167 q 606 250 606 167 l 606 726 q 624 823 606 779 q 676 897 643 867 q 754 944 710 928 q 851 961 799 961 q 984 922 925 961 q 1067 813 1043 883 l 1260 225 q 1281 182 1269 197 q 1317 167 1293 167 q 1389 250 1389 167 l 1389 957 l 1567 957 l 1567 232 q 1547 135 1567 179 q 1494 61 1528 92 q 1416 14 1461 31 q 1319 -3 1371 -3 q 1188 37 1247 -3 q 1104 147 1128 76 l 913 732 q 891 777 904 761 q 854 793 878 793 q 783 710 783 793 l 783 232 q 764 135 783 179 q 711 61 744 92 q 633 14 678 31 q 536 -3 588 -3 q 403 37 460 -3 q 321 147 346 76 l 32 957 l 221 957 l 476 225 m 992 1001 l 844 1197 l 696 1001 l 557 1001 l 735 1239 q 785 1280 756 1267 q 844 1293 814 1293 q 903 1280 875 1293 q 953 1239 932 1267 l 1133 1001 l 992 1001 z "},"ŵ":{"ha":1635,"x_min":68,"x_max":1604,"o":"m 68 0 m 1313 143 q 1228 35 1286 75 q 1099 -6 1169 -6 q 1001 11 1046 -6 q 922 58 956 28 q 870 132 889 89 q 851 229 851 175 l 851 710 q 781 793 851 793 q 744 777 757 793 q 722 732 732 761 l 529 143 l 531 143 q 449 33 508 72 q 315 -6 390 -6 q 217 11 263 -6 q 139 58 172 28 q 87 132 106 89 q 68 229 68 175 l 68 957 l 247 957 l 247 247 q 318 164 247 164 q 355 178 342 164 q 376 222 368 193 l 571 813 q 652 922 594 883 q 783 961 710 961 q 880 944 835 961 q 958 897 925 928 q 1011 823 992 867 q 1031 726 1031 779 l 1031 247 q 1101 164 1031 164 q 1137 178 1125 164 q 1160 222 1149 193 l 1414 957 l 1604 957 l 1313 143 m 936 1001 l 789 1197 l 640 1001 l 501 1001 l 679 1239 q 729 1280 700 1267 q 789 1293 758 1293 q 848 1280 819 1293 q 897 1239 876 1267 l 1078 1001 l 936 1001 z "},"Ŷ":{"ha":924,"x_min":25,"x_max":899,"o":"m 25 0 m 379 424 l 25 957 l 225 957 l 463 574 l 699 957 l 899 957 l 546 435 l 546 0 l 379 0 l 379 424 m 608 1001 l 461 1197 l 313 1001 l 174 1001 l 351 1239 q 401 1280 372 1267 q 461 1293 431 1293 q 520 1280 492 1293 q 569 1239 549 1267 l 750 1001 l 608 1001 z "},"ŷ":{"ha":924,"x_min":25,"x_max":899,"o":"m 25 0 m 379 424 l 25 957 l 225 957 l 463 574 l 699 957 l 899 957 l 546 435 l 546 0 l 379 0 l 379 424 m 608 1001 l 461 1197 l 313 1001 l 174 1001 l 351 1239 q 401 1280 372 1267 q 461 1293 431 1293 q 520 1280 492 1293 q 569 1239 549 1267 l 750 1001 l 608 1001 z "},"Ÿ":{"ha":924,"x_min":25,"x_max":899,"o":"m 25 0 m 379 424 l 25 957 l 225 957 l 463 574 l 699 957 l 899 957 l 546 435 l 546 0 l 379 0 l 379 424 m 563 1047 l 563 1211 l 738 1211 l 738 1047 l 563 1047 m 186 1047 l 186 1211 l 360 1211 l 360 1047 l 186 1047 z "},"Ź":{"ha":1025,"x_min":60,"x_max":961,"o":"m 60 0 m 742 668 q 781 699 765 679 q 797 738 797 718 q 782 774 797 760 q 735 789 767 789 l 96 789 l 96 957 l 729 957 q 903 896 846 957 q 961 738 961 835 q 958 692 961 719 q 941 635 956 665 q 895 574 926 604 q 808 518 864 543 l 282 289 q 241 258 254 276 q 228 221 228 240 q 246 181 228 194 q 289 167 264 167 l 939 167 l 939 0 l 293 0 q 118 61 176 0 q 60 218 60 122 q 65 273 60 243 q 88 333 71 303 q 135 390 104 363 q 215 439 165 418 l 742 668 m 279 992 l 279 1110 l 829 1293 l 829 1135 l 279 992 z "},"ź":{"ha":1025,"x_min":60,"x_max":961,"o":"m 60 0 m 742 668 q 781 699 765 679 q 797 738 797 718 q 782 774 797 760 q 735 789 767 789 l 96 789 l 96 957 l 729 957 q 903 896 846 957 q 961 738 961 835 q 958 692 961 719 q 941 635 956 665 q 895 574 926 604 q 808 518 864 543 l 282 289 q 241 258 254 276 q 228 221 228 240 q 246 181 228 194 q 289 167 264 167 l 939 167 l 939 0 l 293 0 q 118 61 176 0 q 60 218 60 122 q 65 273 60 243 q 88 333 71 303 q 135 390 104 363 q 215 439 165 418 l 742 668 m 279 992 l 279 1110 l 829 1293 l 829 1135 l 279 992 z "},"Ż":{"ha":1025,"x_min":60,"x_max":961,"o":"m 60 0 m 742 668 q 781 699 765 679 q 797 738 797 718 q 782 774 797 760 q 735 789 767 789 l 96 789 l 96 957 l 729 957 q 903 896 846 957 q 961 738 961 835 q 958 692 961 719 q 941 635 956 665 q 895 574 926 604 q 808 518 864 543 l 282 289 q 241 258 254 276 q 228 221 228 240 q 246 181 228 194 q 289 167 264 167 l 939 167 l 939 0 l 293 0 q 118 61 176 0 q 60 218 60 122 q 65 273 60 243 q 88 333 71 303 q 135 390 104 363 q 215 439 165 418 l 742 668 m 425 1047 l 425 1211 l 599 1211 l 599 1047 l 425 1047 z "},"ż":{"ha":1025,"x_min":60,"x_max":961,"o":"m 60 0 m 742 668 q 781 699 765 679 q 797 738 797 718 q 782 774 797 760 q 735 789 767 789 l 96 789 l 96 957 l 729 957 q 903 896 846 957 q 961 738 961 835 q 958 692 961 719 q 941 635 956 665 q 895 574 926 604 q 808 518 864 543 l 282 289 q 241 258 254 276 q 228 221 228 240 q 246 181 228 194 q 289 167 264 167 l 939 167 l 939 0 l 293 0 q 118 61 176 0 q 60 218 60 122 q 65 273 60 243 q 88 333 71 303 q 135 390 104 363 q 215 439 165 418 l 742 668 m 425 1047 l 425 1211 l 599 1211 l 599 1047 l 425 1047 z "},"Ž":{"ha":1025,"x_min":60,"x_max":961,"o":"m 60 0 m 742 668 q 781 699 765 679 q 797 738 797 718 q 782 774 797 760 q 735 789 767 789 l 96 789 l 96 957 l 729 957 q 903 896 846 957 q 961 738 961 835 q 958 692 961 719 q 941 635 956 665 q 895 574 926 604 q 808 518 864 543 l 282 289 q 241 258 254 276 q 228 221 228 240 q 246 181 228 194 q 289 167 264 167 l 939 167 l 939 0 l 293 0 q 118 61 176 0 q 60 218 60 122 q 65 273 60 243 q 88 333 71 303 q 135 390 104 363 q 215 439 165 418 l 742 668 m 619 1056 q 570 1015 599 1028 q 511 1001 542 1001 q 451 1015 479 1001 q 401 1056 422 1028 l 224 1293 l 363 1293 l 511 1096 l 658 1293 l 800 1293 l 619 1056 z "},"ž":{"ha":1025,"x_min":60,"x_max":961,"o":"m 60 0 m 742 668 q 781 699 765 679 q 797 738 797 718 q 782 774 797 760 q 735 789 767 789 l 96 789 l 96 957 l 729 957 q 903 896 846 957 q 961 738 961 835 q 958 692 961 719 q 941 635 956 665 q 895 574 926 604 q 808 518 864 543 l 282 289 q 241 258 254 276 q 228 221 228 240 q 246 181 228 194 q 289 167 264 167 l 939 167 l 939 0 l 293 0 q 118 61 176 0 q 60 218 60 122 q 65 273 60 243 q 88 333 71 303 q 135 390 104 363 q 215 439 165 418 l 742 668 m 619 1056 q 570 1015 599 1028 q 511 1001 542 1001 q 451 1015 479 1001 q 401 1056 422 1028 l 224 1293 l 363 1293 l 511 1096 l 658 1293 l 800 1293 l 619 1056 z "},"Ș":{"ha":950,"x_min":54,"x_max":896,"o":"m 54 0 m 896 279 q 816 70 896 140 q 593 0 736 0 l 101 0 l 101 167 l 625 167 q 699 201 669 167 q 728 283 728 235 q 699 363 728 329 q 625 397 669 397 l 356 397 q 215 422 272 397 q 122 488 157 447 q 70 577 86 528 q 54 675 54 626 q 71 784 54 733 q 124 874 88 835 q 218 935 161 913 q 356 957 275 957 l 833 957 l 833 789 l 329 789 q 288 780 307 789 q 253 756 268 771 q 230 720 239 740 q 221 678 221 700 q 253 598 221 631 q 331 565 285 565 l 596 565 q 815 495 735 565 q 896 286 896 425 l 896 279 m 360 -219 q 408 -200 392 -219 q 425 -153 425 -181 l 425 -54 l 589 -54 l 589 -156 q 571 -244 589 -204 q 522 -312 553 -283 q 449 -358 492 -342 q 360 -374 407 -374 l 360 -219 z "},"ș":{"ha":950,"x_min":54,"x_max":896,"o":"m 54 0 m 896 279 q 816 70 896 140 q 593 0 736 0 l 101 0 l 101 167 l 625 167 q 699 201 669 167 q 728 283 728 235 q 699 363 728 329 q 625 397 669 397 l 356 397 q 215 422 272 397 q 122 488 157 447 q 70 577 86 528 q 54 675 54 626 q 71 784 54 733 q 124 874 88 835 q 218 935 161 913 q 356 957 275 957 l 833 957 l 833 789 l 329 789 q 288 780 307 789 q 253 756 268 771 q 230 720 239 740 q 221 678 221 700 q 253 598 221 631 q 331 565 285 565 l 596 565 q 815 495 735 565 q 896 286 896 425 l 896 279 m 360 -219 q 408 -200 392 -219 q 425 -153 425 -181 l 425 -54 l 589 -54 l 589 -156 q 571 -244 589 -204 q 522 -312 553 -283 q 449 -358 492 -342 q 360 -374 407 -374 l 360 -219 z "},"Ț":{"ha":703,"x_min":39,"x_max":664,"o":"m 39 0 m 442 0 l 275 0 l 275 789 l 39 789 l 39 957 l 664 957 l 664 789 l 442 789 l 442 0 m 215 -219 q 264 -200 247 -219 q 281 -153 281 -181 l 281 -54 l 444 -54 l 444 -156 q 426 -244 444 -204 q 378 -312 408 -283 q 305 -358 347 -342 q 215 -374 263 -374 l 215 -219 z "},"ț":{"ha":703,"x_min":39,"x_max":664,"o":"m 39 0 m 442 0 l 275 0 l 275 789 l 39 789 l 39 957 l 664 957 l 664 789 l 442 789 l 442 0 m 215 -219 q 264 -200 247 -219 q 281 -153 281 -181 l 281 -54 l 444 -54 l 444 -156 q 426 -244 444 -204 q 378 -312 408 -283 q 305 -358 347 -342 q 215 -374 263 -374 l 215 -219 z "},"ˆ":{"ha":631,"x_min":28,"x_max":604,"o":"m 463 1001 l 315 1197 l 167 1001 l 28 1001 l 206 1239 q 256 1280 226 1267 q 315 1293 285 1293 q 374 1280 346 1293 q 424 1239 403 1267 l 604 1001 l 463 1001 z "},"ˇ":{"ha":631,"x_min":28,"x_max":604,"o":"m 424 1056 q 374 1015 403 1028 q 315 1001 346 1001 q 255 1015 283 1001 q 206 1056 226 1028 l 28 1293 l 167 1293 l 315 1096 l 463 1293 l 604 1293 l 424 1056 z "},"˘":{"ha":686,"x_min":28,"x_max":658,"o":"m 658 1293 q 624 1153 651 1210 q 553 1064 596 1097 q 457 1016 511 1031 q 343 1001 403 1001 q 228 1016 282 1001 q 131 1064 174 1031 q 62 1153 89 1097 q 28 1293 35 1210 l 153 1293 q 203 1145 154 1201 q 343 1089 251 1089 q 483 1145 432 1089 q 535 1293 533 1201 l 658 1293 z "},"˙":{"ha":229,"x_min":28,"x_max":201,"o":"m 28 1047 l 28 1211 l 201 1211 l 201 1047 l 28 1047 z "},"˚":{"ha":379,"x_min":28,"x_max":351,"o":"m 351 1139 q 315 1026 351 1068 q 189 983 278 983 q 63 1026 99 983 q 28 1139 28 1069 q 63 1251 28 1208 q 189 1293 99 1293 q 315 1251 279 1293 q 351 1139 351 1210 m 189 1042 q 263 1069 243 1042 q 282 1139 282 1097 q 263 1207 282 1179 q 189 1235 243 1235 q 114 1207 135 1235 q 93 1139 93 1179 q 114 1069 93 1097 q 189 1042 135 1042 z "},"˛":{"ha":394,"x_min":28,"x_max":368,"o":"m 215 -372 q 74 -325 119 -372 q 28 -207 28 -278 q 60 -106 28 -144 q 151 -42 93 -68 l 242 0 l 368 0 l 236 -68 q 190 -103 204 -85 q 176 -157 176 -121 q 200 -203 176 -185 q 261 -221 224 -221 l 368 -221 l 368 -372 l 215 -372 z "},"˜":{"ha":700,"x_min":28,"x_max":672,"o":"m 28 1064 l 28 1196 l 672 1196 l 672 1064 l 28 1064 z "},"˝":{"ha":661,"x_min":28,"x_max":633,"o":"m 371 997 l 486 1293 l 633 1293 l 497 997 l 371 997 m 28 997 l 143 1293 l 290 1293 l 154 997 l 28 997 z "},"Ẁ":{"ha":1635,"x_min":32,"x_max":1567,"o":"m 32 0 m 476 225 q 498 182 486 197 q 533 167 510 167 q 606 250 606 167 l 606 726 q 624 823 606 779 q 676 897 643 867 q 754 944 710 928 q 851 961 799 961 q 984 922 925 961 q 1067 813 1043 883 l 1260 225 q 1281 182 1269 197 q 1317 167 1293 167 q 1389 250 1389 167 l 1389 957 l 1567 957 l 1567 232 q 1547 135 1567 179 q 1494 61 1528 92 q 1416 14 1461 31 q 1319 -3 1371 -3 q 1188 37 1247 -3 q 1104 147 1128 76 l 913 732 q 891 777 904 761 q 854 793 878 793 q 783 710 783 793 l 783 232 q 764 135 783 179 q 711 61 744 92 q 633 14 678 31 q 536 -3 588 -3 q 403 37 460 -3 q 321 147 346 76 l 32 957 l 221 957 l 476 225 m 528 1135 l 528 1293 l 1078 1110 l 1078 992 l 528 1135 z "},"ẁ":{"ha":1635,"x_min":68,"x_max":1604,"o":"m 68 0 m 1313 143 q 1228 35 1286 75 q 1099 -6 1169 -6 q 1001 11 1046 -6 q 922 58 956 28 q 870 132 889 89 q 851 229 851 175 l 851 710 q 781 793 851 793 q 744 777 757 793 q 722 732 732 761 l 529 143 l 531 143 q 449 33 508 72 q 315 -6 390 -6 q 217 11 263 -6 q 139 58 172 28 q 87 132 106 89 q 68 229 68 175 l 68 957 l 247 957 l 247 247 q 318 164 247 164 q 355 178 342 164 q 376 222 368 193 l 571 813 q 652 922 594 883 q 783 961 710 961 q 880 944 835 961 q 958 897 925 928 q 1011 823 992 867 q 1031 726 1031 779 l 1031 247 q 1101 164 1031 164 q 1137 178 1125 164 q 1160 222 1149 193 l 1414 957 l 1604 957 l 1313 143 m 472 1135 l 472 1293 l 1022 1110 l 1022 992 l 472 1135 z "},"Ẃ":{"ha":1635,"x_min":32,"x_max":1567,"o":"m 32 0 m 476 225 q 498 182 486 197 q 533 167 510 167 q 606 250 606 167 l 606 726 q 624 823 606 779 q 676 897 643 867 q 754 944 710 928 q 851 961 799 961 q 984 922 925 961 q 1067 813 1043 883 l 1260 225 q 1281 182 1269 197 q 1317 167 1293 167 q 1389 250 1389 167 l 1389 957 l 1567 957 l 1567 232 q 1547 135 1567 179 q 1494 61 1528 92 q 1416 14 1461 31 q 1319 -3 1371 -3 q 1188 37 1247 -3 q 1104 147 1128 76 l 913 732 q 891 777 904 761 q 854 793 878 793 q 783 710 783 793 l 783 232 q 764 135 783 179 q 711 61 744 92 q 633 14 678 31 q 536 -3 588 -3 q 403 37 460 -3 q 321 147 346 76 l 32 957 l 221 957 l 476 225 m 611 992 l 611 1110 l 1161 1293 l 1161 1135 l 611 992 z "},"ẃ":{"ha":1635,"x_min":68,"x_max":1604,"o":"m 68 0 m 1313 143 q 1228 35 1286 75 q 1099 -6 1169 -6 q 1001 11 1046 -6 q 922 58 956 28 q 870 132 889 89 q 851 229 851 175 l 851 710 q 781 793 851 793 q 744 777 757 793 q 722 732 732 761 l 529 143 l 531 143 q 449 33 508 72 q 315 -6 390 -6 q 217 11 263 -6 q 139 58 172 28 q 87 132 106 89 q 68 229 68 175 l 68 957 l 247 957 l 247 247 q 318 164 247 164 q 355 178 342 164 q 376 222 368 193 l 571 813 q 652 922 594 883 q 783 961 710 961 q 880 944 835 961 q 958 897 925 928 q 1011 823 992 867 q 1031 726 1031 779 l 1031 247 q 1101 164 1031 164 q 1137 178 1125 164 q 1160 222 1149 193 l 1414 957 l 1604 957 l 1313 143 m 556 992 l 556 1110 l 1106 1293 l 1106 1135 l 556 992 z "},"Ẅ":{"ha":1635,"x_min":32,"x_max":1567,"o":"m 32 0 m 476 225 q 498 182 486 197 q 533 167 510 167 q 606 250 606 167 l 606 726 q 624 823 606 779 q 676 897 643 867 q 754 944 710 928 q 851 961 799 961 q 984 922 925 961 q 1067 813 1043 883 l 1260 225 q 1281 182 1269 197 q 1317 167 1293 167 q 1389 250 1389 167 l 1389 957 l 1567 957 l 1567 232 q 1547 135 1567 179 q 1494 61 1528 92 q 1416 14 1461 31 q 1319 -3 1371 -3 q 1188 37 1247 -3 q 1104 147 1128 76 l 913 732 q 891 777 904 761 q 854 793 878 793 q 783 710 783 793 l 783 232 q 764 135 783 179 q 711 61 744 92 q 633 14 678 31 q 536 -3 588 -3 q 403 37 460 -3 q 321 147 346 76 l 32 957 l 221 957 l 476 225 m 946 1047 l 946 1211 l 1121 1211 l 1121 1047 l 946 1047 m 569 1047 l 569 1211 l 743 1211 l 743 1047 l 569 1047 z "},"ẅ":{"ha":1635,"x_min":68,"x_max":1604,"o":"m 68 0 m 1313 143 q 1228 35 1286 75 q 1099 -6 1169 -6 q 1001 11 1046 -6 q 922 58 956 28 q 870 132 889 89 q 851 229 851 175 l 851 710 q 781 793 851 793 q 744 777 757 793 q 722 732 732 761 l 529 143 l 531 143 q 449 33 508 72 q 315 -6 390 -6 q 217 11 263 -6 q 139 58 172 28 q 87 132 106 89 q 68 229 68 175 l 68 957 l 247 957 l 247 247 q 318 164 247 164 q 355 178 342 164 q 376 222 368 193 l 571 813 q 652 922 594 883 q 783 961 710 961 q 880 944 835 961 q 958 897 925 928 q 1011 823 992 867 q 1031 726 1031 779 l 1031 247 q 1101 164 1031 164 q 1137 178 1125 164 q 1160 222 1149 193 l 1414 957 l 1604 957 l 1313 143 m 890 1047 l 890 1211 l 1065 1211 l 1065 1047 l 890 1047 m 514 1047 l 514 1211 l 688 1211 l 688 1047 l 514 1047 z "},"Ỳ":{"ha":924,"x_min":25,"x_max":899,"o":"m 25 0 m 379 424 l 25 957 l 225 957 l 463 574 l 699 957 l 899 957 l 546 435 l 546 0 l 379 0 l 379 424 m 144 1135 l 144 1293 l 694 1110 l 694 992 l 144 1135 z "},"ỳ":{"ha":924,"x_min":25,"x_max":899,"o":"m 25 0 m 379 424 l 25 957 l 225 957 l 463 574 l 699 957 l 899 957 l 546 435 l 546 0 l 379 0 l 379 424 m 144 1135 l 144 1293 l 694 1110 l 694 992 l 144 1135 z "},"–":{"ha":625,"x_min":56,"x_max":567,"o":"m 56 567 l 567 567 l 567 396 l 56 396 l 56 567 z "},"—":{"ha":896,"x_min":56,"x_max":840,"o":"m 56 567 l 840 567 l 840 396 l 56 396 l 56 567 z "},"‘":{"ha":349,"x_min":46,"x_max":300,"o":"m 249 706 q 165 722 203 706 q 101 768 128 739 q 60 838 75 797 q 46 924 46 878 l 46 1114 l 225 1114 l 225 964 q 300 871 225 892 l 300 706 l 249 706 z "},"’":{"ha":347,"x_min":46,"x_max":299,"o":"m 299 918 q 285 833 299 872 q 244 764 271 793 q 181 718 218 735 q 99 701 144 701 l 46 701 l 46 865 q 121 960 121 886 l 121 1110 l 299 1110 l 299 918 z "},"‚":{"ha":349,"x_min":46,"x_max":300,"o":"m 46 0 m 300 17 q 281 -81 300 -36 q 227 -156 261 -125 q 147 -205 193 -187 q 46 -222 100 -222 l 46 -54 q 102 -37 83 -54 q 121 7 121 -19 l 121 183 l 300 183 l 300 17 z "},"“":{"ha":697,"x_min":46,"x_max":649,"o":"m 46 706 m 249 706 q 165 722 203 706 q 101 768 128 739 q 60 838 75 797 q 46 924 46 878 l 46 1114 l 225 1114 l 225 964 q 300 871 225 892 l 300 706 l 249 706 m 597 706 q 514 722 551 706 q 450 768 476 739 q 409 838 424 797 q 394 924 394 878 l 394 1114 l 574 1114 l 574 964 q 649 871 574 892 l 649 706 l 597 706 z "},"”":{"ha":694,"x_min":46,"x_max":646,"o":"m 46 701 m 299 918 q 285 833 299 872 q 244 764 271 793 q 181 718 218 735 q 99 701 144 701 l 46 701 l 46 865 q 121 960 121 886 l 121 1110 l 299 1110 l 299 918 m 646 918 q 632 833 646 872 q 592 764 618 793 q 528 718 565 735 q 446 701 492 701 l 393 701 l 393 865 q 468 960 468 886 l 468 1110 l 646 1110 l 646 918 z "},"„":{"ha":697,"x_min":46,"x_max":649,"o":"m 46 0 m 300 17 q 281 -81 300 -36 q 227 -156 261 -125 q 147 -205 193 -187 q 46 -222 100 -222 l 46 -54 q 102 -37 83 -54 q 121 7 121 -19 l 121 183 l 300 183 l 300 17 m 649 17 q 629 -81 649 -36 q 576 -156 610 -125 q 495 -205 542 -187 q 394 -222 449 -222 l 394 -54 q 451 -37 432 -54 q 469 7 469 -19 l 469 183 l 649 183 l 649 17 z "},"†":{"ha":774,"x_min":32,"x_max":742,"o":"m 339 -19 l 339 731 l 32 731 l 32 817 l 339 817 l 339 1000 l 440 1000 l 440 817 l 742 817 l 742 731 l 440 731 l 440 -19 l 339 -19 z "},"‡":{"ha":774,"x_min":32,"x_max":743,"o":"m 439 165 l 439 -19 l 339 -19 l 339 165 l 32 165 l 32 250 l 339 250 l 339 731 l 32 731 l 32 817 l 339 817 l 339 1000 l 439 1000 l 439 817 l 743 817 l 743 731 l 439 731 l 439 250 l 743 250 l 743 165 l 439 165 z "},"•":{"ha":667,"x_min":74,"x_max":594,"o":"m 594 719 l 594 232 l 74 232 l 74 719 l 594 719 z "},"…":{"ha":1361,"x_min":46,"x_max":1313,"o":"m 46 0 m 46 168 l 224 168 l 224 0 l 46 0 l 46 168 m 590 168 l 768 168 l 768 0 l 590 0 l 590 168 m 1135 168 l 1313 168 l 1313 0 l 1135 0 l 1135 168 z "},"‰":{"ha":1543,"x_min":56,"x_max":1488,"o":"m 56 0 m 299 576 q 411 725 411 576 l 411 731 q 297 888 411 888 l 251 888 q 139 731 139 888 l 139 725 q 251 576 139 576 l 299 576 m 276 971 q 494 733 492 971 l 494 732 q 278 493 494 493 l 272 493 q 56 732 56 493 l 56 733 q 274 971 56 971 l 276 971 m 93 0 l 829 957 l 957 957 l 222 0 l 93 0 m 797 69 q 910 218 910 69 l 910 224 q 796 381 910 381 l 750 381 q 638 224 638 381 l 638 218 q 750 69 638 69 l 797 69 m 775 464 q 993 226 990 464 l 993 225 q 776 -14 993 -14 l 771 -14 q 554 225 554 -14 l 554 226 q 772 464 554 464 l 775 464 m 1292 69 q 1404 218 1404 69 l 1404 224 q 1290 381 1404 381 l 1244 381 q 1132 224 1132 381 l 1132 218 q 1244 69 1132 69 l 1292 69 m 1269 464 q 1488 226 1485 464 l 1488 225 q 1271 -14 1488 -14 l 1265 -14 q 1049 225 1049 -14 l 1049 226 q 1267 464 1049 464 l 1269 464 z "},"‹":{"ha":418,"x_min":22,"x_max":394,"o":"m 22 490 l 304 839 l 394 742 l 186 490 l 393 238 l 304 139 l 22 490 z "},"›":{"ha":418,"x_min":22,"x_max":394,"o":"m 22 238 l 231 490 l 22 742 l 113 839 l 394 490 l 113 139 l 22 238 z "},"⁄":{"ha":324,"x_min":-269,"x_max":594,"o":"m -269 0 l 467 957 l 594 957 l -140 0 l -269 0 z "},"⁰":{"ha":536,"x_min":49,"x_max":488,"o":"m 49 493 m 292 576 q 404 725 404 576 l 404 731 q 290 888 404 888 l 244 888 q 132 731 132 888 l 132 725 q 244 576 132 576 l 292 576 m 269 971 q 488 733 485 971 l 488 732 q 271 493 488 493 l 265 493 q 49 732 49 493 l 49 733 q 267 971 49 971 l 269 971 z "},"⁴":{"ha":472,"x_min":49,"x_max":417,"o":"m 49 493 m 142 724 q 132 696 132 708 q 178 665 132 665 l 331 665 l 331 857 q 307 888 331 888 l 286 888 q 256 883 267 888 q 235 863 246 878 l 142 724 m 331 581 l 151 581 q 109 590 128 581 q 77 616 90 600 q 56 653 64 632 q 49 696 49 674 q 68 761 49 729 l 163 907 q 289 971 204 971 l 315 971 q 395 946 374 971 q 417 861 417 921 l 417 493 l 331 493 l 331 581 z "},"⁵":{"ha":501,"x_min":54,"x_max":446,"o":"m 54 493 m 428 888 l 139 888 l 139 775 l 310 775 q 411 737 376 775 q 446 635 446 699 q 408 534 446 575 q 310 493 369 493 l 54 493 l 54 576 l 310 576 q 347 595 332 576 q 363 635 363 614 q 347 674 363 657 q 310 692 332 692 l 54 692 l 54 971 l 428 971 l 428 888 z "},"⁶":{"ha":528,"x_min":49,"x_max":481,"o":"m 49 493 m 133 692 q 244 576 144 576 l 344 576 q 381 594 365 576 q 396 635 396 611 q 382 675 396 658 q 344 692 368 692 l 133 692 m 265 493 q 49 732 49 493 l 49 733 q 267 971 49 971 l 440 971 l 440 888 l 244 888 q 135 775 147 888 l 349 775 q 401 763 376 775 q 442 732 425 751 q 470 688 460 713 q 481 638 481 664 l 481 631 q 469 580 481 604 q 440 536 458 556 q 398 505 422 517 q 347 493 374 493 l 265 493 z "},"⁷":{"ha":543,"x_min":49,"x_max":499,"o":"m 49 493 m 399 971 q 472 941 446 971 q 499 872 499 911 q 490 828 499 850 q 465 789 482 807 l 190 493 l 76 493 l 410 853 q 418 869 418 861 q 399 888 418 888 l 49 888 l 49 971 l 399 971 z "},"⁸":{"ha":514,"x_min":47,"x_max":467,"o":"m 47 493 m 146 792 q 165 780 156 785 q 186 775 174 775 l 328 775 q 368 792 353 775 q 383 832 383 808 q 367 871 383 854 q 329 888 351 888 l 185 888 q 147 871 163 888 q 131 832 131 854 q 146 792 131 811 m 368 593 q 383 636 383 613 q 367 675 383 658 q 329 692 351 692 l 185 692 q 147 675 163 692 q 131 636 131 658 q 146 594 131 611 q 186 576 161 576 l 328 576 q 368 593 351 576 m 317 971 q 433 931 399 971 q 467 831 467 890 q 454 778 467 806 q 414 733 442 750 q 454 690 442 717 q 467 635 467 663 q 458 583 467 608 q 433 538 450 557 q 387 506 415 518 q 317 493 358 493 l 199 493 q 128 506 157 493 q 81 538 99 518 q 56 583 64 557 q 47 635 47 608 q 59 690 47 663 q 99 733 71 717 q 59 778 71 750 q 47 831 47 806 q 82 931 47 890 q 199 971 117 971 l 317 971 z "},"⁹":{"ha":529,"x_min":49,"x_max":482,"o":"m 49 493 m 396 775 q 286 886 381 886 l 185 886 q 149 868 164 886 q 133 828 133 850 q 148 790 133 806 q 185 775 163 775 l 396 775 m 265 971 q 482 733 482 971 l 482 731 q 264 493 479 493 l 89 493 l 89 576 l 285 576 q 360 604 335 576 q 396 692 386 632 l 181 692 q 128 703 153 692 q 86 732 104 714 q 58 774 68 750 q 49 824 49 797 l 49 832 q 60 883 49 858 q 89 928 71 908 q 131 959 107 947 q 182 971 156 971 l 265 971 z "},"₀":{"ha":536,"x_min":49,"x_max":488,"o":"m 292 69 q 404 218 404 69 l 404 224 q 290 381 404 381 l 244 381 q 132 224 132 381 l 132 218 q 244 69 132 69 l 292 69 m 269 464 q 488 226 485 464 l 488 225 q 271 -14 488 -14 l 265 -14 q 49 225 49 -14 l 49 226 q 267 464 49 464 l 269 464 z "},"₁":{"ha":265,"x_min":40,"x_max":211,"o":"m 40 464 q 102 453 71 464 q 157 423 133 443 q 196 372 181 403 q 211 303 211 342 l 211 -14 l 126 -14 l 126 303 q 101 362 126 343 q 40 381 76 381 l 40 464 z "},"₂":{"ha":571,"x_min":61,"x_max":513,"o":"m 396 464 q 483 433 454 464 q 513 354 513 403 q 494 290 513 318 q 435 244 476 263 l 172 131 q 153 115 161 125 q 146 94 146 106 l 146 69 l 500 69 l 500 -14 l 61 -14 l 61 96 q 64 120 61 106 q 75 150 67 135 q 99 180 83 165 q 139 206 114 194 l 403 319 q 422 335 415 325 q 429 356 429 346 q 423 374 429 367 q 399 381 417 381 l 79 381 l 79 464 l 396 464 z "},"₃":{"ha":492,"x_min":54,"x_max":444,"o":"m 293 464 q 408 425 372 464 q 444 324 444 386 q 432 271 444 299 q 392 226 419 243 q 432 183 419 210 q 444 128 444 156 q 436 76 444 101 q 410 31 428 50 q 364 -1 393 11 q 293 -14 335 -14 l 54 -14 l 54 69 l 306 69 q 345 86 329 69 q 361 129 361 103 q 345 168 361 151 q 307 185 329 185 l 193 185 l 193 268 l 306 268 q 345 285 329 268 q 361 325 361 301 q 345 364 361 347 q 307 381 329 381 l 54 381 l 54 464 l 293 464 z "},"₄":{"ha":472,"x_min":49,"x_max":417,"o":"m 142 217 q 132 189 132 201 q 178 158 132 158 l 331 158 l 331 350 q 307 381 331 381 l 286 381 q 256 376 267 381 q 235 356 246 371 l 142 217 m 331 74 l 151 74 q 109 83 128 74 q 77 109 90 93 q 56 146 64 125 q 49 189 49 167 q 68 254 49 222 l 163 400 q 289 464 204 464 l 315 464 q 395 439 374 464 q 417 354 417 414 l 417 -14 l 331 -14 l 331 74 z "},"₅":{"ha":501,"x_min":54,"x_max":446,"o":"m 428 381 l 139 381 l 139 268 l 310 268 q 411 230 376 268 q 446 128 446 192 q 408 27 446 68 q 310 -14 369 -14 l 54 -14 l 54 69 l 310 69 q 347 88 332 69 q 363 128 363 107 q 347 167 363 150 q 310 185 332 185 l 54 185 l 54 464 l 428 464 l 428 381 z "},"₆":{"ha":528,"x_min":49,"x_max":481,"o":"m 133 185 q 244 69 144 69 l 344 69 q 381 87 365 69 q 396 128 396 104 q 382 168 396 151 q 344 185 368 185 l 133 185 m 265 -14 q 49 225 49 -14 l 49 226 q 267 464 49 464 l 440 464 l 440 381 l 244 381 q 135 268 147 381 l 349 268 q 401 256 376 268 q 442 225 425 244 q 470 181 460 206 q 481 131 481 157 l 481 124 q 469 73 481 97 q 440 29 458 49 q 398 -2 422 10 q 347 -14 374 -14 l 265 -14 z "},"₇":{"ha":543,"x_min":49,"x_max":499,"o":"m 399 464 q 472 434 446 464 q 499 365 499 404 q 490 322 499 343 q 465 282 482 300 l 190 -14 l 76 -14 l 410 346 q 418 363 418 354 q 399 381 418 381 l 49 381 l 49 464 l 399 464 z "},"₈":{"ha":514,"x_min":47,"x_max":467,"o":"m 146 285 q 165 273 156 278 q 186 268 174 268 l 328 268 q 368 285 353 268 q 383 325 383 301 q 367 364 383 347 q 329 381 351 381 l 185 381 q 147 364 163 381 q 131 325 131 347 q 146 285 131 304 m 368 86 q 383 129 383 106 q 367 168 383 151 q 329 185 351 185 l 185 185 q 147 168 163 185 q 131 129 131 151 q 146 87 131 104 q 186 69 161 69 l 328 69 q 368 86 351 69 m 317 464 q 433 424 399 464 q 467 324 467 383 q 454 271 467 299 q 414 226 442 243 q 454 183 442 210 q 467 128 467 156 q 458 76 467 101 q 433 31 450 50 q 387 -1 415 11 q 317 -14 358 -14 l 199 -14 q 128 -1 157 -14 q 81 31 99 11 q 56 76 64 50 q 47 128 47 101 q 59 183 47 156 q 99 226 71 210 q 59 271 71 243 q 47 324 47 299 q 82 424 47 383 q 199 464 117 464 l 317 464 z "},"₉":{"ha":529,"x_min":49,"x_max":482,"o":"m 396 268 q 286 379 381 379 l 185 379 q 149 361 164 379 q 133 321 133 343 q 148 283 133 299 q 185 268 163 268 l 396 268 m 265 464 q 482 226 482 464 l 482 224 q 264 -14 479 -14 l 89 -14 l 89 69 l 285 69 q 360 97 335 69 q 396 185 386 125 l 181 185 q 128 196 153 185 q 86 225 104 207 q 58 267 68 243 q 49 317 49 290 l 49 325 q 60 376 49 351 q 89 421 71 401 q 131 452 107 440 q 182 464 156 464 l 265 464 z "},"€":{"ha":863,"x_min":57,"x_max":810,"o":"m 278 435 l 592 435 l 526 283 l 306 283 q 381 196 335 225 q 501 167 426 167 l 774 167 l 774 0 l 544 0 q 132 283 208 0 l 57 283 l 57 435 l 110 435 l 110 526 l 57 526 l 57 676 l 135 676 q 274 886 171 815 q 546 957 378 957 l 810 957 l 739 789 l 503 789 q 383 760 432 789 q 310 676 333 731 l 692 676 l 629 526 l 278 526 l 278 435 z "},"™":{"ha":1368,"x_min":51,"x_max":1278,"o":"m 181 421 l 181 860 l 51 860 l 51 960 l 406 960 l 406 860 l 281 860 l 281 421 l 181 421 m 1174 421 l 1174 824 q 1139 863 1174 863 q 1107 833 1115 863 l 1010 524 q 958 446 994 475 q 879 417 922 417 q 780 452 821 417 q 739 550 739 488 l 739 824 q 704 863 739 863 q 685 856 692 863 q 674 833 679 849 l 532 421 l 419 421 l 582 875 q 631 942 597 919 q 706 964 665 964 q 804 928 764 964 q 844 831 844 893 l 844 558 q 881 517 844 517 q 911 549 900 517 l 1015 872 q 1065 942 1031 919 q 1139 964 1099 964 q 1238 928 1199 964 q 1278 831 1278 893 l 1278 421 l 1174 421 z "},"⅓":{"ha":1093,"x_min":56,"x_max":1038,"o":"m 56 0 m 128 971 q 190 960 158 971 q 244 930 221 950 q 283 879 268 910 q 299 810 299 849 l 299 493 l 214 493 l 214 810 q 189 869 214 850 q 128 888 164 888 l 128 971 m 56 0 l 792 957 l 919 957 l 185 0 l 56 0 m 886 464 q 1001 425 965 464 q 1038 324 1038 386 q 1025 271 1038 299 q 985 226 1013 243 q 1025 183 1013 210 q 1038 128 1038 156 q 1029 76 1038 101 q 1003 31 1021 50 q 957 -1 986 11 q 886 -14 928 -14 l 647 -14 l 647 69 l 899 69 q 938 86 922 69 q 954 129 954 103 q 938 168 954 151 q 900 185 922 185 l 786 185 l 786 268 l 899 268 q 938 285 922 268 q 954 325 954 301 q 938 364 954 347 q 900 381 922 381 l 647 381 l 647 464 l 886 464 z "},"⅔":{"ha":1153,"x_min":57,"x_max":1097,"o":"m 57 0 m 392 971 q 479 940 450 971 q 508 861 508 910 q 490 797 508 825 q 431 751 472 769 l 168 638 q 149 622 157 632 q 142 601 142 613 l 142 576 l 496 576 l 496 493 l 57 493 l 57 603 q 60 627 57 613 q 71 657 63 642 q 94 687 79 672 q 135 713 110 701 l 399 826 q 418 842 411 832 q 425 863 425 853 q 419 881 425 874 q 394 888 413 888 l 75 888 l 75 971 l 392 971 m 171 0 l 907 957 l 1035 957 l 300 0 l 171 0 m 946 464 q 1061 425 1025 464 q 1097 324 1097 386 q 1085 271 1097 299 q 1044 226 1072 243 q 1085 183 1072 210 q 1097 128 1097 156 q 1089 76 1097 101 q 1063 31 1081 50 q 1017 -1 1046 11 q 946 -14 988 -14 l 707 -14 l 707 69 l 958 69 q 998 86 982 69 q 1014 129 1014 103 q 998 168 1014 151 q 960 185 982 185 l 846 185 l 846 268 l 958 268 q 998 285 982 268 q 1014 325 1014 301 q 998 364 1014 347 q 960 381 982 381 l 707 381 l 707 464 l 946 464 z "},"⅛":{"ha":1101,"x_min":56,"x_max":1046,"o":"m 56 0 m 128 971 q 190 960 158 971 q 244 930 221 950 q 283 879 268 910 q 299 810 299 849 l 299 493 l 214 493 l 214 810 q 189 869 214 850 q 128 888 164 888 l 128 971 m 56 0 l 792 957 l 919 957 l 185 0 l 56 0 m 725 285 q 744 273 735 278 q 765 268 753 268 l 907 268 q 947 285 932 268 q 963 325 963 301 q 947 364 963 347 q 908 381 931 381 l 764 381 q 726 364 742 381 q 710 325 710 347 q 725 285 710 304 m 947 86 q 963 129 963 106 q 947 168 963 151 q 908 185 931 185 l 764 185 q 726 168 742 185 q 710 129 710 151 q 725 87 710 104 q 765 69 740 69 l 907 69 q 947 86 931 69 m 896 464 q 1012 424 978 464 q 1046 324 1046 383 q 1033 271 1046 299 q 993 226 1021 243 q 1033 183 1021 210 q 1046 128 1046 156 q 1038 76 1046 101 q 1012 31 1029 50 q 966 -1 994 11 q 896 -14 938 -14 l 778 -14 q 707 -1 736 -14 q 660 31 678 11 q 635 76 643 50 q 626 128 626 101 q 638 183 626 156 q 678 226 650 210 q 638 271 650 243 q 626 324 626 299 q 661 424 626 383 q 778 464 696 464 l 896 464 z "},"⅜":{"ha":1075,"x_min":56,"x_max":1019,"o":"m 56 0 m 294 971 q 410 932 374 971 q 446 831 446 893 q 433 778 446 806 q 393 733 421 750 q 433 690 421 717 q 446 635 446 663 q 438 583 446 608 q 412 538 429 557 q 365 506 394 518 q 294 493 336 493 l 56 493 l 56 576 l 307 576 q 347 593 331 576 q 363 636 363 610 q 347 675 363 658 q 308 692 331 692 l 194 692 l 194 775 l 307 775 q 347 792 331 775 q 363 832 363 808 q 347 871 363 854 q 308 888 331 888 l 56 888 l 56 971 l 294 971 m 85 0 l 821 957 l 949 957 l 214 0 l 85 0 m 699 285 q 717 273 708 278 q 739 268 726 268 l 881 268 q 921 285 906 268 q 936 325 936 301 q 920 364 936 347 q 882 381 904 381 l 738 381 q 699 364 715 381 q 683 325 683 347 q 699 285 683 304 m 921 86 q 936 129 936 106 q 920 168 936 151 q 882 185 904 185 l 738 185 q 699 168 715 185 q 683 129 683 151 q 699 87 683 104 q 739 69 714 69 l 881 69 q 921 86 904 69 m 869 464 q 985 424 951 464 q 1019 324 1019 383 q 1007 271 1019 299 q 967 226 994 243 q 1007 183 994 210 q 1019 128 1019 156 q 1011 76 1019 101 q 985 31 1003 50 q 940 -1 968 11 q 869 -14 911 -14 l 751 -14 q 681 -1 710 -14 q 634 31 651 11 q 608 76 617 50 q 600 128 600 101 q 612 183 600 156 q 651 226 624 210 q 612 271 624 243 q 600 324 600 299 q 635 424 600 383 q 751 464 669 464 l 869 464 z "},"⅝":{"ha":1085,"x_min":56,"x_max":1029,"o":"m 56 0 m 429 888 l 140 888 l 140 775 l 311 775 q 413 737 378 775 q 447 635 447 699 q 409 534 447 575 q 311 493 371 493 l 56 493 l 56 576 l 311 576 q 349 595 333 576 q 364 635 364 614 q 349 674 364 657 q 311 692 333 692 l 56 692 l 56 971 l 429 971 l 429 888 m 94 0 l 831 957 l 958 957 l 224 0 l 94 0 m 708 285 q 727 273 718 278 q 749 268 736 268 l 890 268 q 931 285 915 268 q 946 325 946 301 q 930 364 946 347 q 892 381 914 381 l 747 381 q 709 364 725 381 q 693 325 693 347 q 708 285 693 304 m 931 86 q 946 129 946 106 q 930 168 946 151 q 892 185 914 185 l 747 185 q 709 168 725 185 q 693 129 693 151 q 708 87 693 104 q 749 69 724 69 l 890 69 q 931 86 914 69 m 879 464 q 995 424 961 464 q 1029 324 1029 383 q 1017 271 1029 299 q 976 226 1004 243 q 1017 183 1004 210 q 1029 128 1029 156 q 1021 76 1029 101 q 995 31 1013 50 q 949 -1 978 11 q 879 -14 921 -14 l 761 -14 q 690 -1 719 -14 q 644 31 661 11 q 618 76 626 50 q 610 128 610 101 q 622 183 610 156 q 661 226 633 210 q 622 271 633 243 q 610 324 610 299 q 644 424 610 383 q 761 464 679 464 l 879 464 z "},"⅞":{"ha":1088,"x_min":56,"x_max":1032,"o":"m 56 0 m 417 971 q 490 941 464 971 q 517 872 517 911 q 508 828 517 850 q 483 789 500 807 l 208 493 l 94 493 l 428 853 q 436 869 436 861 q 417 888 436 888 l 67 888 l 67 971 l 417 971 m 56 0 l 792 957 l 919 957 l 185 0 l 56 0 m 711 285 q 730 273 721 278 q 751 268 739 268 l 893 268 q 933 285 918 268 q 949 325 949 301 q 933 364 949 347 q 894 381 917 381 l 750 381 q 712 364 728 381 q 696 325 696 347 q 711 285 696 304 m 933 86 q 949 129 949 106 q 933 168 949 151 q 894 185 917 185 l 750 185 q 712 168 728 185 q 696 129 696 151 q 711 87 696 104 q 751 69 726 69 l 893 69 q 933 86 917 69 m 882 464 q 998 424 964 464 q 1032 324 1032 383 q 1019 271 1032 299 q 979 226 1007 243 q 1019 183 1007 210 q 1032 128 1032 156 q 1024 76 1032 101 q 998 31 1015 50 q 952 -1 981 11 q 882 -14 924 -14 l 764 -14 q 693 -1 722 -14 q 647 31 664 11 q 621 76 629 50 q 613 128 613 101 q 624 183 613 156 q 664 226 636 210 q 624 271 636 243 q 613 324 613 299 q 647 424 613 383 q 764 464 682 464 l 882 464 z "},"−":{"ha":744,"x_min":28,"x_max":718,"o":"m 28 426 l 28 553 l 718 553 l 718 426 l 28 426 z "},"≈":{"ha":744,"x_min":29,"x_max":718,"o":"m 29 200 m 718 276 q 642 219 679 238 q 558 200 606 200 q 462 222 507 200 q 373 269 417 243 q 285 316 329 294 q 194 338 242 338 q 121 314 160 338 q 29 232 82 290 l 29 372 q 97 429 61 408 q 182 450 133 450 q 284 428 238 450 q 374 381 331 407 q 459 334 417 356 q 547 313 501 313 q 624 336 583 313 q 718 422 665 360 l 718 276 m 718 608 q 642 551 679 569 q 558 532 606 532 q 462 553 507 532 q 373 601 417 575 q 285 648 329 626 q 194 669 242 669 q 121 646 160 669 q 29 564 82 622 l 29 704 q 97 761 61 740 q 182 782 133 782 q 284 760 238 782 q 374 713 331 739 q 459 666 417 688 q 547 644 501 644 q 624 668 583 644 q 718 754 665 692 l 718 608 z "},"≠":{"ha":744,"x_min":-60,"x_max":804,"o":"m 501 564 l 388 415 l 718 415 l 718 289 l 290 289 l 69 0 l -60 0 l 163 289 l 28 289 l 28 415 l 260 415 l 374 564 l 28 564 l 28 690 l 471 690 l 676 957 l 804 957 l 599 690 l 718 690 l 718 564 l 501 564 z "},"≤":{"ha":744,"x_min":28,"x_max":718,"o":"m 28 0 m 28 413 l 28 567 l 718 828 l 718 674 l 186 490 l 718 306 l 718 153 l 28 413 m 28 -3 l 28 124 l 718 124 l 718 -3 l 28 -3 z "},"≥":{"ha":744,"x_min":28,"x_max":718,"o":"m 28 0 m 28 153 l 28 306 l 558 490 l 28 674 l 28 828 l 718 567 l 718 413 l 28 153 m 28 -3 l 28 124 l 718 124 l 718 -3 l 28 -3 z "},"":{"ha":419,"x_min":0,"x_max":0,"o":""}}}
